<?xml version="1.0" encoding="UTF-8" standalone="no"?>
<!-- Generator: Blender, SVG Export for Grease Pencil - v1.0 -->

<svg
   version="1.0"
   x="0px"
   y="0px"
   width="3660px"
   height="1112px"
   viewBox="0 0 3660 1112"
   id="svg21"
   sodipodi:docname="stress_curves.svg"
   inkscape:version="1.1.2 (0a00cf5, 2022-02-04)"
   xmlns:inkscape="http://www.inkscape.org/namespaces/inkscape"
   xmlns:sodipodi="http://sodipodi.sourceforge.net/DTD/sodipodi-0.dtd"
   xmlns="http://www.w3.org/2000/svg"
   xmlns:svg="http://www.w3.org/2000/svg">
  <defs
     id="defs25" />
  <sodipodi:namedview
     id="namedview23"
     pagecolor="#ffffff"
     bordercolor="#666666"
     borderopacity="1.0"
     inkscape:pageshadow="2"
     inkscape:pageopacity="0.0"
     inkscape:pagecheckerboard="0"
     showgrid="false"
     inkscape:zoom="0.22939747"
     inkscape:cx="2476.0517"
     inkscape:cy="686.58124"
     inkscape:window-width="2560"
     inkscape:window-height="1382"
     inkscape:window-x="1920"
     inkscape:window-y="0"
     inkscape:window-maximized="1"
     inkscape:current-layer="svg21" />
  <path
     id="polyline14"
     style="fill:none;stroke:#1e64c8;stroke-width:20;stroke-linecap:round"
     d="m 10,592.45789 c 0,0 4.712325,-0.15341 7.043457,-0.47449 2.223474,-0.30625 4.43089,-0.76869 6.590363,-1.3805 2.103122,-0.59584 4.166867,-1.34647 6.169799,-2.22192 1.98921,-0.86945 3.918456,-1.88398 5.781433,-2.99853 1.880142,-1.12482 3.685683,-2.37857 5.425385,-3.71033 1.775922,-1.35949 3.46971,-2.82863 5.101929,-4.35767 1.677427,-1.57139 3.271731,-3.23286 4.81073,-4.94006 1.586171,-1.75952 3.092956,-3.59137 4.551788,-5.45783 1.503482,-1.92358 2.934478,-3.90424 4.325256,-5.91082 1.430401,-2.06375 2.796877,-4.17201 4.131104,-6.2992 1.367569,-2.18035 2.680619,-4.39497 3.969391,-6.6228 1.315351,-2.27378 2.585717,-4.57357 3.839905,-6.88165 1.273956,-2.34446 2.512416,-4.70815 3.742828,-7.07575 1.243501,-2.39279 2.460714,-4.79917 3.678162,-7.20532 1.223918,-2.41893 2.4305,-4.8466 3.645751,-7.2699 1.215261,-2.42332 2.421867,-4.851 3.645783,-7.26996 1.21742,-2.40612 2.434572,-4.8125 3.67804,-7.20526 1.230403,-2.36762 2.468874,-4.73132 3.742828,-7.0758 1.25419,-2.3081 2.524552,-4.60792 3.839905,-6.88172 1.288761,-2.22783 2.601793,-4.44245 3.969363,-6.6228 1.33423,-2.12719 2.70073,-4.23544 4.13113,-6.29919 1.39078,-2.00659 2.82174,-3.9873 4.32523,-5.91089 1.45886,-1.86649 2.96572,-3.69833 4.55191,-5.45789 1.53898,-1.70719 3.1332,-3.36873 4.81061,-4.94012 1.6322,-1.52904 3.32602,-2.99812 5.10192,-4.35761 1.73976,-1.33182 3.54533,-2.58569 5.42554,-3.71057 1.86296,-1.11456 3.79221,-2.12905 5.7814,-2.99853 2.00291,-0.87547 4.06661,-1.62617 6.16971,-2.22205 2.15947,-0.61185 4.36689,-1.07431 6.59036,-1.38062 2.33112,-0.32114 4.69062,-0.51407 7.04343,-0.47473 2.35944,0.0394 4.73192,0.23709 7.04343,0.71192 2.25561,0.46335 4.46935,1.17451 6.59039,2.07098 2.15308,0.91001 4.21231,2.05541 6.1698,3.33295 2.04471,1.33446 3.96141,2.87014 5.7814,4.4978 1.93122,1.72713 3.72154,3.61403 5.42542,5.5658 1.81771,2.08217 3.49757,4.28583 5.10193,6.5365 1.70939,2.39802 3.29254,4.88668 4.81073,7.41009 1.60968,2.67547 3.10814,5.41823 4.55178,8.18683 1.52038,2.91577 2.94542,5.88148 4.32525,8.86633 1.44239,3.12019 2.8047,6.2775 4.13111,9.44873 1.37599,3.28977 2.68609,6.60713 3.96938,9.93415 1.32116,3.42521 2.5894,6.87081 3.83989,10.32244 1.27782,3.52708 2.5147,7.06896 3.74284,10.61365 1.24585,3.59582 2.46181,7.20195 3.67816,10.80786 1.22504,3.63168 2.43051,7.26994 3.64577,10.90491 1.21526,3.63497 2.42074,7.27322 3.64577,10.90491 1.21632,3.60586 2.43223,7.21196 3.67804,10.80774 1.22813,3.54473 2.465,7.08665 3.74283,10.61377 1.25048,3.45162 2.51874,6.89719 3.8399,10.32238 1.2833,3.32704 2.59338,6.64442 3.96938,9.93421 1.32641,3.17123 2.68869,6.32855 4.1311,9.44873 1.37985,2.98485 2.80497,5.95051 4.32538,8.86627 1.44365,2.76857 2.94214,5.5113 4.55179,8.18677 1.51818,2.52344 3.10123,5.01218 4.81061,7.41022 1.60433,2.25067 3.2842,4.4543 5.10192,6.53643 1.7039,1.95176 3.4943,3.83861 5.42554,5.56574 1.82001,1.62766 3.73669,3.16338 5.7814,4.49786 1.95746,1.27754 4.01665,2.42296 6.16971,3.33295 2.12106,0.89647 4.33483,1.60758 6.59046,2.07092 2.31148,0.47481 4.68392,0.67245 7.04333,0.71192 2.3528,0.0394 4.71231,-0.15349 7.04343,-0.47461 2.22352,-0.3063 4.43097,-0.76878 6.59048,-1.38062 2.10308,-0.59585 4.16679,-1.34646 6.16968,-2.22192 1.98922,-0.86949 3.91845,-1.88408 5.78143,-2.99866 1.88019,-1.12487 3.68579,-2.37864 5.42554,-3.71045 1.77588,-1.35947 3.46963,-2.82858 5.10181,-4.3576 1.67743,-1.57141 3.27172,-3.23292 4.81073,-4.94013 1.58615,-1.75951 3.09294,-3.59132 4.55175,-5.45776 1.5035,-1.92362 2.93445,-3.90435 4.32526,-5.91095 1.43042,-2.06375 2.79701,-4.17194 4.13126,-6.29913 1.36759,-2.18034 2.68059,-4.39498 3.96936,-6.62281 1.31534,-2.27376 2.58572,-4.57353 3.8399,-6.88159 1.27396,-2.34447 2.51242,-4.70819 3.74283,-7.07581 1.24346,-2.39275 2.46062,-4.7991 3.67804,-7.2052 1.22391,-2.41894 2.43052,-4.84659 3.64578,-7.26989 1.21525,-2.4233 2.42184,-4.85096 3.64575,-7.2699 1.21742,-2.40612 2.43458,-4.8125 3.67805,-7.20526 1.2304,-2.36761 2.46887,-4.73129 3.74282,-7.07575 1.25419,-2.3081 2.52454,-4.60792 3.83991,-6.88171 1.28876,-2.2278 2.60183,-4.44236 3.96939,-6.62268 1.33423,-2.12718 2.70069,-4.23545 4.1311,-6.29919 1.39081,-2.00661 2.82188,-3.98727 4.32538,-5.91089 1.45882,-1.86646 2.96552,-3.69836 4.55167,-5.45789 1.53898,-1.70721 3.13328,-3.36867 4.8107,-4.94006 1.63221,-1.52904 3.326,-2.99818 5.10192,-4.35767 1.73975,-1.3318 3.54535,-2.58559 5.42554,-3.71045 1.86298,-1.11456 3.79222,-2.12911 5.78143,-2.99859 2.00289,-0.87546 4.0666,-1.62612 6.16968,-2.22199 2.15947,-0.61184 4.36689,-1.07432 6.59037,-1.38061 2.33112,-0.32112 4.69062,-0.51395 7.04342,-0.47461 2.35945,0.0395 4.73194,0.23703 7.04346,0.71185 2.25564,0.46334 4.46941,1.17451 6.59048,2.07098 2.15304,0.90999 4.21223,2.05536 6.16968,3.33289 2.04473,1.33449 3.9614,2.87025 5.78143,4.49792 1.93123,1.72712 3.72164,3.61393 5.42554,5.56568 1.81772,2.08213 3.49755,4.28578 5.10187,6.53644 1.70938,2.39805 3.29245,4.88678 4.81064,7.41021 1.60966,2.67546 3.1082,5.41815 4.55185,8.18671 1.5204,2.91575 2.94548,5.88143 4.32531,8.86627 1.44241,3.1202 2.8047,6.27754 4.13111,9.44879 1.37598,3.28977 2.68605,6.60713 3.96933,9.93415 1.32116,3.42521 2.58941,6.8708 3.8399,10.32244 1.27782,3.52708 2.51471,7.06896 3.74283,10.61365 1.24584,3.59582 2.46177,7.20195 3.6781,10.80786 1.22503,3.63171 2.43051,7.26998 3.64575,10.90497 1.21524,3.63497 2.42066,7.27323 3.64569,10.90491 1.21632,3.60587 2.43228,7.21196 3.67811,10.80774 1.22814,3.54473 2.46501,7.08665 3.74285,10.61377 1.25049,3.45162 2.51875,6.8972 3.83991,10.32239 1.28329,3.32702 2.59338,6.64438 3.96936,9.93414 1.32641,3.17125 2.6887,6.32859 4.1311,9.44879 1.37982,2.98484 2.80486,5.95053 4.32526,8.86627 1.44365,2.76857 2.94222,5.51125 4.55188,8.18671 1.51819,2.52343 3.10123,5.01218 4.81061,7.41022 1.60433,2.25067 3.2842,4.4543 5.10193,6.53643 1.7039,1.95174 3.4943,3.83856 5.42553,5.56568 1.82001,1.62765 3.73667,3.16337 5.78137,4.49786 1.95747,1.27756 4.01666,2.423 6.16974,3.33301 2.12106,0.89647 4.33484,1.60756 6.59046,2.07092 2.3115,0.47484 4.68395,0.75122 7.04339,0.71204 2.36872,-0.0393 4.75734,-0.32792 7.04346,-0.94922 2.29848,-0.62466 4.51228,-1.59751 6.59045,-2.76129 2.21138,-1.23837 4.25416,-2.78429 6.16968,-4.44397 2.09857,-1.81828 3.9944,-3.87194 5.7815,-5.99713 1.97215,-2.34525 3.74503,-4.85859 5.42547,-7.42096 1.84606,-2.81491 3.51358,-5.74727 5.10187,-8.71527 1.72832,-3.22967 3.30335,-6.54165 4.81067,-9.88019 1.62221,-3.59299 3.11556,-7.24437 4.55182,-10.91565 1.52875,-3.90769 2.95052,-7.85736 4.32532,-11.82184 1.44799,-4.17551 2.80815,-8.38154 4.1311,-12.59833 1.37973,-4.39779 2.68838,-8.8179 3.9693,-13.24548 1.32367,-4.57535 2.59096,-9.167 3.8399,-13.76331 1.27946,-4.70865 2.51568,-9.42901 3.74286,-14.15155 1.24682,-4.79813 2.46222,-9.60439 3.6781,-14.41046 1.22549,-4.84402 2.43051,-9.69319 3.64575,-14.53979 1.21525,-4.84664 2.42021,-9.69586 3.6457,-14.53992 1.21588,-4.80609 2.43133,-9.61236 3.67816,-14.41052 1.22717,-4.72252 2.46335,-9.44287 3.7428,-14.15149 1.24893,-4.5963 2.51622,-9.18792 3.8399,-13.76325 1.28094,-4.4276 2.58961,-8.84773 3.96936,-13.24554 1.32296,-4.21679 2.68311,-8.42282 4.1311,-12.59833 1.3748,-3.96443 2.79658,-7.91406 4.32532,-11.82171 1.43627,-3.6713 2.92961,-7.3227 4.55182,-10.91571 1.50732,-3.33854 3.08234,-6.65052 4.81067,-9.88019 1.58831,-2.96802 3.25585,-5.9004 5.10193,-8.71533 1.68043,-2.56234 3.45328,-5.07566 5.42541,-7.4209 1.7871,-2.12521 3.68291,-4.17892 5.7815,-5.9972 1.91551,-1.65965 3.95831,-3.20549 6.16967,-4.44384 2.07819,-1.16377 4.29199,-2.13661 6.59046,-2.76129 2.28612,-0.62132 4.67568,-1.0269 7.04346,-0.94935 2.39402,0.0784 4.81926,0.53475 7.04345,1.42383 2.40929,0.96307 4.59359,2.4852 6.59046,4.14191 2.33011,1.93319 4.31586,4.2722 6.16974,6.66589 2.18259,2.81812 4.03397,5.88905 5.78143,8.99579 2.0236,3.59769 3.76957,7.3504 5.42554,11.13141 1.87662,4.28481 3.52883,8.66764 5.10192,13.07294 1.74666,4.89136 3.31299,9.84712 4.81067,14.82037 1.63348,5.4242 3.12175,10.89219 4.55176,16.37354 1.53586,5.8871 2.95466,11.8048 4.32532,17.73254 1.45262,6.2822 2.81096,12.58623 4.13116,18.89758 1.38278,6.61056 2.69028,13.23688 3.96936,19.86829 1.32567,6.87298 2.59219,13.75735 3.83991,20.6449 1.28075,7.06984 2.51641,14.14783 3.74286,21.22729 1.2476,7.20154 2.46263,14.4087 3.67816,21.61572 1.22584,7.26816 2.43044,14.53988 3.64569,21.80982 1.21525,7.26994 2.41995,14.54165 3.64581,21.80981 1.21554,7.20698 2.43053,14.4141 3.6781,21.6156 1.22644,7.07951 2.46206,14.15754 3.7428,21.22742 1.24771,6.88754 2.51423,13.77189 3.83991,20.64484 1.27909,6.63141 2.58662,13.25772 3.96942,19.86828 1.3202,6.31134 2.67854,12.61535 4.13116,18.89753 1.37067,5.92774 2.78944,11.84544 4.32532,17.73254 1.43002,5.48135 2.91833,10.94933 4.55182,16.37353 1.49769,4.97327 3.06402,9.92905 4.81067,14.82044 1.57306,4.40527 3.22521,8.78809 5.1018,13.07287 1.65596,3.781 3.40195,7.53368 5.42554,11.13135 1.74746,3.10676 3.59884,6.17772 5.78143,8.99585 1.85388,2.3937 3.83963,4.7327 6.16974,6.6659 1.99686,1.65671 4.18112,3.17889 6.5904,4.14196 2.22409,0.88905 4.65065,1.53738 7.04315,1.42371 2.45056,-0.11642 4.92061,-0.90563 7.04333,-2.13562 2.61227,-1.51365 4.68299,-3.87279 6.59046,-6.21301 2.47435,-3.03572 4.36536,-6.52286 6.1698,-9.99878 2.25458,-4.34302 4.06005,-8.91309 5.78149,-13.49366 2.05873,-5.47808 3.78368,-11.07998 5.42542,-16.69714 1.89476,-6.48285 3.53701,-13.0391 5.10192,-19.60937 1.75667,-7.37536 3.31793,-14.7972 4.81067,-22.23047 1.63932,-8.16322 3.12485,-16.35735 4.55176,-24.56037 1.53943,-8.84986 2.95666,-17.721 4.32532,-26.59887 1.45487,-9.43708 2.81228,-18.8892 4.13116,-28.34625 1.38425,-9.92584 2.69121,-19.86245 3.96942,-29.8025 1.32663,-10.31655 2.59276,-20.64088 3.83991,-30.96734 1.28135,-10.60965 2.51676,-21.22483 3.74286,-31.84101 1.24794,-10.80531 2.46273,-21.61444 3.6781,-32.42346 1.22601,-10.9037 2.43051,-21.80981 3.64575,-32.71472 1.21524,-10.90491 2.41968,-21.81102 3.64569,-32.71472 1.21537,-10.80903 2.43021,-21.61815 3.67816,-32.42346 1.22611,-10.6162 2.46151,-21.2314 3.74286,-31.84107 1.24715,-10.32646 2.5133,-20.65078 3.83991,-30.96734 1.27819,-9.94004 2.58507,-19.87666 3.9693,-29.80249 1.31886,-9.45705 2.67629,-18.90918 4.13116,-28.34626 1.36866,-8.87789 2.78589,-17.74905 4.32532,-26.59893 1.42691,-8.203 2.91244,-16.39711 4.55176,-24.56031 1.49274,-7.43329 3.05401,-14.85515 4.81067,-22.23053 1.5649,-6.57029 3.20709,-13.12657 5.10186,-19.60943 1.64176,-5.61717 3.36677,-11.21906 5.42557,-16.69715 1.7214,-4.58053 3.5269,-9.15059 5.7814,-13.49359 1.8044,-3.47595 3.6954,-6.96315 6.1698,-9.9989 1.9074,-2.34019 3.9782,-4.69929 6.5904,-6.21289 2.1227,-1.22996 4.5928,-2.01911 7.0433,-2.1355 2.3926,-0.11364 4.8192,0.53476 7.0433,1.42383 2.4093,0.96308 4.5936,2.4852 6.5905,4.14191 2.3301,1.93319 4.3159,4.27218 6.1698,6.66589 2.1826,2.81809 4.0339,5.88902 5.7813,8.99573 2.0236,3.59772 3.7696,7.35043 5.4256,11.13147 1.8766,4.2848 3.5287,8.66766 5.1018,13.07294 1.7467,4.89135 3.3131,9.84707 4.8108,14.82031 1.6335,5.42418 3.1217,10.89218 4.5517,16.37353 1.5359,5.88712 2.9546,11.80485 4.3253,17.73261 1.4526,6.28218 2.8111,12.58618 4.1313,18.89752 1.3828,6.61056 2.6902,13.23688 3.9693,19.86829 1.3257,6.87298 2.5923,13.75734 3.84,20.64489 1.2808,7.06986 2.5164,14.14787 3.7428,21.22736 1.2476,7.20152 2.4626,14.40866 3.6781,21.61566 1.2258,7.26816 2.4305,14.53988 3.6457,21.80982 1.2153,7.26994 2.4199,14.54165 3.6458,21.80981 1.2155,7.20702 2.4305,14.41418 3.6781,21.61572 1.2264,7.07947 2.462,14.15746 3.7428,21.2273 1.2477,6.88756 2.5143,13.77192 3.84,20.6449 1.2791,6.6314 2.5864,13.25773 3.9692,19.86828 1.3202,6.31136 2.6786,12.61538 4.1312,18.89758 1.3706,5.92774 2.7893,11.84545 4.3252,17.73255 1.43,5.48136 2.9183,10.94934 4.5518,16.37353 1.4977,4.97324 3.0641,9.92896 4.8108,14.82032 1.5731,4.40528 3.2252,8.78813 5.1018,13.07293 1.6559,3.78102 3.4019,7.53373 5.4255,11.13141 1.7475,3.10674 3.5989,6.17762 5.7815,8.99573 1.8539,2.39368 3.8396,4.7327 6.1697,6.66589 1.9969,1.65671 4.1811,3.17885 6.5904,4.14191 2.2242,0.88907 4.6494,1.34533 7.0434,1.42377 2.3678,0.0776 4.7573,-0.32787 7.0434,-0.94916 2.2985,-0.62465 4.5122,-1.59754 6.5904,-2.76129 2.2114,-1.23836 4.2543,-2.78417 6.1698,-4.44385 2.0985,-1.81826 3.9942,-3.87202 5.7813,-5.99719 1.9722,-2.34528 3.7451,-4.85859 5.4256,-7.42096 1.8461,-2.8149 3.5136,-5.74727 5.1019,-8.71527 1.7283,-3.22969 3.3034,-6.54168 4.8107,-9.88025 1.6222,-3.59299 3.1155,-7.24438 4.5517,-10.91565 1.5287,-3.90768 2.9505,-7.85733 4.3253,-11.82178 1.448,-4.17552 2.8083,-8.38152 4.1313,-12.59833 1.3798,-4.3978 2.6883,-8.81795 3.9692,-13.24554 1.3237,-4.57534 2.5911,-9.16695 3.84,-13.76325 1.2795,-4.70864 2.5156,-9.42902 3.7428,-14.15155 1.2468,-4.79812 2.4623,-9.60435 3.6782,-14.4104 1.2255,-4.84405 2.4304,-9.69328 3.6457,-14.53991 1.2152,-4.84661 2.4203,-9.69577 3.6458,-14.5398 1.2159,-4.80606 2.4312,-9.61233 3.678,-14.41046 1.2272,-4.72255 2.4634,-9.4429 3.7429,-14.15155 1.2489,-4.59627 2.5161,-9.18788 3.8398,-13.76318 1.281,-4.42763 2.5897,-8.84777 3.9695,-13.24561 1.323,-4.21679 2.6831,-8.42282 4.1311,-12.59833 1.3748,-3.96441 2.7966,-7.91401 4.3253,-11.82165 1.4363,-3.6713 2.9296,-7.3227 4.5518,-10.91571 1.5073,-3.33856 3.0824,-6.65056 4.8107,-9.88025 1.5883,-2.96799 3.2557,-5.90037 5.1018,-8.71527 1.6804,-2.56236 3.4533,-5.07566 5.4255,-7.4209 1.7871,-2.12518 3.6829,-4.17886 5.7815,-5.99713 1.9156,-1.65969 3.9584,-3.20559 6.1698,-4.44397 2.0781,-1.16375 4.2919,-2.13654 6.5903,-2.76123 2.2861,-0.62133 4.6851,-1.1752 7.0433,-0.94947 2.467,0.23614 4.9542,1.04398 7.046,2.37299 2.6889,1.70835 4.7144,4.34238 6.6093,6.9032 2.5247,3.41183 4.405,7.27366 6.221,11.10986 2.297,4.85215 4.1253,9.91981 5.8813,14.99286 2.1127,6.10342 3.8879,12.32191 5.5899,18.55237 1.9706,7.21396 3.6923,14.4954 5.3474,21.78821 1.8615,8.2022 3.5351,16.44686 5.1531,24.70056 1.7791,9.07556 3.4149,18.1791 5.0075,27.28924 1.7197,9.83734 3.3304,19.69368 4.9106,29.55439 1.6809,10.48913 3.28,20.99132 4.8619,31.49585 1.6613,11.03189 3.2633,22.07265 4.8617,33.11383 1.6599,11.46607 3.2803,22.93782 4.9105,34.40814 1.676,11.792 3.3297,23.58716 5.0075,35.3789 1.7089,12.00997 3.4116,24.02086 5.1532,36.02613 1.7583,12.12008 3.5253,24.23899 5.3473,36.34967 1.8238,12.12259 3.6707,24.24189 5.5899,36.34973 1.9049,12.01761 3.8473,24.0296 5.8812,36.02606 2.0015,11.80548 4.0549,23.60267 6.2211,35.37903 2.1129,11.48631 4.2921,22.9612 6.6091,34.40808 2.2388,11.06078 4.5594,22.10622 7.0462,33.11389 2.3788,10.52925 4.8549,21.03833 7.5315,31.49585 2.532,9.89281 5.1782,19.75929 8.0654,29.55432 2.698,9.15289 5.5276,18.2716 8.6478,27.28929 2.876,8.3118 5.9024,16.5792 9.279,24.7005 3.0657,7.3735 6.3019,14.6893 9.9585,21.7883 3.268,6.3445 6.7294,12.613 10.6862,18.5524 3.4879,5.2356 7.2016,10.3652 11.4632,14.9929 3.7406,4.0619 7.7591,7.9507 12.2881,11.1098 4.0634,2.8343 8.4672,5.3214 13.1621,6.9032 4.5117,1.52 9.3363,2.0206 14.0842,2.3727 25.1004,1.8614 50.3445,-0.4404 75.4946,-1.4237 23.2788,-0.9101 46.5473,-2.2497 69.7669,-4.1418 21.4744,-1.7498 42.9206,-3.9323 64.292,-6.666 19.7562,-2.5271 39.4646,-5.4884 59.0705,-8.9958 18.1241,-3.2423 36.1787,-6.9187 54.1021,-11.1313 16.5774,-3.8963 33.0622,-8.2245 49.3865,-13.073 15.1159,-4.4896 30.1145,-9.4058 44.9243,-14.8203 13.7388,-5.0229 27.3344,-10.4635 40.7155,-16.3736 12.4444,-5.4964 24.72,-11.3974 36.7591,-17.7326 11.2321,-5.9105 22.2705,-12.20733 33.0564,-18.8975 10.0999,-6.26468 19.9839,-12.89251 29.6064,-19.86828 9.0467,-6.55835 17.8595,-13.45148 26.4099,-20.6449 8.0712,-6.79022 15.8959,-13.88268 23.4661,-21.22729 7.1727,-6.959 14.0937,-14.18444 20.7759,-21.61573 6.3509,-7.06289 12.4525,-14.355 18.3384,-21.80981 5.6063,-7.10059 10.9736,-14.39314 16.1545,-21.80982 4.9392,-7.07076 9.6569,-14.29824 14.2229,-21.61559 4.3511,-6.97298 8.5049,-14.07001 12.5454,-21.22742 3.8426,-6.80671 7.5165,-13.70873 11.1201,-20.6449 3.4147,-6.57255 6.6939,-13.21516 9.9488,-19.86829 3.068,-6.27106 6.0356,-12.5908 9.0297,-18.89746 2.8029,-5.90388 5.5428,-11.83768 8.3645,-17.7326 2.6197,-5.47282 5.2146,-10.95874 7.9522,-16.37354 2.5182,-4.98097 5.051,-9.95862 7.7925,-14.82031 2.4997,-4.43297 5.0557,-8.84364 7.8864,-13.07294 2.567,-3.83534 5.2369,-7.62118 8.2332,-11.13141 2.7284,-3.19645 5.6154,-6.29283 8.8335,-8.99572 3.0014,-2.5209 6.2185,-4.84002 9.6868,-6.6659 3.4098,-1.79507 7.0513,-3.22016 10.7929,-4.1419 3.9599,-0.97551 8.0735,-1.3915 12.1516,-1.42395 2.3597,-0.0188 4.7318,0.23708 7.0433,0.71191 2.2556,0.46336 4.4694,1.17457 6.5905,2.07105 2.153,0.91 4.2122,2.05536 6.1697,3.33288 2.0448,1.3345 3.9615,2.87023 5.7815,4.49793 1.9312,1.7271 3.7215,3.61396 5.4253,5.56567 1.8177,2.08216 3.4977,4.28576 5.102,6.53644 1.7094,2.39804 3.2924,4.8868 4.8106,7.41022 1.6097,2.67548 3.1083,5.41817 4.552,8.18676 1.5204,2.91573 2.9454,5.88143 4.3252,8.86627 1.4424,3.12021 2.8047,6.27756 4.1311,9.4488 1.376,3.28977 2.6862,6.60712 3.9695,9.93414 1.3212,3.42521 2.5896,6.87079 3.8401,10.32245 1.2778,3.52706 2.5145,7.06898 3.7426,10.61365 1.2458,3.59582 2.4619,7.2019 3.6783,10.8078 1.2251,3.63169 2.4304,7.26998 3.6457,10.90496 1.2152,3.63498 2.4207,7.27323 3.6458,10.90491 1.2164,3.60591 2.4323,7.21204 3.6782,10.80786 1.2282,3.54469 2.4651,7.08656 3.7429,10.61365 1.2505,3.45162 2.5188,6.89719 3.8399,10.32239 1.2833,3.32703 2.5932,6.64444 3.9692,9.9342 1.3264,3.17125 2.6889,6.32853 4.1313,9.44873 1.3798,2.98484 2.8048,5.95057 4.3252,8.86634 1.4436,2.76858 2.9422,5.51129 4.5518,8.18676 1.5182,2.52341 3.1012,5.01213 4.8105,7.41016 1.6043,2.25068 3.2841,4.45437 5.1018,6.5365 1.7039,1.95176 3.4944,3.83853 5.4256,5.56567 1.82,1.62764 3.7365,3.16347 5.7812,4.49793 1.9575,1.27757 4.0169,2.42288 6.17,3.33288 2.121,0.89643 4.3347,1.60759 6.5903,2.07093 2.3115,0.47483 4.684,0.75111 7.0434,0.71191 2.3687,-0.0393 4.7574,-0.32792 7.0435,-0.94922 2.2984,-0.62464 4.5122,-1.5975 6.5903,-2.76123 2.2115,-1.23839 4.2544,-2.78425 6.17,-4.44397 2.0986,-1.81827 3.9944,-3.87197 5.7815,-5.99719 1.9721,-2.34522 3.7448,-4.85857 5.4252,-7.4209 1.846,-2.81494 3.5135,-5.74733 5.1018,-8.71533 1.7283,-3.2297 3.3035,-6.54168 4.8108,-9.88025 1.6222,-3.59299 3.1155,-7.24437 4.5518,-10.91565 1.5287,-3.90763 2.9504,-7.85726 4.3252,-11.82166 1.448,-4.17554 2.8083,-8.38157 4.1313,-12.59839 1.3798,-4.39778 2.6884,-8.8179 3.9693,-13.24548 1.3237,-4.57534 2.5909,-9.167 3.8398,-13.7633 1.2795,-4.70867 2.5157,-9.42906 3.7429,-14.15162 1.2469,-4.79812 2.4624,-9.60434 3.6783,-14.4104 1.2255,-4.84403 2.4305,-9.69324 3.6457,-14.53985 1.2153,-4.84662 2.4203,-9.69581 3.6458,-14.53986 1.2159,-4.80606 2.4311,-9.61235 3.6779,-14.41046 1.2272,-4.72256 2.4637,-9.44289 3.7432,-14.15155 1.249,-4.5963 2.5162,-9.18796 3.8399,-13.76331 1.2809,-4.42759 2.5897,-8.84767 3.9694,-13.24548 1.3229,-4.2168 2.6829,-8.42288 4.1309,-12.59839 1.3748,-3.96443 2.7966,-7.91402 4.3254,-11.82165 1.4363,-3.67132 2.9298,-7.32272 4.552,-10.91577 1.5073,-3.33852 3.0823,-6.6505 4.8106,-9.88019 1.5882,-2.96797 3.2555,-5.90037 5.1015,-8.71527 1.6804,-2.56236 3.4532,-5.07569 5.4253,-7.4209 1.7872,-2.12524 3.6831,-4.17888 5.7818,-5.99719 1.9155,-1.65966 3.9583,-3.20561 6.1697,-4.44397 2.0782,-1.16377 4.292,-2.13658 6.5905,-2.76123 2.2861,-0.62129 4.6758,-0.87024 7.0435,-0.94922 2.3518,-0.0784 4.7123,0.15342 7.0434,0.47455 2.2234,0.30629 4.4307,0.76886 6.5901,1.38067 2.1032,0.59588 4.167,1.34646 6.17,2.22193 1.9892,0.86946 3.9185,1.88398 5.7815,2.99859 1.88,1.12482 3.6854,2.37871 5.425,3.71045 1.7759,1.35954 3.4698,2.8286 5.1021,4.35767 1.6774,1.57139 3.2717,3.23291 4.8107,4.94012 1.5862,1.75953 3.093,3.59137 4.5518,5.45783 1.5035,1.92358 2.9344,3.90427 4.3252,5.91083 1.4304,2.06376 2.797,4.17199 4.1313,6.29919 1.3676,2.18034 2.6807,4.39496 3.9695,6.6228 1.3154,2.27375 2.5857,4.57351 3.8399,6.88159 1.2739,2.34444 2.5123,4.70816 3.7426,7.07575 1.2434,2.39277 2.4605,4.79918 3.678,7.20526 1.224,2.41898 2.4309,4.84656 3.6463,7.2699 1.2153,2.42327 2.4218,4.851 3.6457,7.26995 1.2174,2.40609 2.4346,4.81241 3.678,7.20514 1.2304,2.36761 2.4688,4.73134 3.7427,7.07581 1.2541,2.30808 2.5245,4.60789 3.8398,6.88165 1.2888,2.22783 2.6019,4.44241 3.9695,6.62274 1.3343,2.1272 2.7009,4.23541 4.1313,6.2992 1.3907,2.00656 2.8215,3.98733 4.325,5.91089 1.4588,1.8665 2.9658,3.69826 4.552,5.45782 1.539,1.70717 3.1331,3.36876 4.8105,4.94013 1.6322,1.52907 3.3262,2.99809 5.1021,4.3576 1.7397,1.33177 3.5452,2.58564 5.4253,3.71051 1.8629,1.11456 3.7921,2.12911 5.7812,2.99854 2.0031,0.87551 4.067,1.62609 6.1702,2.22198 2.1594,0.6118 4.3667,1.07431 6.5901,1.38062 2.3311,0.32115 4.6906,0.51408 7.0434,0.47473 2.3595,-0.0395 4.732,-0.23715 7.0435,-0.71198 2.2557,-0.46335 4.4695,-1.17443 6.5906,-2.07092 2.1531,-0.91 4.2122,-2.05545 6.1697,-3.33301 2.0446,-1.33447 3.9612,-2.8702 5.7812,-4.4978 1.9313,-1.72715 3.7219,-3.61392 5.4258,-5.56573 1.8177,-2.08209 3.4973,-4.28579 5.1016,-6.53644 1.7093,-2.39804 3.2923,-4.88676 4.8105,-7.41016 1.6097,-2.67551 3.1083,-5.4182 4.552,-8.18683 1.5204,-2.91573 2.9452,-5.88146 4.325,-8.86627 1.4424,-3.12023 2.8048,-6.27754 4.1313,-9.44879 1.376,-3.28976 2.6862,-6.60711 3.9695,-9.93414 1.3212,-3.42518 2.5894,-6.87077 3.8398,-10.32239 1.2778,-3.52712 2.5146,-7.06904 3.7427,-10.61377 1.2458,-3.59579 2.4616,-7.2019 3.678,-10.80774 1.2251,-3.63171 2.4309,-7.26989 3.6462,-10.90491 1.2152,-3.63494 2.4203,-7.27331 3.6453,-10.90497 1.2163,-3.60593 2.4326,-7.21197 3.6785,-10.8078 1.2281,-3.54468 2.4648,-7.08662 3.7426,-10.61371 1.2505,-3.45165 2.5187,-6.89724 3.8399,-10.32244 1.2833,-3.32703 2.5935,-6.64436 3.9695,-9.93415 1.3264,-3.17122 2.6884,-6.32863 4.1308,-9.44879 1.3799,-2.98489 2.8052,-5.95049 4.3257,-8.86627 1.4437,-2.76857 2.9422,-5.51133 4.5518,-8.18683 1.5181,-2.52341 3.1012,-5.01212 4.8105,-7.41016 1.6043,-2.25065 3.2839,-4.45433 5.1016,-6.53643 1.7039,-1.9518 3.4944,-3.83861 5.4257,-5.56574 1.82,-1.62765 3.7368,-3.16336 5.7815,-4.49786 1.9574,-1.27751 4.0165,-2.42296 6.1695,-3.33295 2.1211,-0.8965 4.3349,-1.60765 6.5905,-2.07098 2.3115,-0.47481 4.6837,-0.7118 7.0435,-0.71179 2.3598,10e-6 4.732,0.23704 7.0435,0.71185 2.2556,0.46333 4.4694,1.17444 6.5905,2.07092 2.1531,0.91 4.2122,2.05545 6.1697,3.33301 2.0447,1.33449 3.9613,2.87023 5.7813,4.49786 1.9313,1.72713 3.7217,3.61393 5.4257,5.56568 1.8178,2.08213 3.4977,4.28574 5.1021,6.53643 1.7094,2.398 3.2923,4.88677 4.8105,7.41016 1.6097,2.67549 3.1083,5.41819 4.552,8.18677 1.5205,2.91577 2.9457,5.88144 4.3255,8.86633 1.4424,3.12015 2.8045,6.2775 4.1308,9.44873 1.3759,3.28978 2.6857,6.60722 3.969,9.93421 1.3212,3.42524 2.5899,6.87072 3.8404,10.32238 1.2779,3.52704 2.5145,7.06896 3.7426,10.61365 1.2458,3.59583 2.4617,7.20196 3.678,10.80786 1.225,3.63169 2.4305,7.26993 3.6458,10.90491 1.2152,3.63496 2.4207,7.27324 3.6457,10.90491 1.2164,3.60592 2.4325,7.21201 3.6783,10.80786 1.2281,3.54466 2.4647,7.08658 3.7424,10.61365 1.2504,3.45165 2.5186,6.89725 3.8398,10.32244 1.2833,3.32704 2.5935,6.64436 3.9695,9.93415 1.3264,3.17123 2.6885,6.32863 4.1309,9.44879 1.3799,2.98488 2.8052,5.95048 4.3257,8.86627 1.4437,2.76854 2.942,5.51132 4.5517,8.18677 1.5182,2.52344 3.1014,5.01213 4.8108,7.41015 1.6044,2.25069 3.2843,4.45435 5.1021,6.5365 1.704,1.95175 3.4944,3.83855 5.4257,5.56568 1.82,1.62763 3.7366,3.16335 5.7813,4.49786 1.9574,1.27753 4.0164,2.423 6.1694,3.33301 2.1209,0.89647 4.3346,1.60758 6.5901,2.07092 2.3115,0.47485 4.6852,0.79695 7.0435,0.71198 4.5982,-0.16568 9.2389,-0.90008 13.5979,-2.37299 4.7305,-1.59843 9.1529,-4.11359 13.2942,-6.9032 4.7305,-3.1865 8.9841,-7.07325 13.0136,-11.10986 4.6355,-4.6436 8.7876,-9.76633 12.7542,-14.99286 4.5098,-5.94229 8.5933,-12.20721 12.5161,-18.55237 4.3857,-7.09394 8.4134,-14.40921 12.3003,-21.78827 4.2733,-8.11254 8.2504,-16.38126 12.1057,-24.70056 4.1743,-9.00779 8.1051,-18.12867 11.9326,-27.28924 4.0886,-9.78555 7.9778,-19.65457 11.7815,-29.55432 4.0149,-10.44927 7.8673,-20.96105 11.6519,-31.49591 3.9521,-11.00107 7.7732,-22.0492 11.5439,-33.11377 3.8994,-11.4424 7.6955,-22.91999 11.4578,-34.40821 3.8559,-11.77399 7.6321,-23.57401 11.3921,-35.37897 3.8211,-11.99666 7.5846,-24.01158 11.3491,-36.02612 3.7946,-12.1107 7.5518,-24.23309 11.3276,-36.34967 3.7758,-12.11654 7.5326,-24.23899 11.3272,-36.34967 3.7644,-12.01457 7.5281,-24.02947 11.3493,-36.02612 3.7601,-11.80496 7.5368,-23.60487 11.3926,-35.37891 3.7622,-11.48817 7.5577,-22.96589 11.457,-34.40826 3.7705,-11.0646 7.5919,-22.11265 11.544,-33.11371 3.7846,-10.53483 7.6369,-21.0466 11.6518,-31.49585 3.8037,-9.89976 7.6929,-19.76878 11.7815,-29.55432 3.8275,-9.1606 7.7583,-18.28149 11.9327,-27.28931 3.8553,-8.31929 7.8324,-16.588025 12.1057,-24.70056 3.8869,-7.37904 7.9146,-14.694285 12.3003,-21.788208 3.9228,-6.345138 8.0063,-12.610022 12.5161,-18.552307 3.9666,-5.226537 8.1186,-10.349341 12.7541,-14.99292 4.0296,-4.03664 8.2833,-7.923319 13.0139,-11.109802 4.1415,-2.789653 8.5641,-5.304856 13.2947,-6.90332 4.3586,-1.472769 8.9997,-2.18678 13.5967,-2.372803 2.5842,-0.1045717 5.1792,0.262068 7.7261,0.711914 2.6667,0.471007 5.291,1.201122 7.8554,2.070923 2.726,0.924609 5.3779,2.07412 7.9666,3.332947 2.767,1.345534 5.4445,2.878138 8.0605,4.497863 2.7943,1.730145 5.4956,3.61234 8.1387,5.565674 2.8109,2.077285 5.5315,4.277714 8.1987,6.536499 2.8193,2.387613 5.5551,4.874622 8.2422,7.410096 2.8209,2.661745 5.5662,5.404185 8.2681,8.186706 2.8166,2.900688 5.566,5.866993 8.2773,8.866394 2.8067,3.104936 5.5544,6.263406 8.2693,9.448853 2.7914,3.275105 5.5319,6.593689 8.2447,9.934143 2.7705,3.411492 5.4974,6.858495 8.2021,10.322387 2.7444,3.514701 5.4524,7.057869 8.1433,10.613648 2.7129,3.584733 5.396,7.192003 8.0672,10.807863 2.6756,3.62181 5.3274,7.26122 7.9731,10.90497 2.633,3.62629 5.2484,7.26535 7.863,10.9049 2.5848,3.59806 5.1577,7.20471 7.7356,10.80774 2.531,3.53744 5.0554,7.07956 7.5911,10.61365 2.4714,3.44454 4.9417,6.88991 7.4297,10.32251 2.4059,3.31938 4.8159,6.6359 7.2507,9.93414 2.3345,3.16231 4.6782,6.31804 7.0547,9.44886 2.2571,2.97347 4.5288,5.93627 6.842,8.86627 2.1736,2.75315 4.3669,5.49151 6.6119,8.18676 2.0839,2.50188 4.1926,4.98446 6.3647,7.41016 1.9883,2.22036 4.0064,4.41618 6.1011,6.53644 1.8865,1.90951 3.8075,3.78905 5.8196,5.56573 1.7794,1.57125 3.5984,3.10597 5.5214,4.49787 1.669,1.2081 3.3835,2.37111 5.2056,3.33288 1.561,0.82393 3.1766,1.58497 4.8735,2.07099 1.4676,0.42035 4.5242,0.71191 4.5242,0.71191"
     sodipodi:nodetypes="csssssssssssssssssssssssssssssssssssssssssssssssssssssssssssssssssssssssssssssssssssssssssssssssssssssssssssssssssssssssssssssssssssssssssssssssssssssssssssssssssssssssssssssssssssssssssssssssssssssssssssssssssssssssssssssssssssssssssssssssssssssssssssssssssssssssssssssssssssssssssssssssssssssssssssssssssssssssssssssssssssssssssssssssssssssssssssssssssssssssssssssssssssssssssssssssssssssssssssssssssssssssssssssssssssssssssssssssssssssssssssssssssssssssssssssssssssssssssssssssssssssssssssssssssssssssssssssssssssssssssssssssssssssssssssc" />
  <g
     id="blender_frame_1"
     style="stroke:#71a860;stroke-width:20;stroke-miterlimit:4;stroke-dasharray:none">
    <g
       id="blender_object_GPencil"
       style="stroke:#71a860;stroke-width:20;stroke-miterlimit:4;stroke-dasharray:none">
      <!--Layer: GP_Layer-->
      <g
         id="GP_Layer"
         style="stroke:#71a860;stroke-width:20;stroke-miterlimit:4;stroke-dasharray:none">
        <path
           id="polyline2"
           style="fill:none;stroke-linecap:round"
           d="m 10,956.49414 c 303.88242,19.11378 606.98752,139.66856 912.14093,68.20706 180.95187,-42.37572 321.57407,-175.37215 427.03397,-322.10498 51.672,-71.8944 148.5474,-90.35532 228.6308,-55.05629 190.4058,83.92679 380.0355,170.61422 581.8064,227.04148 171.6616,48.00689 357.0937,13.6636 499.8082,-91.06457 251.4132,-184.49458 398.0906,-472.24921 639.1381,-666.73566 100.6012,-81.168916 238.9432,-104.422532 351.8034,-33.973807"
           sodipodi:nodetypes="cssssssc" />
      </g>
    </g>
  </g>
  <g
     id="g12"
     style="stroke:#e85e71;stroke-width:20;stroke-miterlimit:4;stroke-dasharray:none">
    <g
       id="blender_object_GPencil.001"
       style="stroke:#e85e71;stroke-width:20;stroke-miterlimit:4;stroke-dasharray:none">
      <!--Layer: GP_Layer-->
      <g
         id="g9"
         style="stroke:#e85e71;stroke-width:20;stroke-miterlimit:4;stroke-dasharray:none">
        <path
           id="polyline7"
           style="fill:none;stroke-linecap:round"
           d="m 10,155.6145 c 374.27406,7.55979 748.79119,-6.87489 1122.9106,4.44192 67.7102,2.04818 176.7333,5.46776 182.3868,94.28481 9.2095,144.68234 25.6868,290.60299 83.4938,425.0514 55.3213,128.66718 76.9039,280.27414 176.9636,383.28097 81.1057,83.4945 210.0921,23.4898 288.8314,-36.019 179.1903,-135.42665 336.3001,-300.64846 537.386,-406.99867 383.3584,-202.75034 838.2494,-222.21397 1248.3886,-100.00534"
           sodipodi:nodetypes="cssssssc" />
      </g>
    </g>
  </g>
  <text
     xml:space="preserve"
     style="font-size:98.6777px;line-height:1.25;font-family:'Shadows Into Light';-inkscape-font-specification:'Shadows Into Light, ';letter-spacing:0px;word-spacing:0px;stroke-width:1.30542"
     x="208.22466"
     y="909.25531"
     id="text5203"
     transform="rotate(7.2883013)"><tspan
       sodipodi:role="line"
       id="tspan5201"
       x="208.22466"
       y="909.25531"
       style="font-style:normal;font-variant:normal;font-weight:bold;font-stretch:normal;font-size:98.6777px;font-family:Lato;-inkscape-font-specification:'Lato Bold';fill:#71a860;stroke-width:1.30542">Stress</tspan></text>
  <text
     xml:space="preserve"
     style="font-size:98.6777px;line-height:1.25;font-family:'Shadows Into Light';-inkscape-font-specification:'Shadows Into Light, ';letter-spacing:0px;word-spacing:0px;stroke-width:1.30542"
     x="100.05555"
     y="129.18256"
     id="text5203-3"
     transform="rotate(0.41326219)"><tspan
       sodipodi:role="line"
       id="tspan5201-6"
       x="100.05555"
       y="129.18256"
       style="font-style:normal;font-variant:normal;font-weight:bold;font-stretch:normal;font-size:98.6777px;font-family:Lato;-inkscape-font-specification:'Lato Bold';fill:#e85e71;stroke-width:1.30542">Motivation</tspan></text>
  <text
     xml:space="preserve"
     style="font-size:98.6777px;line-height:1.25;font-family:'Shadows Into Light';-inkscape-font-specification:'Shadows Into Light, ';letter-spacing:0px;word-spacing:0px;stroke-width:1.30542"
     x="235.45842"
     y="667.75336"
     id="text5203-3-7"
     transform="rotate(13.353281)"><tspan
       sodipodi:role="line"
       id="tspan5201-6-5"
       x="235.45842"
       y="667.75336"
       style="font-style:normal;font-variant:normal;font-weight:bold;font-stretch:normal;font-size:98.6777px;font-family:Lato;-inkscape-font-specification:'Lato Bold';fill:#1e64c8;stroke-width:1.30542">Productivity</tspan></text>
</svg>
