<?xml version="1.0" encoding="utf-8" standalone="no"?>
<!DOCTYPE svg PUBLIC "-//W3C//DTD SVG 1.1//EN"
  "http://www.w3.org/Graphics/SVG/1.1/DTD/svg11.dtd">
<svg xmlns:xlink="http://www.w3.org/1999/xlink" width="127.5pt" height="124.62pt" viewBox="0 0 127.5 124.62" xmlns="http://www.w3.org/2000/svg" version="1.1">
 <metadata>
  <rdf:RDF xmlns:dc="http://purl.org/dc/elements/1.1/" xmlns:cc="http://creativecommons.org/ns#" xmlns:rdf="http://www.w3.org/1999/02/22-rdf-syntax-ns#">
   <cc:Work>
    <dc:type rdf:resource="http://purl.org/dc/dcmitype/StillImage"/>
    <dc:date>2023-06-10T14:44:46.652184</dc:date>
    <dc:format>image/svg+xml</dc:format>
    <dc:creator>
     <cc:Agent>
      <dc:title>Matplotlib v3.5.1, https://matplotlib.org/</dc:title>
     </cc:Agent>
    </dc:creator>
   </cc:Work>
  </rdf:RDF>
 </metadata>
 <defs>
  <style type="text/css">*{stroke-linejoin: round; stroke-linecap: butt}</style>
 </defs>
 <g id="figure_1">
  <g id="patch_1">
   <path d="M 0 124.62 
L 127.5 124.62 
L 127.5 0 
L 0 0 
L 0 124.62 
z
" style="fill: none"/>
  </g>
  <g id="axes_1">
   <g id="patch_2">
    <path d="M 7.2 117.42 
L 118.8 117.42 
L 118.8 8.7 
L 7.2 8.7 
z
" style="fill: #ffffff"/>
   </g>
   <g id="matplotlib.axis_1"/>
   <g id="matplotlib.axis_2"/>
   <g id="line2d_1">
    <defs>
     <path id="mf47bafcbd4" d="M 1.5 0 
L -1.5 -1.5 
L -1.5 1.5 
z
" style="stroke: #000000; stroke-linejoin: miter"/>
    </defs>
    <g>
     <use xlink:href="#mf47bafcbd4" x="118.8" y="112.478182" style="stroke: #000000; stroke-linejoin: miter"/>
    </g>
   </g>
   <g id="line2d_2">
    <defs>
     <path id="m7fa8fce3c9" d="M 0 -1.5 
L -1.5 1.5 
L 1.5 1.5 
z
" style="stroke: #000000; stroke-linejoin: miter"/>
    </defs>
    <g>
     <use xlink:href="#m7fa8fce3c9" x="52.854545" y="8.7" style="stroke: #000000; stroke-linejoin: miter"/>
    </g>
   </g>
   <g id="patch_3">
    <path d="M 52.854545 117.42 
L 52.854545 8.7 
" style="fill: none; stroke: #000000; stroke-width: 0.8; stroke-linejoin: miter; stroke-linecap: square"/>
   </g>
   <g id="patch_4">
    <path d="M 118.8 117.42 
L 118.8 8.7 
" style="fill: none"/>
   </g>
   <g id="patch_5">
    <path d="M 7.2 112.478182 
L 118.8 112.478182 
" style="fill: none; stroke: #000000; stroke-width: 0.8; stroke-linejoin: miter; stroke-linecap: square"/>
   </g>
   <g id="patch_6">
    <path d="M 7.2 8.7 
L 118.8 8.7 
" style="fill: none"/>
   </g>
   <g id="line2d_3">
    <path d="M 12.272727 68.550909 
L 15.331658 74.923531 
L 18.390589 80.796991 
L 21.44952 86.171291 
L 24.508451 91.046429 
L 27.057561 94.727741 
L 29.60667 98.062414 
L 32.155779 101.050447 
L 34.704888 103.69184 
L 37.253997 105.986594 
L 39.803106 107.934708 
L 41.842394 109.243619 
L 43.881681 110.33068 
L 45.920968 111.195893 
L 47.960256 111.839256 
L 49.999543 112.260769 
L 52.038831 112.460434 
L 54.078118 112.438249 
L 56.117405 112.194215 
L 58.156693 111.728331 
L 60.19598 111.040598 
L 62.235267 110.131016 
L 64.274555 108.999585 
L 66.313842 107.646304 
L 68.353129 106.071174 
L 70.902238 103.790286 
L 73.451348 101.162758 
L 76.000457 98.18859 
L 78.549566 94.867784 
L 81.098675 91.200337 
L 83.647784 87.186251 
L 86.706715 81.911784 
L 89.765646 76.138156 
L 92.824577 69.865366 
L 95.883508 63.093416 
L 98.942439 55.822305 
L 102.511192 46.708458 
L 106.079945 36.915197 
L 109.648698 26.442523 
L 113.217451 15.290436 
L 113.727273 13.641818 
L 113.727273 13.641818 
" clip-path="url(#pba5adec984)" style="fill: none; stroke: #1e64c8; stroke-width: 1.5; stroke-linecap: square"/>
   </g>
  </g>
 </g>
 <defs>
  <clipPath id="pba5adec984">
   <rect x="7.2" y="8.7" width="111.6" height="108.72"/>
  </clipPath>
 </defs>
</svg>
