<?xml version="1.0" encoding="UTF-8" standalone="no"?>
<!-- Created with Inkscape (http://www.inkscape.org/) -->

<svg
   version="1.1"
   id="svg2"
   xml:space="preserve"
   width="541.09088"
   height="136"
   viewBox="0 0 541.09088 135.99999"
   sodipodi:docname="invite_background.svg"
   inkscape:version="1.1.2 (0a00cf5, 2022-02-04)"
   xmlns:inkscape="http://www.inkscape.org/namespaces/inkscape"
   xmlns:sodipodi="http://sodipodi.sourceforge.net/DTD/sodipodi-0.dtd"
   xmlns="http://www.w3.org/2000/svg"
   xmlns:svg="http://www.w3.org/2000/svg"
   xmlns:rdf="http://www.w3.org/1999/02/22-rdf-syntax-ns#"
   xmlns:cc="http://creativecommons.org/ns#"
   xmlns:dc="http://purl.org/dc/elements/1.1/"><metadata
     id="metadata8"><rdf:RDF><cc:Work
         rdf:about=""><dc:format>image/svg+xml</dc:format><dc:type
           rdf:resource="http://purl.org/dc/dcmitype/StillImage" /></cc:Work></rdf:RDF></metadata><defs
     id="defs6"><clipPath
       clipPathUnits="userSpaceOnUse"
       id="clipPath20"><path
         d="M 7.2,7.2 H 453.6 V 118.08 H 7.2 Z"
         id="path18"
         inkscape:connector-curvature="0" /></clipPath><clipPath
       clipPathUnits="userSpaceOnUse"
       id="clipPath30"><path
         d="M 7.2,7.2 H 453.6 V 118.08 H 7.2 Z"
         id="path28"
         inkscape:connector-curvature="0" /></clipPath><clipPath
       clipPathUnits="userSpaceOnUse"
       id="clipPath40"><path
         d="M 7.2,7.2 H 453.6 V 118.08 H 7.2 Z"
         id="path38"
         inkscape:connector-curvature="0" /></clipPath><clipPath
       clipPathUnits="userSpaceOnUse"
       id="clipPath50"><path
         d="M 7.2,7.2 H 453.6 V 118.08 H 7.2 Z"
         id="path48"
         inkscape:connector-curvature="0" /></clipPath><clipPath
       clipPathUnits="userSpaceOnUse"
       id="clipPath60"><path
         d="M 7.2,7.2 H 453.6 V 118.08 H 7.2 Z"
         id="path58"
         inkscape:connector-curvature="0" /></clipPath><clipPath
       clipPathUnits="userSpaceOnUse"
       id="clipPath70"><path
         d="M 7.2,7.2 H 453.6 V 118.08 H 7.2 Z"
         id="path68"
         inkscape:connector-curvature="0" /></clipPath><clipPath
       clipPathUnits="userSpaceOnUse"
       id="clipPath80"><path
         d="M 7.2,7.2 H 453.6 V 118.08 H 7.2 Z"
         id="path78"
         inkscape:connector-curvature="0" /></clipPath><clipPath
       clipPathUnits="userSpaceOnUse"
       id="clipPath90"><path
         d="M 7.2,7.2 H 453.6 V 118.08 H 7.2 Z"
         id="path88"
         inkscape:connector-curvature="0" /></clipPath><clipPath
       clipPathUnits="userSpaceOnUse"
       id="clipPath100"><path
         d="M 7.2,7.2 H 453.6 V 118.08 H 7.2 Z"
         id="path98"
         inkscape:connector-curvature="0" /></clipPath><clipPath
       clipPathUnits="userSpaceOnUse"
       id="clipPath110"><path
         d="M 7.2,7.2 H 453.6 V 118.08 H 7.2 Z"
         id="path108"
         inkscape:connector-curvature="0" /></clipPath><clipPath
       clipPathUnits="userSpaceOnUse"
       id="clipPath120"><path
         d="M 7.2,7.2 H 453.6 V 118.08 H 7.2 Z"
         id="path118"
         inkscape:connector-curvature="0" /></clipPath><clipPath
       clipPathUnits="userSpaceOnUse"
       id="clipPath130"><path
         d="M 7.2,7.2 H 453.6 V 118.08 H 7.2 Z"
         id="path128"
         inkscape:connector-curvature="0" /></clipPath><clipPath
       clipPathUnits="userSpaceOnUse"
       id="clipPath140"><path
         d="M 7.2,7.2 H 453.6 V 118.08 H 7.2 Z"
         id="path138"
         inkscape:connector-curvature="0" /></clipPath><clipPath
       clipPathUnits="userSpaceOnUse"
       id="clipPath150"><path
         d="M 7.2,7.2 H 453.6 V 118.08 H 7.2 Z"
         id="path148"
         inkscape:connector-curvature="0" /></clipPath><clipPath
       clipPathUnits="userSpaceOnUse"
       id="clipPath160"><path
         d="M 7.2,7.2 H 453.6 V 118.08 H 7.2 Z"
         id="path158"
         inkscape:connector-curvature="0" /></clipPath><clipPath
       clipPathUnits="userSpaceOnUse"
       id="clipPath170"><path
         d="M 7.2,7.2 H 453.6 V 118.08 H 7.2 Z"
         id="path168"
         inkscape:connector-curvature="0" /></clipPath><clipPath
       clipPathUnits="userSpaceOnUse"
       id="clipPath180"><path
         d="M 7.2,7.2 H 453.6 V 118.08 H 7.2 Z"
         id="path178"
         inkscape:connector-curvature="0" /></clipPath><clipPath
       clipPathUnits="userSpaceOnUse"
       id="clipPath190"><path
         d="M 7.2,7.2 H 453.6 V 118.08 H 7.2 Z"
         id="path188"
         inkscape:connector-curvature="0" /></clipPath><clipPath
       clipPathUnits="userSpaceOnUse"
       id="clipPath200"><path
         d="M 7.2,7.2 H 453.6 V 118.08 H 7.2 Z"
         id="path198"
         inkscape:connector-curvature="0" /></clipPath><clipPath
       clipPathUnits="userSpaceOnUse"
       id="clipPath210"><path
         d="M 7.2,7.2 H 453.6 V 118.08 H 7.2 Z"
         id="path208"
         inkscape:connector-curvature="0" /></clipPath></defs><sodipodi:namedview
     pagecolor="#ffffff"
     bordercolor="#666666"
     borderopacity="1"
     objecttolerance="10"
     gridtolerance="10"
     guidetolerance="10"
     inkscape:pageopacity="0"
     inkscape:pageshadow="2"
     inkscape:window-width="2560"
     inkscape:window-height="1382"
     id="namedview4"
     showgrid="false"
     inkscape:zoom="4"
     inkscape:cx="86.25"
     inkscape:cy="33.125"
     inkscape:window-x="1920"
     inkscape:window-y="0"
     inkscape:window-maximized="1"
     inkscape:current-layer="g10"
     inkscape:pagecheckerboard="0" /><g
     id="g10"
     inkscape:groupmode="layer"
     inkscape:label="invite_background"
     transform="matrix(1.3333333,0,0,-1.3333333,-36.654544,150.715)"><g
       clip-path="url(#clipPath20)"
       id="g16"
       style="stroke:#1e64c8;stroke-width:0.4995;stroke-linecap:round;stroke-linejoin:round;stroke-miterlimit:10;stroke-dasharray:none;stroke-opacity:1"
       transform="translate(0,-0.48789276)"><path
         inkscape:connector-curvature="0"
         id="path22"
         style="fill:none;stroke:#1e64c8;stroke-width:0.4995;stroke-linecap:round;stroke-linejoin:round;stroke-miterlimit:10;stroke-dasharray:none;stroke-opacity:1"
         d="m 27.490909,63.241061 3.249795,-1.528987 2.031122,-1.171523 2.031122,-1.39533 2.437347,-1.959764 3.249795,-2.966633 6.093366,-5.683055 2.437347,-1.957682 2.031122,-1.384578 2.031122,-1.123613 2.031122,-0.84441 2.031122,-0.560698 2.031122,-0.283922 2.031122,-0.02294 2.031122,0.215958 2.031122,0.428871 2.437346,0.756401 2.843571,1.154676 3.249795,1.590203 4.062244,2.256392 6.905815,4.149159 10.155611,6.068482 6.905809,3.846323 6.4996,3.367458 6.90581,3.32221 7.31204,3.2592 7.71826,3.182951 7.71827,2.94102 7.71826,2.710157 7.71826,2.481074 7.71827,2.247588 7.31204,1.906757 7.31204,1.682046 7.31204,1.449077 6.90581,1.147637 6.90582,0.927061 6.90581,0.701553 6.90582,0.472092 6.90581,0.239659 6.90582,0.0052 6.90581,-0.23057 6.49959,-0.432984 6.49959,-0.642776 6.90582,-0.913319 6.49959,-1.077411 6.49959,-1.290607 6.49959,-1.507318 6.49959,-1.729728 6.49959,-1.960654 6.49959,-2.203448 6.09337,-2.29995 6.09336,-2.542325 5.68714,-2.606575 5.68714,-2.846322 5.68715,-3.097146 5.68714,-3.352499 6.09336,-3.866111 6.49959,-4.395637 11.37429,-8.036863 6.09336,-4.159921 4.06225,-2.540619 3.65602,-2.023381 2.84357,-1.341503 2.84357,-1.088655 2.43735,-0.696785 2.43734,-0.448494 2.03112,-0.16478 2.03113,0.03992 2.03112,0.256139 2.03112,0.480954 2.03112,0.710745 2.03112,0.941168 2.03113,1.167205 2.43734,1.684486 2.43735,1.96627 2.84357,2.592993 3.65602,3.664971 7.71826,7.865967 2.84357,2.52077 2.43735,1.840483 2.03112,1.257465 2.03113,0.976321 1.62489,0.567022 1.6249,0.373251 1.6249,0.181812 1.6249,-0.002 2.03112,-0.241073 2.03112,-0.472774 2.43735,-0.80926 3.24979,-1.337031 0.81245,-0.355475 v 0" /></g><g
       clip-path="url(#clipPath30)"
       id="g26"
       style="stroke:#1e64c8;stroke-width:0.4995;stroke-linecap:round;stroke-linejoin:round;stroke-miterlimit:10;stroke-dasharray:none;stroke-opacity:1"
       transform="translate(0,-0.48789276)"><path
         inkscape:connector-curvature="0"
         id="path32"
         style="fill:none;stroke:#1e64c8;stroke-width:0.4995;stroke-linecap:round;stroke-linejoin:round;stroke-miterlimit:10;stroke-dasharray:none;stroke-opacity:1"
         d="m 27.490909,61.79795 3.65602,-2.253744 2.437346,-1.748968 2.843571,-2.316192 9.343161,-7.932263 2.031122,-1.351078 2.031122,-1.102451 2.031122,-0.828616 2.031122,-0.544601 2.031123,-0.26358 2.031122,0.0038 2.031122,0.249639 2.031122,0.468737 2.437346,0.809986 2.843571,1.220076 3.249795,1.660359 4.468469,2.565222 16.248976,9.596751 5.687142,2.995819 5.687137,2.751997 6.09337,2.701286 6.49959,2.638503 7.31204,2.718595 7.71826,2.631297 8.53072,2.665568 8.53071,2.436316 8.93694,2.31801 8.53071,1.989643 8.53071,1.767004 8.53071,1.537201 8.12449,1.243226 8.12449,1.021283 8.12449,0.793571 8.12449,0.560892 7.71826,0.313452 7.71826,0.09637 7.71827,-0.123966 7.71826,-0.348131 7.71826,-0.577545 7.31204,-0.765821 7.31204,-0.98877 6.90582,-1.151892 6.90581,-1.381905 6.49959,-1.532719 6.09337,-1.665771 5.68714,-1.779655 5.28092,-1.871212 5.28092,-2.107001 4.87469,-2.176988 4.87469,-2.420994 4.87469,-2.683367 4.8747,-2.958644 4.87469,-3.236849 4.87469,-3.501971 5.68714,-4.37002 17.06143,-13.392457 3.24979,-2.158631 2.84358,-1.63869 2.43734,-1.170247 2.43735,-0.912634 2.03112,-0.536162 2.03112,-0.310073 2.03112,-0.06551 2.03113,0.194401 2.03112,0.465541 2.03112,0.742762 2.03112,1.019917 2.03112,1.28993 2.03113,1.544943 2.43734,2.156991 2.84357,2.860595 3.65602,4.032804 6.09337,6.763478 2.43735,2.404268 2.03112,1.756627 2.03112,1.477556 1.6249,0.953668 1.6249,0.734445 1.62489,0.506655 1.6249,0.276791 1.6249,0.05152 1.6249,-0.162591 1.62489,-0.359414 2.03113,-0.690973 2.43734,-1.111289 3.2498,-1.784168 1.21867,-0.709942 v 0" /></g><g
       clip-path="url(#clipPath40)"
       id="g36"
       style="stroke:#1e64c8;stroke-width:0.4995;stroke-linecap:round;stroke-linejoin:round;stroke-miterlimit:10;stroke-dasharray:none;stroke-opacity:1"
       transform="translate(0,-0.48789276)"><path
         inkscape:connector-curvature="0"
         id="path42"
         style="fill:none;stroke:#1e64c8;stroke-width:0.4995;stroke-linecap:round;stroke-linejoin:round;stroke-miterlimit:10;stroke-dasharray:none;stroke-opacity:1"
         d="m 27.490909,59.96451 4.468469,-3.641407 4.468468,-4.001794 4.062244,-3.55088 2.437347,-1.844997 2.031122,-1.27626 2.031122,-0.991229 1.624897,-0.569688 1.624898,-0.365081 1.624897,-0.161829 1.624898,0.0344 2.031122,0.300911 2.031122,0.559076 2.031122,0.781957 2.437347,1.179538 2.84357,1.627213 4.062245,2.616505 12.999181,8.612447 4.468468,2.623125 4.468468,2.378471 4.468469,2.141656 4.874695,2.092691 5.28092,2.021307 5.68714,1.94238 6.49959,1.984687 7.31204,2.002134 8.53071,2.101174 9.34316,2.074872 10.15561,2.031289 10.56183,1.887361 10.56184,1.663633 10.56183,1.437235 10.15561,1.162869 10.15561,0.941883 10.15561,0.714726 9.74939,0.466492 9.74939,0.244572 9.34316,0.01762 9.34316,-0.207237 8.93694,-0.427295 8.12448,-0.606901 7.71827,-0.799891 6.90581,-0.933992 6.49959,-1.104874 5.68714,-1.181771 5.28092,-1.310818 4.87469,-1.423681 4.8747,-1.661389 4.46847,-1.761412 4.06224,-1.823454 4.06224,-2.056366 4.06225,-2.307923 4.06224,-2.573952 4.06225,-2.847332 4.06224,-3.117172 4.46847,-3.717221 5.28092,-4.706282 12.99918,-11.790972 3.24979,-2.57271 2.84357,-1.962467 2.43735,-1.403604 2.03112,-0.933951 2.03112,-0.688731 2.03113,-0.416485 1.62489,-0.120971 1.6249,0.07889 1.6249,0.286715 1.6249,0.499736 1.62489,0.714735 1.6249,0.928057 2.03112,1.450915 2.03113,1.754107 2.43734,2.459072 2.84357,3.257116 4.06225,5.062787 4.46847,5.489996 2.43734,2.668241 2.03112,1.925806 2.03113,1.586915 1.62489,0.991644 1.6249,0.72507 1.6249,0.448757 1.6249,0.171061 1.62489,-0.09956 1.6249,-0.354933 1.6249,-0.587643 2.03112,-1.01718 2.03112,-1.268467 2.84357,-2.058928 2.43735,-1.893131 v 0" /></g><g
       clip-path="url(#clipPath50)"
       id="g46"
       style="stroke:#1e64c8;stroke-width:0.4995;stroke-linecap:round;stroke-linejoin:round;stroke-miterlimit:10;stroke-dasharray:none;stroke-opacity:1"
       transform="translate(0,-0.48789276)"><path
         inkscape:connector-curvature="0"
         id="path52"
         style="fill:none;stroke:#1e64c8;stroke-width:0.4995;stroke-linecap:round;stroke-linejoin:round;stroke-miterlimit:10;stroke-dasharray:none;stroke-opacity:1"
         d="m 27.490909,57.520325 10.561835,-10.653252 2.031122,-1.648446 2.031122,-1.336782 1.624897,-0.808075 1.624898,-0.556546 1.624898,-0.297454 1.624897,-0.03985 1.624898,0.208267 1.624897,0.44029 1.624898,0.651156 2.031122,1.072685 2.437347,1.597302 2.84357,2.174986 4.062244,3.433249 8.124489,6.915752 4.062244,3.113748 3.656019,2.512535 3.65602,2.22596 3.65602,1.95051 3.656019,1.698756 4.062244,1.628295 4.468471,1.524986 4.87469,1.406111 5.28092,1.287306 6.09336,1.257998 7.31204,1.281774 9.34316,1.397647 11.78051,1.519976 14.21786,1.601836 15.84275,1.559617 16.24897,1.377142 16.24898,1.152185 15.84275,0.89772 15.03031,0.628094 13.4054,0.346201 11.78051,0.09129 10.15561,-0.141345 8.53071,-0.341087 7.31204,-0.517256 6.09337,-0.64354 5.68714,-0.826096 4.87469,-0.924242 4.46847,-1.059855 4.06224,-1.171551 4.06225,-1.400682 3.65602,-1.482708 3.65602,-1.717363 3.65602,-1.97442 3.65602,-2.251209 3.65602,-2.542813 3.65602,-2.841408 3.65602,-3.135591 4.06224,-3.803971 4.46847,-4.505074 14.21785,-14.633124 2.84357,-2.446345 2.43735,-1.799786 2.03112,-1.239729 2.03112,-0.962919 1.6249,-0.54689 1.6249,-0.33006 1.6249,-0.09859 1.62489,0.144836 1.6249,0.396886 1.6249,0.653603 1.6249,0.910422 1.62489,1.162221 1.6249,1.40342 2.03112,2.067709 2.03113,2.372627 2.84357,3.716226 9.34316,12.71516 2.03112,2.238324 1.6249,1.515457 1.6249,1.23201 1.62489,0.921392 1.21868,0.476185 1.21867,0.287648 1.21867,0.09884 1.21868,-0.08683 1.21867,-0.26606 1.6249,-0.616631 1.62489,-0.88772 1.6249,-1.121452 2.03112,-1.665815 2.84358,-2.66902 3.24979,-3.274753 v 0" /></g><g
       clip-path="url(#clipPath60)"
       id="g56"
       style="stroke:#1e64c8;stroke-width:0.4995;stroke-linecap:round;stroke-linejoin:round;stroke-miterlimit:10;stroke-dasharray:none;stroke-opacity:1"
       transform="translate(0,-0.48789276)"><path
         inkscape:connector-curvature="0"
         id="path62"
         style="fill:none;stroke:#1e64c8;stroke-width:0.4995;stroke-linecap:round;stroke-linejoin:round;stroke-miterlimit:10;stroke-dasharray:none;stroke-opacity:1"
         d="m 27.490909,54.326253 6.499591,-8.035808 2.437346,-2.610468 1.624898,-1.473754 1.624897,-1.203564 1.624898,-0.895994 1.218673,-0.454744 1.218673,-0.261999 1.218674,-0.0679 1.218673,0.12361 1.218673,0.30898 1.624898,0.683976 1.624897,0.968036 1.624898,1.217494 2.031122,1.814298 2.437346,2.503589 3.249796,3.679359 8.124488,9.362279 3.249795,3.367811 2.843571,2.661988 2.843571,2.375157 2.84357,2.087397 2.843571,1.811404 2.843571,1.555259 2.843571,1.323445 3.249795,1.262222 3.249796,1.032481 3.656019,0.932367 4.06224,0.805768 4.8747,0.72064 5.68714,0.59515 6.90581,0.487474 9.34316,0.424453 16.65521,0.49217 35.74774,1.045598 23.96724,0.947671 23.96724,1.172717 51.18428,2.62377 8.53071,0.120359 6.49959,-0.114103 5.68714,-0.313379 4.8747,-0.481017 4.46846,-0.660089 4.06225,-0.822534 3.65602,-0.955093 3.65602,-1.190875 3.24979,-1.282816 3.2498,-1.517852 3.24979,-1.774952 3.2498,-2.051783 3.24979,-2.344202 3.2498,-2.645792 3.24979,-2.947373 3.2498,-3.236546 3.65602,-3.950689 4.46847,-5.17018 10.15561,-11.922517 2.84357,-2.952496 2.43735,-2.228664 2.03112,-1.581523 2.03112,-1.280033 1.6249,-0.776043 1.62489,-0.531901 1.6249,-0.268296 1.6249,0.01165 1.6249,0.30397 1.62489,0.603891 1.6249,0.905811 1.6249,1.203398 1.6249,1.489684 1.6249,1.757236 2.03112,2.531775 2.43734,3.436935 3.65602,5.643664 4.46847,6.847513 2.43735,3.286956 2.03112,2.312571 1.6249,1.50081 1.6249,1.147762 1.21867,0.612048 1.21867,0.390548 1.21868,0.166101 1.21867,-0.05704 1.21867,-0.274686 1.21868,-0.482806 1.62489,-0.944148 1.6249,-1.250192 2.03112,-1.919846 2.43735,-2.691566 3.65602,-4.471856 2.03112,-2.562116 v 0" /></g><g
       clip-path="url(#clipPath70)"
       id="g66"
       style="stroke:#1e64c8;stroke-width:0.4995;stroke-linecap:round;stroke-linejoin:round;stroke-miterlimit:10;stroke-dasharray:none;stroke-opacity:1"
       transform="translate(0,-0.48789276)"><path
         inkscape:connector-curvature="0"
         id="path72"
         style="fill:none;stroke:#1e64c8;stroke-width:0.4995;stroke-linecap:round;stroke-linejoin:round;stroke-miterlimit:10;stroke-dasharray:none;stroke-opacity:1"
         d="m 27.490909,50.426674 4.874693,-7.048311 2.031122,-2.594899 1.624898,-1.789304 1.624897,-1.461178 1.218673,-0.846979 1.218674,-0.613932 1.218673,-0.369207 1.218673,-0.118575 1.218673,0.132307 1.218674,0.378144 1.218673,0.614166 1.218673,0.836271 1.624898,1.430253 1.624897,1.746244 2.031122,2.546359 2.437347,3.447081 4.062244,6.235297 5.280917,8.04479 3.249795,4.503859 2.843571,3.528423 2.437347,2.685172 2.437346,2.365394 2.437346,2.052595 2.437347,1.755667 2.437346,1.480365 2.437347,1.229947 2.437346,1.005759 2.843571,0.924918 2.843571,0.695128 3.249795,0.559896 3.656022,0.388479 4.06224,0.200341 4.8747,0.0074 6.09336,-0.225568 8.93694,-0.580061 30.87305,-2.174247 12.59296,-0.583456 12.18673,-0.340509 12.18673,-0.114695 12.18674,0.112463 12.18673,0.339928 12.18673,0.566349 12.18673,0.787492 12.99918,1.064993 16.24898,1.573481 18.2801,1.74461 7.71826,0.515237 6.09337,0.190379 4.87469,-0.05431 4.46847,-0.267747 4.06224,-0.473108 3.65602,-0.654134 3.2498,-0.795658 3.24979,-1.027591 2.84357,-1.113016 2.84357,-1.333639 2.84358,-1.573399 2.84357,-1.830372 2.84357,-2.101344 2.84357,-2.38153 2.84357,-2.664269 3.24979,-3.38258 3.2498,-3.715842 3.65602,-4.513559 5.68714,-7.436006 5.28092,-6.805132 2.84357,-3.34608 2.43735,-2.548402 2.03112,-1.82327 1.62489,-1.220688 1.6249,-0.978257 1.6249,-0.708984 1.6249,-0.415451 1.21867,-0.10635 1.21867,0.07756 1.21868,0.26684 1.21867,0.459522 1.21867,0.653411 1.6249,1.17036 1.6249,1.502433 1.6249,1.815431 2.03112,2.66527 2.03112,3.03312 2.84357,4.673743 6.09337,10.184609 2.03112,2.939952 1.6249,2.030442 1.62489,1.679928 1.21868,1.000184 1.21867,0.759553 1.21867,0.507666 1.21868,0.249439 1.21867,-0.01002 1.21867,-0.265546 1.21868,-0.512132 1.21867,-0.745063 1.6249,-1.324307 1.6249,-1.654252 2.03112,-2.440335 2.43734,-3.311421 4.46847,-6.551353 1.6249,-2.412574 v 0" /></g><g
       clip-path="url(#clipPath80)"
       id="g76"
       style="stroke:#1e64c8;stroke-width:0.4995;stroke-linecap:round;stroke-linejoin:round;stroke-miterlimit:10;stroke-dasharray:none;stroke-opacity:1"
       transform="translate(0,-0.48789276)"><path
         inkscape:connector-curvature="0"
         id="path82"
         style="fill:none;stroke:#1e64c8;stroke-width:0.4995;stroke-linecap:round;stroke-linejoin:round;stroke-miterlimit:10;stroke-dasharray:none;stroke-opacity:1"
         d="m 27.490909,46.095128 4.062244,-6.502536 2.031122,-2.857447 1.624898,-1.930345 1.218673,-1.184149 1.218673,-0.924897 1.218673,-0.642577 1.218674,-0.344319 1.218673,-0.03753 1.218673,0.270466 1.218673,0.572758 1.218674,0.863078 1.218673,1.135997 1.624897,1.900849 1.624898,2.285666 2.031122,3.29446 2.437346,4.412247 4.874693,9.460888 4.062244,7.65105 2.843571,4.882058 2.437347,3.768959 2.437346,3.345659 2.031122,2.455833 2.031122,2.157243 2.031122,1.869184 2.031122,1.59659 2.031122,1.342735 2.031122,1.109543 2.437347,1.053927 2.437346,0.786188 2.437347,0.554152 2.84357,0.397613 2.843571,0.175119 3.249796,-0.01839 3.656015,-0.23566 4.46847,-0.51027 6.09337,-0.943698 10.15561,-1.846656 15.0303,-2.700412 10.15561,-1.583631 9.34316,-1.233523 9.34316,-1.009681 9.34317,-0.785911 9.34316,-0.56526 9.34316,-0.348066 9.34316,-0.133571 9.74939,0.08755 9.74938,0.31846 9.74939,0.548706 9.74938,0.776777 9.74939,0.998002 10.56183,1.31045 12.59296,1.80298 19.09255,2.758216 6.49959,0.70512 5.28091,0.3592 4.46847,0.08517 4.06225,-0.153975 3.65602,-0.375086 3.24979,-0.560046 2.84357,-0.693612 2.84357,-0.90924 2.84357,-1.1497 2.84358,-1.414474 2.84357,-1.701897 2.43734,-1.702448 2.84357,-2.283743 2.84357,-2.612058 2.84358,-2.939533 2.84357,-3.253944 3.24979,-4.066612 4.06225,-5.494689 10.56183,-14.591061 2.43735,-2.905844 2.03112,-2.124365 2.03112,-1.783385 1.6249,-1.137353 1.6249,-0.845913 1.21867,-0.425816 1.21867,-0.235055 1.21868,-0.03523 1.21867,0.171784 1.21867,0.383802 1.21867,0.598355 1.21868,0.812694 1.6249,1.411002 1.62489,1.769408 1.6249,2.100476 2.03112,3.031576 2.43735,4.099244 8.53071,14.939736 1.6249,2.294303 1.6249,1.929069 1.21867,1.169528 1.21867,0.908162 1.21868,0.630929 1.21867,0.343413 1.21867,0.05154 1.21868,-0.238611 1.21867,-0.521 1.21867,-0.789854 1.21868,-1.039864 1.62489,-1.734279 1.6249,-2.071108 2.03112,-2.951441 2.84357,-4.550756 6.09337,-10.107395 v 0" /></g><g
       clip-path="url(#clipPath90)"
       id="g86"
       style="stroke:#1e64c8;stroke-width:0.4995;stroke-linecap:round;stroke-linejoin:round;stroke-miterlimit:10;stroke-dasharray:none;stroke-opacity:1"
       transform="translate(0,-0.48789276)"><path
         inkscape:connector-curvature="0"
         id="path92"
         style="fill:none;stroke:#1e64c8;stroke-width:0.4995;stroke-linecap:round;stroke-linejoin:round;stroke-miterlimit:10;stroke-dasharray:none;stroke-opacity:1"
         d="m 27.490909,41.706666 3.65602,-6.135741 2.031122,-2.95547 1.624897,-1.938395 1.218674,-1.139522 1.218673,-0.832218 1.218673,-0.499496 0.812449,-0.139571 0.812449,0.01858 0.812448,0.177677 1.218674,0.562705 1.218673,0.909283 1.218673,1.239263 1.218673,1.546398 1.624898,2.490822 1.624898,2.910612 2.031122,4.101505 2.84357,6.308641 7.718264,17.472339 2.843571,5.70415 2.437346,4.363206 2.031123,3.230117 2.031122,2.851941 2.031122,2.477857 2.031122,2.116967 2.031122,1.775814 2.031122,1.458754 2.031122,1.168336 2.031122,0.905683 2.031122,0.670817 2.031122,0.462958 2.437346,0.317187 2.437347,0.09578 2.843571,-0.118922 3.249795,-0.377545 3.656014,-0.655984 4.46847,-1.030774 6.49959,-1.755344 22.74857,-6.343175 8.12449,-1.945242 7.71826,-1.629152 7.71827,-1.412247 8.12448,-1.256067 8.12449,-1.026637 8.12449,-0.804777 8.12449,-0.589667 8.53071,-0.39348 8.53071,-0.166537 8.53072,0.05798 8.53071,0.28169 8.53071,0.505706 8.53071,0.730167 8.53072,0.953555 8.53071,1.171513 9.34316,1.515551 10.56183,1.950982 21.5299,4.066198 5.68714,0.802362 4.46847,0.426754 4.06224,0.169165 3.65602,-0.07858 3.2498,-0.296361 2.84357,-0.466592 2.84357,-0.689572 2.84357,-0.941693 2.43735,-1.029964 2.43734,-1.254377 2.43735,-1.495166 2.43735,-1.750083 2.43734,-2.015798 2.43735,-2.287728 2.43735,-2.559845 2.84357,-3.320007 2.84357,-3.651858 3.65602,-5.101264 5.28091,-7.840178 4.8747,-7.118307 2.84357,-3.76151 2.03112,-2.375884 2.03112,-2.032402 1.6249,-1.328758 1.6249,-1.025197 1.21867,-0.54943 1.21867,-0.347171 1.21868,-0.133972 1.21867,0.08814 1.21867,0.316779 1.21868,0.549219 1.21867,0.782397 1.21867,1.012955 1.6249,1.697912 1.6249,2.070793 1.6249,2.405607 2.03112,3.399355 2.84357,5.258963 5.28092,9.903642 2.03112,3.314475 1.6249,2.266499 1.62489,1.839085 1.21868,1.059594 1.21867,0.761856 1.21867,0.449409 1.21868,0.12891 1.21867,-0.192671 1.21867,-0.508293 1.21868,-0.81108 1.21867,-1.094583 1.21867,-1.353039 1.6249,-2.153871 2.03112,-3.139866 2.84357,-4.928771 8.12449,-14.494771 v 0" /></g><g
       clip-path="url(#clipPath100)"
       id="g96"
       style="stroke:#1e64c8;stroke-width:0.4995;stroke-linecap:round;stroke-linejoin:round;stroke-miterlimit:10;stroke-dasharray:none;stroke-opacity:1"
       transform="translate(0,-0.48789276)"><path
         inkscape:connector-curvature="0"
         id="path102"
         style="fill:none;stroke:#1e64c8;stroke-width:0.4995;stroke-linecap:round;stroke-linejoin:round;stroke-miterlimit:10;stroke-dasharray:none;stroke-opacity:1"
         d="m 27.490909,37.544942 3.249795,-5.47441 1.624898,-2.406111 1.624898,-2.005712 1.218673,-1.170547 1.218673,-0.838955 0.812449,-0.35935 0.812449,-0.191247 0.812448,-0.01847 0.812449,0.156932 0.812449,0.332939 0.812449,0.507611 1.218673,1.081518 1.218673,1.449272 1.218674,1.791909 1.624897,2.867662 1.624898,3.334913 2.031122,4.681158 2.843571,7.169308 6.905815,17.723397 2.84357,6.535664 2.437347,5.00082 2.031122,3.695217 2.031122,3.250981 2.031122,2.808868 2.031122,2.380641 2.031122,1.974865 2.031122,1.59734 2.031122,1.251559 2.031122,0.939171 2.031122,0.6604 2.031122,0.414416 2.031122,0.199643 2.437347,-0.003 2.437346,-0.224563 2.843571,-0.487877 3.249795,-0.787709 4.06224,-1.230108 5.28092,-1.84822 25.18591,-9.152331 7.31204,-2.254098 6.90582,-1.898417 6.90581,-1.675004 7.31204,-1.537185 7.31204,-1.304231 7.31204,-1.081977 7.71827,-0.911818 7.71826,-0.684927 7.71826,-0.465713 7.71827,-0.251968 8.12448,-0.03792 8.12449,0.193795 8.12449,0.426153 7.71826,0.622001 7.71827,0.835859 7.71826,1.050961 8.12449,1.336384 8.12449,1.56175 8.93693,1.945578 13.40541,3.183899 9.74939,2.218115 5.68714,1.071703 4.46847,0.62549 3.65602,0.309258 3.24979,0.07688 3.2498,-0.152492 2.84357,-0.357206 2.84357,-0.599997 2.43734,-0.732979 2.43735,-0.957301 2.43735,-1.202287 2.43734,-1.466492 2.43735,-1.747433 2.43735,-2.041356 2.43734,-2.343027 2.43735,-2.645513 2.84357,-3.457496 2.84357,-3.826328 3.2498,-4.751584 4.87469,-7.59488 5.28092,-8.143778 2.84357,-3.953112 2.03112,-2.482236 2.03112,-2.10366 1.6249,-1.35512 1.6249,-1.02044 1.21867,-0.52371 1.21867,-0.301496 1.21868,-0.06786 1.21867,0.174746 1.21867,0.423464 1.21868,0.675046 1.21867,0.925869 1.21867,1.171985 1.6249,1.929425 1.6249,2.317111 2.03112,3.367308 2.43735,4.562723 7.31204,14.210206 1.62489,2.613582 1.6249,2.200487 1.21867,1.329362 1.21868,1.022061 1.21867,0.692629 1.21867,0.348187 0.81245,0.03683 0.81245,-0.119868 1.21867,-0.470077 1.21868,-0.807642 1.21867,-1.12606 1.21867,-1.418277 1.6249,-2.288994 2.03112,-3.372756 2.43735,-4.540914 7.71826,-14.722054 2.43735,-4.268706 v 0" /></g><g
       clip-path="url(#clipPath110)"
       id="g106"
       style="stroke:#1e64c8;stroke-width:0.4995;stroke-linecap:round;stroke-linejoin:round;stroke-miterlimit:10;stroke-dasharray:none;stroke-opacity:1"
       transform="translate(0,-0.48789276)"><path
         inkscape:connector-curvature="0"
         id="path112"
         style="fill:none;stroke:#1e64c8;stroke-width:0.4995;stroke-linecap:round;stroke-linejoin:round;stroke-miterlimit:10;stroke-dasharray:none;stroke-opacity:1"
         d="m 27.490909,33.732585 3.249795,-5.237089 1.624898,-2.233946 1.218673,-1.383854 1.218673,-1.073863 1.218674,-0.719651 0.812448,-0.265887 0.812449,-0.08605 0.812449,0.0987 0.812449,0.286092 0.812449,0.473888 1.218673,1.058599 1.218673,1.462565 1.218673,1.843355 1.218674,2.193418 1.624897,3.404961 2.031122,4.887997 2.437347,6.517817 9.343161,25.823357 2.437346,5.801877 2.031122,4.330752 2.031122,3.839068 2.031123,3.33788 2.031122,2.84361 1.624897,1.931705 1.624898,1.641762 1.624897,1.368589 1.624898,1.113919 1.624898,0.87874 1.624897,0.66344 2.031122,0.556634 2.031122,0.288629 2.031122,0.05619 2.437347,-0.193007 2.437346,-0.4284 2.843571,-0.73656 3.249795,-1.078398 4.062239,-1.592482 6.09337,-2.669156 15.84275,-7.065457 6.90582,-2.780703 6.49959,-2.375737 6.49959,-2.132343 6.49959,-1.892291 6.49959,-1.661425 6.90581,-1.525142 6.90582,-1.291573 6.90582,-1.071149 7.31203,-0.906657 7.31204,-0.683704 7.31204,-0.469486 7.71827,-0.26996 7.71826,-0.04242 7.71826,0.183729 7.71827,0.411141 7.71826,0.642026 7.31204,0.825712 7.31204,1.041896 7.31204,1.261281 7.31204,1.480052 7.71826,1.790102 8.53071,2.217383 12.59296,3.544817 8.93694,2.423548 5.28092,1.220888 4.46846,0.802253 3.65602,0.429887 3.2498,0.15828 2.84357,-0.07386 2.84357,-0.30906 2.43735,-0.480509 2.43734,-0.705235 2.43735,-0.954389 2.43735,-1.227225 2.43734,-1.521966 2.43735,-1.835568 2.43735,-2.163447 2.43734,-2.499223 2.43735,-2.834471 2.43735,-3.158523 2.84357,-4.061365 3.24979,-5.055401 4.87469,-8.073307 4.8747,-7.953037 2.43734,-3.607308 2.03113,-2.670302 1.62489,-1.849781 1.6249,-1.544058 1.6249,-1.193147 1.21867,-0.639373 1.21867,-0.402857 1.21868,-0.152892 1.21867,0.107874 1.21867,0.376317 1.21868,0.648854 1.21867,0.921469 1.21867,1.189754 1.21868,1.448973 1.62489,2.31016 1.6249,2.697851 2.03112,3.818752 2.84358,5.886248 4.46846,9.291423 2.03113,3.68999 1.62489,2.50014 1.21868,1.545973 1.21867,1.224174 1.21867,0.87379 0.81245,0.377206 0.81245,0.207894 0.81245,0.03623 0.81245,-0.135978 0.81245,-0.306876 1.21867,-0.773364 1.21867,-1.132184 1.21868,-1.464244 1.62489,-2.408407 1.6249,-2.838125 2.43735,-4.815677 7.71826,-15.804047 2.84357,-5.048534 1.6249,-2.729472 v 0" /></g><g
       clip-path="url(#clipPath120)"
       id="g116"
       style="stroke:#1e64c8;stroke-width:0.4995;stroke-linecap:round;stroke-linejoin:round;stroke-miterlimit:10;stroke-dasharray:none;stroke-opacity:1"
       transform="translate(0,-0.48789276)"><path
         inkscape:connector-curvature="0"
         id="path122"
         style="fill:none;stroke:#1e64c8;stroke-width:0.4995;stroke-linecap:round;stroke-linejoin:round;stroke-miterlimit:10;stroke-dasharray:none;stroke-opacity:1"
         d="m 27.490909,30.28628 2.843571,-4.250567 1.624898,-2.075863 1.218673,-1.261669 1.218673,-0.943235 1.218673,-0.577067 0.812449,-0.162955 0.812449,0.02374 0.812449,0.215598 0.812448,0.41016 0.812449,0.605019 1.218673,1.267902 1.218674,1.6856 1.218673,2.077998 1.624898,3.322517 1.624897,3.864448 2.031122,5.426791 2.843571,8.310367 6.499591,19.309463 2.437346,6.537952 2.437346,5.876247 2.031122,4.326286 2.031122,3.782242 2.031123,3.236536 1.624897,2.205717 1.624898,1.878827 1.624897,1.568838 1.624898,1.278326 1.624898,1.00893 1.624897,0.761506 1.624898,0.536266 1.624898,0.33294 2.031122,0.16251 2.031122,-0.0827 2.031122,-0.29156 2.437346,-0.57892 2.843571,-0.927281 3.249795,-1.307691 4.062242,-1.884089 6.49959,-3.305357 12.18674,-6.220304 6.49959,-3.043174 6.09336,-2.606916 6.09337,-2.355472 6.09336,-2.105999 6.09337,-1.865978 6.09337,-1.638703 6.49959,-1.512817 6.49959,-1.28576 6.90581,-1.133559 6.90582,-0.908671 7.31204,-0.730708 7.31203,-0.503791 7.31204,-0.284871 7.31204,-0.07069 7.31204,0.141875 7.31204,0.355781 7.31204,0.573734 7.31204,0.798038 7.31204,1.03032 6.90581,1.193979 6.90582,1.414636 6.90582,1.637612 7.31203,1.971099 7.71827,2.319987 9.74938,3.180904 12.18674,3.951554 5.28091,1.464129 4.06225,0.9021 3.24979,0.520735 3.2498,0.288606 2.84357,0.01826 2.43734,-0.190796 2.43735,-0.410121 2.43735,-0.657596 2.03112,-0.757472 2.03112,-0.964999 2.03112,-1.187677 2.03113,-1.424075 2.03112,-1.672078 2.03112,-1.928783 2.43735,-2.659972 2.43734,-3.035611 2.43735,-3.397821 2.84357,-4.382487 3.2498,-5.462416 5.28091,-9.433455 4.06225,-7.082992 2.43734,-3.85533 2.03113,-2.832701 1.62489,-1.942167 1.6249,-1.596927 1.21867,-0.940802 1.21868,-0.698736 1.21867,-0.439078 1.21867,-0.164331 1.21868,0.122448 1.21867,0.417656 1.21867,0.717154 1.21868,1.0163 1.21867,1.310005 1.21867,1.592807 1.6249,2.534037 1.6249,2.950723 2.03112,4.159367 3.2498,7.292966 3.65601,8.100358 2.03113,3.931544 1.6249,2.639125 1.21867,1.610622 1.21867,1.250373 1.21867,0.85864 0.81245,0.34327 0.81245,0.154686 0.81245,-0.03611 0.81245,-0.226999 0.81245,-0.415836 0.81245,-0.600485 1.21867,-1.232642 1.21867,-1.6039 1.21868,-1.936365 1.62489,-3.01747 2.03113,-4.29157 8.53071,-18.802986 2.03112,-3.705615 2.43735,-3.984913 1.21867,-1.888424 v 0" /></g><g
       clip-path="url(#clipPath130)"
       id="g126"
       style="stroke:#1e64c8;stroke-width:0.4995;stroke-linecap:round;stroke-linejoin:round;stroke-miterlimit:10;stroke-dasharray:none;stroke-opacity:1"
       transform="translate(0,-0.48789276)"><path
         inkscape:connector-curvature="0"
         id="path132"
         style="fill:none;stroke:#1e64c8;stroke-width:0.4995;stroke-linecap:round;stroke-linejoin:round;stroke-miterlimit:10;stroke-dasharray:none;stroke-opacity:1"
         d="m 27.490909,27.197237 2.843571,-3.715893 1.624898,-1.74251 1.218673,-0.991872 1.218673,-0.655718 0.812449,-0.226812 0.812449,-0.04573 0.812448,0.143394 0.812449,0.3379 0.812449,0.535169 0.812449,0.732658 1.218673,1.46382 1.218673,1.885819 1.218674,2.280929 1.624897,3.593946 1.624898,4.132117 2.031122,5.747896 3.249795,9.994271 5.280917,16.315395 2.437347,6.868852 2.437346,6.182252 2.031122,4.550641 2.031122,3.97222 1.624898,2.757312 1.624898,2.389818 1.624897,2.034588 1.624898,1.696226 1.624897,1.37805 1.624898,1.082268 1.624898,0.810157 1.624897,0.56221 1.624898,0.33832 1.624898,0.13788 2.031122,-0.0753 2.031122,-0.31218 2.437346,-0.63419 2.437346,-0.862429 2.843571,-1.227155 3.65602,-1.824374 5.280913,-2.914857 15.03031,-8.444581 6.09336,-3.095307 5.68714,-2.637625 5.68715,-2.38584 5.68714,-2.138248 5.68714,-1.901488 5.68714,-1.678519 6.09337,-1.567558 6.09336,-1.345722 6.49959,-1.20883 6.90582,-1.046546 6.90581,-0.818108 7.31204,-0.632199 7.31204,-0.403063 7.31204,-0.181636 7.31204,0.03609 7.31204,0.253977 7.31204,0.475725 7.31204,0.704808 6.90581,0.885362 6.90582,1.109748 6.49959,1.259981 6.49959,1.47856 6.49959,1.704178 6.49959,1.931472 6.90582,2.29165 7.71826,2.813852 21.93612,8.20376 4.06224,1.159193 3.2498,0.715699 2.84357,0.423878 2.84357,0.190271 2.43734,-0.05829 2.43735,-0.29582 2.03112,-0.451556 2.03113,-0.658449 2.03112,-0.884365 2.03112,-1.128577 2.03112,-1.389716 2.03112,-1.665644 2.03113,-1.953322 2.03112,-2.248684 2.03112,-2.546512 2.43735,-3.442784 2.43734,-3.84352 2.84357,-4.934085 3.2498,-6.099756 8.93694,-17.143685 2.43734,-4.020025 2.03112,-2.863726 1.6249,-1.887025 1.21867,-1.14101 1.21868,-0.880164 1.21867,-0.598302 1.21867,-0.298099 1.21868,0.01713 1.21867,0.343425 1.21867,0.676174 1.21868,1.01017 1.21867,1.339659 1.21867,1.658412 1.6249,2.676146 1.6249,3.151332 2.03112,4.481238 2.84357,6.907743 4.06225,9.851475 2.03112,4.284836 1.6249,2.862166 1.21867,1.732626 1.21867,1.327348 0.81245,0.641686 0.81245,0.437415 0.81245,0.227316 0.81245,0.01375 0.81245,-0.200841 0.81244,-0.413947 0.81245,-0.62305 1.21868,-1.311773 1.21867,-1.735085 1.21867,-2.115198 1.6249,-3.318888 2.03112,-4.741296 7.71827,-18.816683 2.03112,-4.046928 2.03112,-3.483164 2.03112,-3.018282 1.6249,-2.22978 v 0" /></g><g
       clip-path="url(#clipPath140)"
       id="g136"
       style="stroke:#1e64c8;stroke-width:0.4995;stroke-linecap:round;stroke-linejoin:round;stroke-miterlimit:10;stroke-dasharray:none;stroke-opacity:1"
       transform="translate(0,-0.48789276)"><path
         inkscape:connector-curvature="0"
         id="path142"
         style="fill:none;stroke:#1e64c8;stroke-width:0.4995;stroke-linecap:round;stroke-linejoin:round;stroke-miterlimit:10;stroke-dasharray:none;stroke-opacity:1"
         d="m 27.490909,24.483844 2.843571,-3.025376 1.218673,-1.03866 1.218673,-0.772224 1.218674,-0.443836 0.812448,-0.08874 0.812449,0.09032 0.812449,0.277684 0.812449,0.470567 0.812449,0.666223 1.218673,1.365773 1.218673,1.79567 1.218673,2.204164 1.624898,3.519301 1.624898,4.09437 2.031122,5.755379 2.84357,8.821992 6.499591,20.450064 2.437346,6.868049 2.031122,5.158302 2.031122,4.580088 2.031122,3.973008 1.624898,2.737924 1.624898,2.353691 1.624897,1.983058 1.624898,1.630861 1.624898,1.300565 1.624897,0.994439 1.624898,0.71378 1.624897,0.45902 1.624898,0.22996 1.624898,0.0259 2.031122,-0.21828 2.031122,-0.45619 2.437346,-0.8055 2.843571,-1.218875 3.249795,-1.66034 4.468469,-2.574089 10.155614,-6.240062 6.90581,-4.068047 5.68714,-3.090666 5.28092,-2.624132 5.28092,-2.379845 5.28091,-2.140148 5.28092,-1.911334 5.68714,-1.818357 5.68714,-1.587453 6.09337,-1.465026 6.09337,-1.241013 6.49959,-1.097143 6.90581,-0.929762 6.90582,-0.704431 7.31204,-0.515701 7.31204,-0.290248 7.31203,-0.07144 7.31204,0.145494 7.31204,0.365183 7.31204,0.592149 6.90582,0.778091 6.90581,1.004015 6.49959,1.165532 6.49959,1.394494 6.09337,1.528699 6.09337,1.754329 6.09336,1.98749 6.09337,2.221021 6.49959,2.612489 7.31204,3.187938 17.46765,7.746651 4.06224,1.487739 3.2498,0.976019 2.84357,0.643591 2.43734,0.356673 2.43735,0.141094 2.43735,-0.110754 2.03112,-0.312155 2.03112,-0.536185 2.03112,-0.782941 2.03112,-1.051904 2.03113,-1.341836 2.03112,-1.650633 2.03112,-1.975161 2.03112,-2.311104 2.03113,-2.652798 2.03112,-2.993112 2.43734,-4.026038 2.43735,-4.463665 2.84357,-5.675551 4.06224,-8.682882 5.28092,-11.284815 2.43735,-4.71841 2.03112,-3.466666 1.6249,-2.369549 1.6249,-1.935216 1.21867,-1.12659 1.21867,-0.81967 1.21868,-0.490079 0.81244,-0.134005 0.81245,0.02569 0.81245,0.189049 0.81245,0.355019 1.21867,0.846565 1.21868,1.222542 1.21867,1.591155 1.21867,1.944958 1.6249,3.103372 1.6249,3.615358 2.03112,5.083124 3.65602,9.941069 2.84357,7.460021 1.6249,3.763484 1.6249,3.193069 1.21867,1.931389 1.21867,1.475152 0.81245,0.708764 0.81245,0.477605 0.81245,0.239569 0.81245,-0.0026 0.81245,-0.245952 0.81245,-0.487591 0.81244,-0.724515 0.81245,-0.953768 1.21868,-1.836687 1.21867,-2.281218 1.6249,-3.629317 2.03112,-5.241563 7.71826,-20.849819 1.6249,-3.52863 1.6249,-3.042359 1.6249,-2.572013 1.62489,-2.174536 2.43735,-2.816612 v 0" /></g><g
       clip-path="url(#clipPath150)"
       id="g146"
       style="stroke:#1e64c8;stroke-width:0.4995;stroke-linecap:round;stroke-linejoin:round;stroke-miterlimit:10;stroke-dasharray:none;stroke-opacity:1"
       transform="translate(0,-0.48789276)"><path
         inkscape:connector-curvature="0"
         id="path152"
         style="fill:none;stroke:#1e64c8;stroke-width:0.4995;stroke-linecap:round;stroke-linejoin:round;stroke-miterlimit:10;stroke-dasharray:none;stroke-opacity:1"
         d="m 27.490909,22.2061 2.437347,-1.917365 1.218673,-0.749271 1.218673,-0.50121 1.218673,-0.188392 0.812449,0.07376 0.812449,0.246918 0.812449,0.42851 0.812448,0.615636 1.218674,1.279472 1.218673,1.703729 1.218673,2.113233 1.218673,2.496987 1.624898,3.864795 2.031122,5.545062 2.437346,7.396358 8.936937,27.903349 2.437347,6.473685 2.031122,4.761446 2.031122,4.141534 1.624897,2.85812 1.624898,2.457898 1.624898,2.069646 1.624897,1.699105 1.624898,1.350491 1.624898,1.02667 1.624897,0.729364 1.624898,0.45934 1.624897,0.21659 1.624898,5.3e-4 2.031122,-0.26425 2.031122,-0.514942 2.437347,-0.888557 2.84357,-1.327053 3.249796,-1.791028 4.468468,-2.753066 17.467652,-11.059378 5.28092,-2.947583 5.28091,-2.680661 4.87469,-2.234996 5.28092,-2.170121 5.28092,-1.923547 5.28092,-1.694587 5.68714,-1.589716 5.68714,-1.367011 6.09337,-1.240102 6.49959,-1.090393 6.90581,-0.919826 6.90582,-0.694827 7.31204,-0.508578 7.31203,-0.288189 7.31204,-0.07557 7.31204,0.134841 7.31204,0.348517 7.31204,0.570865 6.90582,0.755927 6.90581,0.982975 6.49959,1.150633 6.09337,1.295129 6.09336,1.522751 5.68715,1.642717 5.68714,1.870738 5.68714,2.109507 5.68714,2.352811 5.68714,2.589813 6.49959,3.218307 8.53072,4.502946 8.93693,4.659792 4.46847,2.070653 3.2498,1.285924 2.84357,0.909936 2.43734,0.575967 2.43735,0.346675 2.03112,0.0834 2.03112,-0.130886 2.03113,-0.371901 2.03112,-0.640073 1.6249,-0.72329 1.62489,-0.925594 1.6249,-1.140587 1.6249,-1.367196 2.03112,-2.04292 2.03112,-2.42804 2.03113,-2.822141 2.03112,-3.217078 2.03112,-3.602812 2.43735,-4.801717 2.84357,-6.17796 3.65602,-8.599412 6.49959,-15.49709 2.43734,-5.185227 2.03113,-3.760353 1.62489,-2.525784 1.21868,-1.560137 1.21867,-1.238099 1.21867,-0.886724 0.81245,-0.382973 0.81245,-0.208549 0.81245,-0.02846 0.81245,0.156212 0.81245,0.344225 0.81245,0.534252 1.21867,1.158487 1.21867,1.5822 1.21867,1.99264 1.21868,2.380748 1.6249,3.721866 2.03112,5.384583 2.43734,7.182472 4.46847,13.347555 1.6249,4.270541 1.6249,3.650253 1.21867,2.225101 1.21868,1.715077 0.81244,0.834348 0.81245,0.573074 0.81245,0.303143 0.81245,0.02779 0.81245,-0.249591 0.81245,-0.525507 0.81245,-0.796419 0.81244,-1.058805 1.21868,-2.0531 1.21867,-2.56173 1.6249,-4.08593 2.03112,-5.903199 6.90582,-21.024738 1.62489,-4.039409 1.6249,-3.435457 1.6249,-2.810329 1.21867,-1.720792 1.6249,-1.856875 1.6249,-1.498414 1.21867,-1.012104 v 0" /></g><g
       clip-path="url(#clipPath160)"
       id="g156"
       style="stroke:#1e64c8;stroke-width:0.4995;stroke-linecap:round;stroke-linejoin:round;stroke-miterlimit:10;stroke-dasharray:none;stroke-opacity:1"
       transform="translate(0,-0.48789276)"><path
         inkscape:connector-curvature="0"
         id="path162"
         style="fill:none;stroke:#1e64c8;stroke-width:0.4995;stroke-linecap:round;stroke-linejoin:round;stroke-miterlimit:10;stroke-dasharray:none;stroke-opacity:1"
         d="m 27.490909,20.441497 2.437347,-1.100924 1.218673,-0.341825 1.218673,-0.09469 1.218673,0.214428 0.812449,0.338288 0.812449,0.506605 1.218673,1.089821 1.218673,1.494423 1.218673,1.896106 1.218674,2.28226 1.624897,3.596606 1.624898,4.14814 2.031122,5.796557 2.843571,8.836483 5.687141,17.879266 2.437347,6.937845 2.031122,5.211425 2.031122,4.615151 2.031122,3.981184 1.624898,2.721475 1.624897,2.315446 1.624898,1.922978 1.624898,1.549829 1.624897,1.200181 1.624898,0.876827 1.624897,0.581376 1.624898,0.31446 1.624898,0.07593 1.624897,-0.13498 2.031122,-0.425215 2.031122,-0.665433 2.437347,-1.054178 2.843571,-1.498615 3.656019,-2.21596 5.280918,-3.499435 10.561837,-7.030957 5.28091,-3.22857 4.8747,-2.733498 4.87469,-2.482329 4.87469,-2.233072 4.8747,-1.994496 5.28091,-1.909134 5.28092,-1.6686 5.68714,-1.552923 5.68714,-1.324891 6.09337,-1.192774 6.49959,-1.040992 6.90581,-0.871969 7.31204,-0.68665 7.31204,-0.464428 7.71827,-0.265334 7.71826,-0.04356 7.71826,0.176512 7.71827,0.402548 7.31204,0.602173 6.90581,0.782517 6.90582,1.011184 6.49959,1.183678 6.09336,1.337111 5.68715,1.467876 5.68714,1.701316 5.28092,1.806995 5.28091,2.041541 5.28092,2.288049 5.28092,2.54006 5.28091,2.786638 5.68715,3.250212 7.31203,4.453854 10.15561,6.185797 4.06225,2.208502 3.24979,1.524992 2.84358,1.083994 2.43734,0.689625 2.03112,0.369882 2.03113,0.152377 2.03112,-0.0961 1.6249,-0.277302 1.62489,-0.473477 1.6249,-0.686234 1.6249,-0.91519 1.6249,-1.159598 1.62489,-1.418269 1.6249,-1.689523 1.6249,-1.971112 2.03112,-2.870908 2.03112,-3.328832 2.03113,-3.782341 2.03112,-4.218102 2.43734,-5.588545 2.84357,-7.12528 4.06225,-10.87013 4.46847,-11.850631 2.43734,-5.846309 2.03113,-4.249842 1.62489,-2.858072 1.21868,-1.765971 1.21867,-1.40083 1.21867,-1.001519 0.81245,-0.430773 0.81245,-0.232123 0.81245,-0.02695 0.81245,0.183437 0.81245,0.397577 0.81245,0.613873 0.81244,0.830595 1.21868,1.648605 1.21867,2.119406 1.21867,2.566464 1.6249,4.055692 1.6249,4.674134 2.43735,7.839387 5.28091,17.468696 1.6249,4.593956 1.21867,2.958349 1.21868,2.447328 1.21867,1.864059 0.81245,0.889296 0.81245,0.590685 0.81245,0.28248 0.81245,-0.03148 0.81244,-0.34716 0.81245,-0.660427 0.81245,-0.967085 0.81245,-1.262974 1.21867,-2.415769 1.21868,-2.981218 1.62489,-4.708349 2.03113,-6.726751 5.68714,-19.566393 1.6249,-4.736861 1.62489,-4.039159 1.21868,-2.525607 1.21867,-2.087812 1.21867,-1.669656 1.21868,-1.293451 1.21867,-0.980166 1.6249,-0.964457 1.21867,-0.600363 v 0" /></g><g
       clip-path="url(#clipPath170)"
       id="g166"
       style="stroke:#1e64c8;stroke-width:0.4995;stroke-linecap:round;stroke-linejoin:round;stroke-miterlimit:10;stroke-dasharray:none;stroke-opacity:1"
       transform="translate(0,-0.48789276)"><path
         inkscape:connector-curvature="0"
         id="path172"
         style="fill:none;stroke:#1e64c8;stroke-width:0.4995;stroke-linecap:round;stroke-linejoin:round;stroke-miterlimit:10;stroke-dasharray:none;stroke-opacity:1"
         d="m 27.490909,19.237291 2.437347,-0.221998 1.218673,0.09129 1.218673,0.33177 1.218673,0.630259 1.218673,0.970235 1.218674,1.335689 1.218673,1.711424 1.218673,2.08341 1.624898,3.326819 1.624897,3.890578 2.031122,5.512691 2.843571,8.536065 6.905815,21.16561 2.437347,6.591197 2.031122,4.886762 2.031122,4.269324 1.624897,2.951217 1.624898,2.536328 1.624897,2.129389 1.624898,1.737827 1.624898,1.367294 1.624897,1.021825 1.624898,0.704043 1.624898,0.415375 1.624897,0.156258 1.624898,-0.07365 1.624897,-0.275304 2.031122,-0.586926 2.031123,-0.811444 2.437346,-1.208428 2.843571,-1.650032 4.062244,-2.641529 17.467649,-11.719969 4.87469,-2.8395 4.8747,-2.568892 4.87469,-2.29883 4.87469,-2.040672 4.87469,-1.800246 5.28092,-1.702282 5.28092,-1.46959 5.68714,-1.350541 6.09337,-1.210673 6.49959,-1.05463 6.90581,-0.885858 7.31204,-0.706147 7.71827,-0.51519 8.12448,-0.31007 8.12449,-0.08606 8.12449,0.133831 8.12449,0.359796 7.71826,0.565962 7.31204,0.758789 6.90582,0.940538 6.49959,1.110842 6.09336,1.26726 5.68714,1.405792 5.28092,1.521444 5.28092,1.752343 4.87469,1.842097 4.87469,2.075088 4.8747,2.322401 4.87469,2.578905 4.87469,2.835851 5.28092,3.346171 6.09337,4.155293 15.0303,10.454758 3.24979,1.930985 2.84358,1.447955 2.43734,1.00182 2.03112,0.6255 2.03113,0.39932 2.03112,0.13731 1.6249,-0.10397 1.62489,-0.31534 1.6249,-0.54654 1.6249,-0.79737 1.6249,-1.067214 1.62489,-1.354941 1.6249,-1.658878 1.6249,-1.976687 1.6249,-2.305298 1.62489,-2.640839 2.03113,-3.775692 2.03112,-4.294483 2.03112,-4.788024 2.43735,-6.332339 2.84357,-8.039298 9.74938,-28.30043 2.03113,-4.823018 1.62489,-3.263172 1.21868,-2.028505 1.21867,-1.620991 1.21867,-1.173459 0.81245,-0.515995 0.81245,-0.292214 0.81245,-0.06075 0.81245,0.176873 0.81245,0.418944 0.81245,0.663588 0.81244,0.908779 1.21868,1.818717 1.21867,2.350874 1.21867,2.855282 1.6249,4.519477 1.6249,5.209806 2.43735,8.721614 4.87469,17.875905 1.6249,5.138516 1.21867,3.315387 1.21867,2.745274 1.21868,2.091065 0.81245,0.996338 0.81244,0.659627 0.81245,0.311699 0.81245,-0.04296 0.81245,-0.399635 0.81245,-0.753472 0.81245,-1.099558 0.81245,-1.433008 1.21867,-2.735441 1.21867,-3.368024 1.6249,-5.303281 2.03112,-7.539919 5.28092,-20.168018 1.6249,-5.248809 1.62489,-4.429298 1.21868,-2.721504 1.21867,-2.192124 1.21867,-1.678236 1.21868,-1.20522 1.21867,-0.796529 1.21867,-0.473184 1.6249,-0.309884 0.81245,-0.09849 v 0" /></g><g
       clip-path="url(#clipPath180)"
       id="g176"
       style="stroke:#1e64c8;stroke-width:0.4995;stroke-linecap:round;stroke-linejoin:round;stroke-miterlimit:10;stroke-dasharray:none;stroke-opacity:1"
       transform="translate(0,-0.48789276)"><path
         inkscape:connector-curvature="0"
         id="path182"
         style="fill:none;stroke:#1e64c8;stroke-width:0.4995;stroke-linecap:round;stroke-linejoin:round;stroke-miterlimit:10;stroke-dasharray:none;stroke-opacity:1"
         d="m 27.490909,18.577023 2.437347,0.675181 1.218673,0.528596 1.218673,0.757561 1.218673,1.0397 1.218673,1.357736 1.218674,1.695413 1.218673,2.037704 1.624897,3.232282 1.624898,3.770948 2.031122,5.345147 2.437347,7.07133 7.718263,22.979713 2.437347,6.301502 2.031122,4.630705 2.031122,4.005295 1.624897,2.737494 1.624898,2.322925 1.624898,1.918489 1.624897,1.531432 1.624898,1.167192 1.624898,0.829574 1.624897,0.520961 1.624898,0.242533 1.624897,-0.0055 1.624898,-0.223734 2.031122,-0.54304 2.031122,-0.786951 2.437347,-1.19942 2.84357,-1.660048 3.65602,-2.400061 8.124488,-5.704579 6.093362,-4.129976 4.8747,-3.043332 4.46847,-2.543168 4.46846,-2.297544 4.46847,-2.056635 4.46847,-1.828351 4.87469,-1.753852 4.8747,-1.525738 5.28091,-1.422873 5.68715,-1.296347 6.09336,-1.152485 6.49959,-0.996739 6.90582,-0.833173 7.31204,-0.664037 8.12448,-0.509608 8.53072,-0.305988 8.93693,-0.08867 8.93694,0.142812 8.53071,0.3608 8.12449,0.567465 7.31204,0.723046 6.90582,0.896701 6.49959,1.06474 6.09336,1.224262 5.68714,1.370639 5.28092,1.49802 4.87469,1.599951 4.8747,1.83217 4.46847,1.903442 4.46846,2.135259 4.46847,2.381665 4.46847,2.637969 4.46847,2.896359 4.87469,3.44216 5.28092,4.017849 7.71826,6.197281 6.49959,5.118024 3.65602,2.604499 2.84357,1.76994 2.43735,1.26806 2.03112,0.83449 2.03112,0.59101 1.6249,0.26956 1.6249,0.0647 1.6249,-0.16316 1.62489,-0.41442 1.6249,-0.68901 1.6249,-0.98641 1.6249,-1.30555 1.6249,-1.64468 1.62489,-2.001308 1.6249,-2.372058 1.6249,-2.752611 1.6249,-3.137602 2.03112,-4.459597 2.03112,-5.036391 2.43735,-6.742557 2.84357,-8.668032 4.06224,-13.281574 4.06225,-13.150656 2.43734,-7.126799 1.6249,-4.176594 1.6249,-3.567959 1.21867,-2.201474 1.21867,-1.739522 0.81245,-0.880467 0.81245,-0.642849 0.81245,-0.394493 0.81245,-0.136941 0.81245,0.128062 0.81245,0.398562 0.81245,0.672413 0.81244,0.947277 0.81245,1.220648 1.21868,2.33369 1.21867,2.912847 1.21867,3.451249 1.6249,5.340316 2.03112,7.609697 4.06225,16.575112 2.43734,9.326877 1.6249,5.335119 1.21867,3.336479 1.21868,2.650323 0.81245,1.342065 0.81245,0.977456 0.81244,0.596722 0.81245,0.204828 0.81245,-0.192939 0.81245,-0.591055 0.81245,-0.983866 0.81245,-1.365676 0.81245,-1.73087 1.21867,-3.231404 1.21867,-3.906697 1.6249,-6.052637 2.43735,-10.207483 3.65602,-15.439674 1.62489,-6.04462 1.6249,-5.169678 1.21867,-3.20425 1.21868,-2.588484 1.21867,-1.970626 0.81245,-0.982933 0.81245,-0.735092 0.81245,-0.507434 0.81245,-0.304613 0.81245,-0.13081 1.21867,0.05717 1.6249,0.352703 0.40622,0.103504 v 0" /></g><g
       clip-path="url(#clipPath190)"
       id="g186"
       style="stroke:#1e64c8;stroke-width:0.4995;stroke-linecap:round;stroke-linejoin:round;stroke-miterlimit:10;stroke-dasharray:none;stroke-opacity:1"
       transform="translate(0,-0.48789276)"><path
         inkscape:connector-curvature="0"
         id="path192"
         style="fill:none;stroke:#1e64c8;stroke-width:0.4995;stroke-linecap:round;stroke-linejoin:round;stroke-miterlimit:10;stroke-dasharray:none;stroke-opacity:1"
         d="m 27.490909,18.388873 2.843571,1.852029 1.624898,1.406209 1.218673,1.337136 1.218673,1.620793 1.218673,1.923533 1.624898,3.040354 1.624897,3.556738 2.031122,5.076114 2.437347,6.781292 8.936937,25.671106 2.031122,4.942799 2.031122,4.360415 1.624898,3.034404 1.624897,2.618761 1.624898,2.204127 1.624897,1.799951 1.624898,1.413706 1.624898,1.051008 1.624897,0.715768 1.624898,0.410417 1.624898,0.136136 1.624897,-0.106926 1.624898,-0.319419 2.031122,-0.653608 2.031122,-0.886549 2.437346,-1.303491 3.249796,-2.02623 4.468468,-3.088853 10.968059,-7.688856 4.874691,-3.091031 4.46847,-2.570853 4.46847,-2.308246 4.46847,-2.051308 4.46847,-1.809238 4.87469,-1.720555 4.87469,-1.483068 5.28092,-1.370096 5.68714,-1.236195 6.09337,-1.088651 6.49959,-0.933653 7.31204,-0.815285 7.71826,-0.635397 8.53071,-0.476949 9.34316,-0.289707 9.34316,-0.07062 9.34317,0.142246 8.93693,0.346402 8.53072,0.547703 7.71826,0.710957 7.31204,0.90048 6.49959,1.023274 6.09337,1.186796 5.68714,1.341917 5.28091,1.481903 4.8747,1.599152 4.46847,1.685925 4.46846,1.919959 4.46847,2.176719 4.06225,2.219387 4.06224,2.461973 4.06225,2.712734 4.06224,2.964068 4.46847,3.537475 4.87469,4.146029 7.31204,6.559071 6.09337,5.374945 3.65602,2.9278 2.84357,1.98507 2.43734,1.41352 2.03112,0.91925 1.6249,0.53285 1.6249,0.32556 1.6249,0.092 1.62489,-0.16854 1.6249,-0.45638 1.21868,-0.54753 1.21867,-0.7359 1.21867,-0.93504 1.6249,-1.57397 1.6249,-1.96774 1.6249,-2.379691 1.62489,-2.805124 1.6249,-3.238141 1.6249,-3.671523 2.03112,-5.185404 2.03112,-5.810699 2.43735,-7.702153 2.84357,-9.761035 7.71826,-27.111015 2.03113,-6.140225 1.62489,-4.249378 1.21868,-2.705667 1.21867,-2.228009 1.21867,-1.695858 0.81245,-0.810488 0.81245,-0.539327 0.81245,-0.25711 0.81245,0.03422 0.81245,0.332486 0.81245,0.635273 0.81244,0.939946 0.81245,1.243664 1.21868,2.425402 1.21867,3.072093 1.21867,3.674846 1.6249,5.728892 2.03112,8.212914 3.65602,16.175318 2.43735,10.298034 1.6249,5.980489 1.21867,3.790262 1.21867,3.059364 0.81245,1.582108 0.81245,1.186453 0.81245,0.77099 0.81245,0.341259 0.81245,-0.0968 0.81245,-0.536937 0.81244,-0.972727 0.81245,-1.397656 0.81245,-1.805273 1.21867,-3.418971 1.21868,-4.177462 1.6249,-6.521098 2.43734,-11.059667 3.65602,-16.7418 1.6249,-6.513422 1.6249,-5.517267 1.21867,-3.370295 1.21867,-2.666677 0.81245,-1.383582 0.81245,-1.075619 0.81245,-0.781111 0.81245,-0.505913 0.81245,-0.255366 0.81245,-0.03422 0.81245,0.153393 1.21867,0.499986 2.03112,1.207232 v 0" /></g><g
       clip-path="url(#clipPath200)"
       id="g196"
       style="stroke:#1e64c8;stroke-width:0.4995;stroke-linecap:round;stroke-linejoin:round;stroke-miterlimit:10;stroke-dasharray:none;stroke-opacity:1"
       transform="translate(0,-0.48789276)"><path
         inkscape:connector-curvature="0"
         id="path202"
         style="fill:none;stroke:#1e64c8;stroke-width:0.4995;stroke-linecap:round;stroke-linejoin:round;stroke-miterlimit:10;stroke-dasharray:none;stroke-opacity:1"
         d="m 27.490909,18.58134 3.249795,3.278479 1.624898,2.022242 1.624898,2.444533 1.624897,2.918396 1.624898,3.394967 2.031122,4.853621 2.437346,6.527431 4.062244,11.715194 3.65602,10.280468 2.437346,6.196381 2.031122,4.58281 2.031123,3.975309 1.624897,2.716914 1.624898,2.299393 1.624897,1.888149 1.624898,1.491903 1.624898,1.117385 1.624897,0.769475 1.624898,0.45139 1.624898,0.164923 1.624897,-0.08933 1.624898,-0.311725 2.031122,-0.655672 2.031122,-0.898791 2.437346,-1.327494 3.249796,-2.066543 4.468468,-3.14498 9.749386,-6.939169 4.874696,-3.150416 4.46847,-2.609283 4.06224,-2.128532 4.46847,-2.07874 4.46847,-1.819694 4.46847,-1.582726 4.87469,-1.484716 5.28091,-1.358626 5.68715,-1.213617 6.09336,-1.058225 6.49959,-0.899602 7.31204,-0.780782 8.12449,-0.635553 8.93694,-0.472337 9.74938,-0.293648 10.56184,-0.09309 10.56183,0.129529 10.15561,0.349969 8.93694,0.523822 8.12449,0.693271 7.31204,0.844808 6.49959,0.968695 6.09336,1.13564 5.28092,1.19758 5.28092,1.431555 4.87469,1.56271 4.46847,1.66559 4.46847,1.917173 4.06224,1.985183 4.06225,2.237499 4.06224,2.508579 4.06224,2.79419 4.06225,3.087089 4.06224,3.375948 4.46847,4.021726 5.28092,5.083974 11.37428,11.110338 3.2498,2.78106 2.43734,1.81009 2.03112,1.26527 2.03113,0.99055 1.6249,0.55802 1.62489,0.31769 1.6249,0.0467 1.21867,-0.16168 1.21868,-0.34502 1.21867,-0.54157 1.21867,-0.75098 1.21868,-0.9728 1.21867,-1.2063 1.6249,-1.98993 1.62489,-2.44566 1.6249,-2.917836 1.6249,-3.399741 1.6249,-3.883092 2.03112,-5.519653 2.03112,-6.21865 2.43735,-8.276786 2.84357,-10.516904 7.71826,-29.110715 2.03112,-6.49255 1.6249,-4.430968 1.21867,-2.772354 1.21868,-2.228432 0.81245,-1.153942 0.81245,-0.86988 0.81244,-0.571634 0.81245,-0.261172 0.81245,0.05926 0.81245,0.387151 0.81245,0.7197 0.81245,1.053873 0.81245,1.386396 1.21867,2.690871 1.21867,3.393821 1.21868,4.044564 1.62489,6.27781 2.03113,8.94409 6.49959,29.874838 1.62489,5.867614 1.21868,3.53301 0.81245,1.873405 0.81245,1.452325 0.81245,1.006852 0.81244,0.543033 0.40623,0.09363 0.40622,-0.02622 0.40623,-0.14646 0.81245,-0.652937 0.81244,-1.127219 0.81245,-1.588184 0.81245,-2.028575 1.21867,-3.806421 1.21868,-4.613196 1.6249,-7.144203 2.43734,-11.983937 3.2498,-15.950042 1.6249,-7.00087 1.21867,-4.54262 1.21867,-3.826068 1.21867,-3.050597 0.81245,-1.591203 0.81245,-1.239981 0.81245,-0.899306 0.81245,-0.575943 0.81245,-0.276087 0.81245,-0.0053 0.81245,0.231743 0.81245,0.430911 1.21867,0.929177 2.03112,1.929205 v 0" /></g><g
       clip-path="url(#clipPath210)"
       id="g206"
       style="stroke:#1e64c8;stroke-width:0.4995;stroke-linecap:round;stroke-linejoin:round;stroke-miterlimit:10;stroke-dasharray:none;stroke-opacity:1"
       transform="translate(0,-0.48789276)"><path
         inkscape:connector-curvature="0"
         id="path212"
         style="fill:none;stroke:#1e64c8;stroke-width:0.4995;stroke-linecap:round;stroke-linejoin:round;stroke-miterlimit:10;stroke-dasharray:none;stroke-opacity:1"
         d="m 27.490909,19.074593 3.65602,4.919124 1.624897,2.592075 1.624898,2.985692 1.624898,3.405148 2.031122,4.813341 2.437346,6.434956 4.468469,12.679354 3.249795,8.943343 2.437346,6.075386 2.031122,4.479148 1.624898,3.145205 1.624898,2.731993 1.624897,2.311205 1.624898,1.894435 1.624897,1.491232 1.624898,1.109082 1.218673,0.596855 1.218673,0.409426 1.624898,0.277675 1.624898,0.0015 1.624897,-0.241386 1.624898,-0.451577 2.031122,-0.812534 2.437346,-1.264425 2.843571,-1.764602 3.65602,-2.549399 13.405405,-9.609559 4.468471,-2.804286 4.06224,-2.292579 4.06225,-2.044749 4.06224,-1.806488 4.46847,-1.731718 4.46847,-1.489794 4.87469,-1.381736 5.28092,-1.249062 5.68714,-1.101499 6.09336,-0.947837 6.90582,-0.838532 7.71826,-0.702019 8.53072,-0.551167 9.74938,-0.407063 10.96806,-0.23501 11.78051,-0.03045 11.37428,0.183687 10.56184,0.385906 9.34316,0.561126 8.12449,0.707913 7.31203,0.865054 6.4996,1.000143 5.68714,1.097121 5.28091,1.243963 4.8747,1.376952 4.46847,1.487159 4.46846,1.734441 4.06225,1.819472 4.06224,2.077445 3.65602,2.111435 3.65602,2.358325 3.65602,2.619457 3.65602,2.889781 3.65602,3.161456 4.06224,3.818516 4.46847,4.526947 6.09337,6.537948 6.49959,6.932186 3.24979,3.16498 2.43735,2.10861 2.03112,1.51507 2.03113,1.2356 1.62489,0.74652 1.6249,0.49562 1.6249,0.21012 1.21867,-0.0511 1.21867,-0.24682 1.21868,-0.45759 1.21867,-0.6832 1.21867,-0.92311 1.21868,-1.1766 1.21867,-1.44257 1.21867,-1.71969 1.6249,-2.73993 1.6249,-3.26525 1.6249,-3.79833 1.62489,-4.328895 2.03113,-6.133473 2.03112,-6.878255 2.43734,-9.093394 3.2498,-13.107943 5.28092,-21.438831 2.03112,-7.364545 1.6249,-5.178431 1.21867,-3.348733 1.21867,-2.807439 1.21868,-2.19625 0.81245,-1.092981 0.81244,-0.776307 0.81245,-0.445024 0.81245,-0.101528 0.81245,0.251466 0.81245,0.610934 0.81245,0.973558 0.81245,1.335746 0.81245,1.693666 1.21867,3.192264 1.21867,3.931949 1.21868,4.603667 1.62489,7.02431 2.03113,9.810674 4.87469,24.208517 1.6249,6.858478 1.21867,4.327878 1.21867,3.463561 0.81245,1.766526 0.81245,1.296914 0.81245,0.803962 0.40622,0.211746 0.40623,0.08298 0.40622,-0.04663 0.40623,-0.176604 0.81245,-0.742018 0.81244,-1.253481 0.81245,-1.74944 0.81245,-2.221824 1.21867,-4.147855 1.21868,-5.002467 1.6249,-7.705834 2.84357,-15.002503 2.84357,-14.625863 1.6249,-7.236958 1.21867,-4.617339 1.21867,-3.810317 1.21867,-2.946832 0.81245,-1.476239 0.81245,-1.091603 0.81245,-0.720925 0.81245,-0.371403 0.81245,-0.04952 0.81245,0.239079 0.81245,0.489613 1.21867,1.111668 1.6249,1.945507 1.21867,1.595583 v 0" /></g></g></svg>
