<?xml version="1.0" encoding="UTF-8" standalone="no"?>
<!-- Created with Inkscape (http://www.inkscape.org/) -->

<svg
   width="143.41307mm"
   height="35.036411mm"
   viewBox="0 0 143.41307 35.036411"
   version="1.1"
   id="svg5"
   inkscape:version="1.1.2 (0a00cf5, 2022-02-04)"
   sodipodi:docname="background_clean.svg"
   xmlns:inkscape="http://www.inkscape.org/namespaces/inkscape"
   xmlns:sodipodi="http://sodipodi.sourceforge.net/DTD/sodipodi-0.dtd"
   xmlns:xlink="http://www.w3.org/1999/xlink"
   xmlns="http://www.w3.org/2000/svg"
   xmlns:svg="http://www.w3.org/2000/svg">
  <sodipodi:namedview
     id="namedview7"
     pagecolor="#ffffff"
     bordercolor="#666666"
     borderopacity="1.0"
     inkscape:pageshadow="2"
     inkscape:pageopacity="0.0"
     inkscape:pagecheckerboard="0"
     inkscape:document-units="mm"
     showgrid="false"
     inkscape:zoom="3.2747755"
     inkscape:cx="325.51849"
     inkscape:cy="42.59834"
     inkscape:window-width="2560"
     inkscape:window-height="1382"
     inkscape:window-x="1920"
     inkscape:window-y="0"
     inkscape:window-maximized="1"
     inkscape:current-layer="layer1" />
  <defs
     id="defs2">
    <linearGradient
       inkscape:collect="always"
       id="linearGradient1235">
      <stop
         style="stop-color:#ffffff;stop-opacity:1;"
         offset="0"
         id="stop1231" />
      <stop
         style="stop-color:#ffffff;stop-opacity:0;"
         offset="1"
         id="stop1233" />
    </linearGradient>
    <clipPath
       clipPathUnits="userSpaceOnUse"
       id="clipPath838">
      <path
         d="M 7.2,7.2 H 453.6 V 115.92 H 7.2 Z"
         id="path836" />
    </clipPath>
    <clipPath
       clipPathUnits="userSpaceOnUse"
       id="clipPath848">
      <path
         d="M 7.2,7.2 H 453.6 V 115.92 H 7.2 Z"
         id="path846" />
    </clipPath>
    <clipPath
       clipPathUnits="userSpaceOnUse"
       id="clipPath858">
      <path
         d="M 7.2,7.2 H 453.6 V 115.92 H 7.2 Z"
         id="path856" />
    </clipPath>
    <clipPath
       clipPathUnits="userSpaceOnUse"
       id="clipPath868">
      <path
         d="M 7.2,7.2 H 453.6 V 115.92 H 7.2 Z"
         id="path866" />
    </clipPath>
    <clipPath
       clipPathUnits="userSpaceOnUse"
       id="clipPath878">
      <path
         d="M 7.2,7.2 H 453.6 V 115.92 H 7.2 Z"
         id="path876" />
    </clipPath>
    <clipPath
       clipPathUnits="userSpaceOnUse"
       id="clipPath888">
      <path
         d="M 7.2,7.2 H 453.6 V 115.92 H 7.2 Z"
         id="path886" />
    </clipPath>
    <clipPath
       clipPathUnits="userSpaceOnUse"
       id="clipPath898">
      <path
         d="M 7.2,7.2 H 453.6 V 115.92 H 7.2 Z"
         id="path896" />
    </clipPath>
    <clipPath
       clipPathUnits="userSpaceOnUse"
       id="clipPath908">
      <path
         d="M 7.2,7.2 H 453.6 V 115.92 H 7.2 Z"
         id="path906" />
    </clipPath>
    <clipPath
       clipPathUnits="userSpaceOnUse"
       id="clipPath918">
      <path
         d="M 7.2,7.2 H 453.6 V 115.92 H 7.2 Z"
         id="path916" />
    </clipPath>
    <clipPath
       clipPathUnits="userSpaceOnUse"
       id="clipPath928">
      <path
         d="M 7.2,7.2 H 453.6 V 115.92 H 7.2 Z"
         id="path926" />
    </clipPath>
    <clipPath
       clipPathUnits="userSpaceOnUse"
       id="clipPath938">
      <path
         d="M 7.2,7.2 H 453.6 V 115.92 H 7.2 Z"
         id="path936" />
    </clipPath>
    <clipPath
       clipPathUnits="userSpaceOnUse"
       id="clipPath948">
      <path
         d="M 7.2,7.2 H 453.6 V 115.92 H 7.2 Z"
         id="path946" />
    </clipPath>
    <clipPath
       clipPathUnits="userSpaceOnUse"
       id="clipPath958">
      <path
         d="M 7.2,7.2 H 453.6 V 115.92 H 7.2 Z"
         id="path956" />
    </clipPath>
    <clipPath
       clipPathUnits="userSpaceOnUse"
       id="clipPath968">
      <path
         d="M 7.2,7.2 H 453.6 V 115.92 H 7.2 Z"
         id="path966" />
    </clipPath>
    <clipPath
       clipPathUnits="userSpaceOnUse"
       id="clipPath978">
      <path
         d="M 7.2,7.2 H 453.6 V 115.92 H 7.2 Z"
         id="path976" />
    </clipPath>
    <clipPath
       clipPathUnits="userSpaceOnUse"
       id="clipPath988">
      <path
         d="M 7.2,7.2 H 453.6 V 115.92 H 7.2 Z"
         id="path986" />
    </clipPath>
    <clipPath
       clipPathUnits="userSpaceOnUse"
       id="clipPath998">
      <path
         d="M 7.2,7.2 H 453.6 V 115.92 H 7.2 Z"
         id="path996" />
    </clipPath>
    <clipPath
       clipPathUnits="userSpaceOnUse"
       id="clipPath1008">
      <path
         d="M 7.2,7.2 H 453.6 V 115.92 H 7.2 Z"
         id="path1006" />
    </clipPath>
    <clipPath
       clipPathUnits="userSpaceOnUse"
       id="clipPath1018">
      <path
         d="M 7.2,7.2 H 453.6 V 115.92 H 7.2 Z"
         id="path1016" />
    </clipPath>
    <clipPath
       clipPathUnits="userSpaceOnUse"
       id="clipPath1028">
      <path
         d="M 7.2,7.2 H 453.6 V 115.92 H 7.2 Z"
         id="path1026" />
    </clipPath>
    <linearGradient
       inkscape:collect="always"
       xlink:href="#linearGradient1235"
       id="linearGradient1237"
       x1="-118.4006"
       y1="65.736588"
       x2="-109.2086"
       y2="66.101311"
       gradientUnits="userSpaceOnUse"
       gradientTransform="matrix(0.62537186,0,0,1,-45.005473,-0.81230754)" />
    <linearGradient
       inkscape:collect="always"
       xlink:href="#linearGradient1235"
       id="linearGradient1929"
       gradientUnits="userSpaceOnUse"
       gradientTransform="matrix(0.62537186,0,0,1,52.315587,-140.50466)"
       x1="-118.4006"
       y1="65.736588"
       x2="-109.2086"
       y2="66.101311" />
  </defs>
  <g
     inkscape:label="Layer 1"
     inkscape:groupmode="layer"
     id="layer1"
     transform="translate(120.50632,-52.611283)">
    <g
       id="g830"
       inkscape:label="background"
       transform="matrix(0.35277777,0,0,-0.35277777,-130.07979,91.84302)">
      <g
         id="g832">
        <g
           id="g834"
           clip-path="url(#clipPath838)">
          <path
             d="m 27.490909,83.110233 9.749386,-0.277546 4.062244,-0.358078 3.65602,-0.545193 3.249795,-0.700128 3.249795,-0.927982 3.249795,-1.171756 3.249796,-1.4232 3.249795,-1.673872 3.249795,-1.915387 3.65602,-2.42174 4.062244,-2.979548 4.874693,-3.88755 7.312039,-6.182424 8.124488,-6.797755 4.468469,-3.455856 3.656017,-2.578785 3.65602,-2.299089 3.2498,-1.773484 2.84357,-1.322803 2.84357,-1.095658 2.84357,-0.859418 2.84357,-0.617646 2.84357,-0.373811 2.84357,-0.131219 2.84357,0.107044 2.84357,0.338163 2.84357,0.559622 2.84358,0.769239 3.24979,1.118187 3.2498,1.351301 3.65602,1.768154 4.06224,2.229246 4.46847,2.714229 5.28092,3.471334 7.71826,5.377087 15.0303,10.536339 6.49959,4.268982 6.09337,3.736633 5.68714,3.220144 5.28092,2.742834 5.28091,2.498559 5.28092,2.254345 5.28092,2.014147 5.28092,1.780057 5.28091,1.552428 5.28092,1.330023 5.28092,1.110174 5.28092,0.888957 5.28091,0.66137 4.8747,0.398024 4.87469,0.179239 4.46847,-0.0444 4.46847,-0.263083 4.06224,-0.447237 4.06224,-0.664378 4.06225,-0.901403 3.65602,-1.031037 3.65602,-1.254934 3.65602,-1.493305 3.65602,-1.744717 3.65602,-2.006799 3.65602,-2.276098 3.65602,-2.547934 3.65601,-2.816294 4.06225,-3.430392 4.06224,-3.720081 4.8747,-4.783624 6.49959,-6.732099 8.93693,-9.252717 4.06225,-3.889603 3.24979,-2.831771 2.84357,-2.206831 2.43735,-1.648558 2.43735,-1.390494 2.03112,-0.939869 2.03112,-0.723819 2.03112,-0.493569 2.03112,-0.251242 2.03113,6.59e-4 2.03112,0.259267 2.03112,0.521371 2.03112,0.783471 2.03112,1.041818 2.03113,1.292486 2.03112,1.531453 2.43735,2.130746 2.43734,2.417341 2.84357,3.125641 3.65602,4.379011 12.99918,16.001774 2.84357,2.998705 2.43735,2.29443 2.43735,2.006401 2.43734,1.698323 2.03113,1.173782 2.03112,0.95605 2.03112,0.746369 2.43735,0.638961 2.43734,0.392389 2.84357,0.207942 3.65602,0.01341 1.6249,-0.03145 v 0"
             style="fill:none;stroke:#1e64c8;stroke-width:0.5;stroke-linecap:square;stroke-linejoin:round;stroke-miterlimit:10;stroke-dasharray:none;stroke-opacity:1"
             id="path840" />
        </g>
      </g>
      <g
         id="g842">
        <g
           id="g844"
           clip-path="url(#clipPath848)">
          <path
             d="m 27.490909,81.866379 14.217854,-2.301607 3.65602,-0.899145 3.65602,-1.128118 3.249795,-1.218918 3.249795,-1.433988 3.65602,-1.872045 3.656019,-2.134725 4.062244,-2.648782 4.468469,-3.188126 6.093366,-4.64386 10.15561,-7.767125 4.468469,-3.122585 3.656019,-2.305374 3.249796,-1.814167 3.249795,-1.560076 2.84357,-1.136641 2.84357,-0.909921 2.84357,-0.674404 2.84357,-0.434057 2.84357,-0.192748 2.84358,0.04585 2.84357,0.278322 2.84357,0.501591 2.84357,0.712942 3.24979,1.055262 3.2498,1.288499 3.65602,1.695231 4.06224,2.141556 4.87469,2.851267 6.09337,3.857045 22.74857,14.700318 5.68714,3.282187 5.68714,3.020142 5.28092,2.554726 5.28091,2.31265 5.28092,2.07842 5.68714,1.993239 5.68715,1.762596 6.09336,1.663145 6.90582,1.644024 7.31204,1.507518 8.12448,1.43805 8.12449,1.209595 7.71827,0.921921 6.49959,0.564543 5.68714,0.288014 5.28092,0.04646 4.46846,-0.167723 4.06225,-0.35119 4.06224,-0.57341 3.65602,-0.73432 3.65602,-0.967837 3.2498,-1.077188 3.24979,-1.299471 3.2498,-1.537741 3.24979,-1.789727 3.2498,-2.05218 3.24979,-2.320757 3.2498,-2.589925 3.24979,-2.852899 3.65602,-3.505754 4.06225,-4.221775 4.87469,-5.419378 14.62408,-16.558766 3.24979,-3.205025 2.84357,-2.491234 2.43735,-1.848025 2.03112,-1.305538 2.03112,-1.06822 2.03113,-0.810294 2.03112,-0.534289 1.6249,-0.218519 1.62489,-0.0262 1.6249,0.170456 1.6249,0.369635 1.6249,0.569368 1.62489,0.767568 2.03113,1.232321 2.03112,1.52389 2.03112,1.797779 2.43735,2.485949 2.43734,2.797039 3.2498,4.109347 4.46847,6.077623 6.49959,8.829188 3.24979,4.017383 2.84357,3.131907 2.43735,2.335497 2.03112,1.672208 2.03112,1.409277 2.03113,1.141393 2.03112,0.876314 2.03112,0.621703 2.03112,0.384909 2.03112,0.172792 2.43735,-0.02875 2.84357,-0.27743 4.46847,-0.688674 v 0"
             style="fill:none;stroke:#1e64c8;stroke-width:0.5;stroke-linecap:square;stroke-linejoin:round;stroke-miterlimit:10;stroke-dasharray:none;stroke-opacity:1"
             id="path850" />
        </g>
      </g>
      <g
         id="g852">
        <g
           id="g854"
           clip-path="url(#clipPath858)">
          <path
             d="m 27.490909,81.118063 5.687142,-1.603878 7.312039,-2.087561 4.468469,-1.517369 4.062244,-1.627766 3.656019,-1.697114 3.65602,-1.924827 4.062244,-2.394146 4.468468,-2.903012 5.687142,-3.985116 12.592957,-8.932504 4.062244,-2.572871 3.656019,-2.062345 3.249796,-1.58637 3.249795,-1.32116 2.843573,-0.918958 2.84357,-0.685123 2.84357,-0.443879 2.84357,-0.199669 2.84357,0.0432 2.84357,0.280656 2.84357,0.508973 2.84357,0.724829 3.2498,1.072935 3.24979,1.308244 3.65602,1.716192 4.06225,2.157587 4.87469,2.850819 6.90582,4.328246 13.4054,8.444988 6.09337,3.531545 5.28091,2.804554 4.8747,2.349827 4.87469,2.110401 4.87469,1.872739 4.8747,1.645975 5.28091,1.548159 5.68714,1.426998 6.09337,1.29922 7.31204,1.320538 9.34316,1.446217 54.02785,7.763372 5.28091,0.413495 4.46847,0.137797 4.06225,-0.09641 3.65602,-0.309411 3.24979,-0.484196 3.2498,-0.709861 2.84357,-0.82796 2.84357,-1.039767 2.84357,-1.268276 2.84357,-1.511612 2.84357,-1.767119 2.84357,-2.031272 2.84357,-2.299603 2.84357,-2.56665 3.2498,-3.250033 3.24979,-3.564856 3.65603,-4.33878 4.46846,-5.661698 12.18674,-15.713336 3.24979,-3.707702 2.43735,-2.489955 2.43734,-2.177248 2.03112,-1.535814 2.03113,-1.250831 1.62489,-0.777307 1.6249,-0.565527 1.6249,-0.343382 1.6249,-0.112884 1.6249,0.123692 1.62489,0.363855 1.6249,0.60491 1.6249,0.843993 1.6249,1.078124 2.03112,1.664401 2.03112,1.995076 2.03112,2.295968 2.43735,3.100099 2.84357,3.995668 4.06224,6.148774 6.49959,9.882738 2.84358,3.94333 2.43734,3.04527 2.43735,2.664557 2.03112,1.892772 2.03112,1.574128 2.03112,1.246357 1.6249,0.761369 1.6249,0.557031 1.6249,0.361638 2.03112,0.196836 2.03112,-0.0565 2.03112,-0.270686 2.43735,-0.543629 3.65602,-1.079116 2.03112,-0.633001 v 0"
             style="fill:none;stroke:#1e64c8;stroke-width:0.5;stroke-linecap:square;stroke-linejoin:round;stroke-miterlimit:10;stroke-dasharray:none;stroke-opacity:1"
             id="path860" />
        </g>
      </g>
      <g
         id="g862">
        <g
           id="g864"
           clip-path="url(#clipPath868)">
          <path
             d="m 27.490909,80.766838 4.468469,-1.95206 11.374283,-4.844372 4.468468,-2.199879 4.468469,-2.461279 4.468468,-2.72377 5.280918,-3.502446 17.873873,-12.154671 3.65602,-2.073487 3.249795,-1.602008 3.249796,-1.336524 2.84357,-0.928044 2.843571,-0.686841 2.843571,-0.435633 2.84357,-0.179541 2.84357,0.07636 2.84357,0.327198 2.84357,0.568423 2.84357,0.795941 3.2498,1.165966 3.2498,1.410097 3.65602,1.835531 4.06224,2.287415 5.28092,3.245715 19.90499,12.542754 4.87469,2.674313 4.46847,2.21445 4.46847,1.969234 4.46847,1.718221 4.46847,1.471611 4.46847,1.237761 4.87469,1.106339 4.87469,0.882351 5.68714,0.793855 6.49959,0.670033 8.53072,0.638977 21.12367,1.48661 7.71826,0.818793 6.90581,0.945554 6.90582,1.166252 7.31204,1.468349 8.53071,1.955581 16.6552,3.888817 4.8747,0.882174 4.06224,0.529643 3.65602,0.260001 3.24979,0.01537 2.84357,-0.18474 2.84358,-0.397614 2.84357,-0.637233 2.43734,-0.756736 2.43735,-0.967563 2.43735,-1.192666 2.43734,-1.430198 2.43735,-1.677712 2.43735,-1.932113 2.43734,-2.189621 2.84357,-2.877892 2.84357,-3.215065 3.2498,-4.058058 3.24979,-4.415722 4.06225,-5.904342 12.18673,-18.055692 2.84357,-3.680821 2.43735,-2.80479 2.03112,-2.033565 2.03112,-1.713732 1.6249,-1.115232 1.6249,-0.868957 1.62489,-0.607482 1.6249,-0.333355 1.6249,-0.04949 1.6249,0.240857 1.62489,0.534137 1.6249,0.826541 1.6249,1.114077 1.6249,1.392622 1.6249,1.658014 2.03112,2.419016 2.03112,2.763935 2.43735,3.698971 3.24979,5.407426 10.15561,17.376139 2.43735,3.594192 2.03112,2.663771 2.03112,2.316069 2.03112,1.936948 1.6249,1.263474 1.6249,1.004836 1.6249,0.747865 1.62489,0.497767 1.6249,0.259493 1.6249,0.03762 1.6249,-0.163749 2.03112,-0.450879 2.03112,-0.67424 2.84357,-1.206314 4.46847,-2.127329 v 0"
             style="fill:none;stroke:#1e64c8;stroke-width:0.5;stroke-linecap:square;stroke-linejoin:round;stroke-miterlimit:10;stroke-dasharray:none;stroke-opacity:1"
             id="path870" />
        </g>
      </g>
      <g
         id="g872">
        <g
           id="g874"
           clip-path="url(#clipPath878)">
          <path
             d="m 27.490909,80.448224 4.062244,-2.446667 16.655201,-9.684303 5.280917,-3.510757 6.499591,-4.60573 9.749385,-6.924794 4.468469,-2.876446 3.656019,-2.08211 3.249796,-1.586699 2.843571,-1.150464 2.84357,-0.904467 2.437347,-0.566085 2.437346,-0.364797 2.437347,-0.159105 2.437346,0.04771 2.437347,0.252422 2.437345,0.45191 2.84357,0.768353 2.84357,1.011245 2.84357,1.232441 3.2498,1.646934 3.65602,2.106649 4.46847,2.849886 6.49959,4.454133 10.15561,6.956262 4.87469,3.067279 4.46847,2.554788 4.06224,2.072197 4.06225,1.814155 4.06224,1.548579 4.06224,1.285266 4.06225,1.03245 4.06224,0.796732 4.46847,0.630606 4.46847,0.4063 5.28092,0.241724 6.09336,0.03608 8.12449,-0.20088 18.68632,-0.550065 6.90582,0.05411 6.09336,0.255329 5.68715,0.447459 5.68714,0.672803 5.28092,0.840673 5.28091,1.055767 5.28092,1.270558 5.68714,1.59733 6.09337,1.943654 7.71826,2.708833 12.18673,4.304847 4.8747,1.462033 3.65602,0.883393 3.24979,0.573685 2.84357,0.29777 2.84357,0.0701 2.43735,-0.148809 2.43735,-0.366112 2.43734,-0.606218 2.43735,-0.868141 2.43735,-1.150193 2.03112,-1.186774 2.43734,-1.71071 2.43735,-2.033309 2.43735,-2.361477 2.43734,-2.689011 2.43735,-3.008683 2.84357,-3.892218 2.84357,-4.263826 3.65602,-5.930052 4.87469,-8.39952 6.49959,-11.158483 3.2498,-5.097656 2.43735,-3.426331 2.03112,-2.51728 2.03112,-2.152556 1.6249,-1.425657 1.6249,-1.136891 1.62489,-0.827647 1.21868,-0.407309 1.21867,-0.217728 1.21867,-0.02358 1.21868,0.173711 1.21867,0.372635 1.21867,0.571599 1.21868,0.768944 1.62489,1.326239 1.6249,1.65827 1.6249,1.972115 2.03112,2.87007 2.03112,3.265952 2.43735,4.344341 3.24979,6.286289 7.71827,15.163612 2.43735,4.264644 2.03112,3.187261 2.03112,2.788811 1.6249,1.912566 1.62489,1.611182 1.6249,1.300076 1.6249,0.986117 1.6249,0.67609 1.62489,0.376518 1.6249,0.09349 1.6249,-0.16749 1.6249,-0.401627 2.03112,-0.783994 2.03112,-1.034503 2.84357,-1.731554 4.46847,-2.934278 v 0"
             style="fill:none;stroke:#1e64c8;stroke-width:0.5;stroke-linecap:square;stroke-linejoin:round;stroke-miterlimit:10;stroke-dasharray:none;stroke-opacity:1"
             id="path880" />
        </g>
      </g>
      <g
         id="g882">
        <g
           id="g884"
           clip-path="url(#clipPath888)">
          <path
             d="m 27.490909,79.756661 3.65602,-2.807683 6.093366,-4.329823 8.936937,-6.378601 7.312039,-5.540788 10.561835,-8.046875 4.062244,-2.819964 3.656019,-2.267631 3.249796,-1.734797 2.84357,-1.260209 2.437347,-0.865939 2.437346,-0.65275 2.437347,-0.428566 2.437346,-0.197151 2.437347,0.03756 2.437346,0.271593 2.437347,0.501026 2.437346,0.722119 2.437346,0.931388 2.843567,1.331 2.84358,1.566989 3.24979,2.038081 4.06224,2.840315 5.28092,4.009144 12.59296,9.70417 4.46847,3.107902 4.06224,2.549686 3.65602,2.033816 3.65602,1.76658 3.24979,1.338472 3.2498,1.119827 3.2498,0.905881 3.65602,0.774625 3.65601,0.533081 3.65602,0.313549 4.06225,0.121254 4.46847,-0.100453 4.87469,-0.33211 6.09337,-0.647786 9.34316,-1.250832 12.18673,-1.595883 6.90581,-0.683809 6.09337,-0.390354 5.68714,-0.145437 5.28092,0.07955 5.28092,0.30613 4.87469,0.498344 4.87469,0.717324 4.8747,0.945715 4.87469,1.180663 4.87469,1.418006 4.87469,1.651685 5.28092,2.038522 5.68714,2.449125 7.31204,3.422834 10.96806,5.163178 4.46847,1.839891 3.65602,1.257291 2.84357,0.764885 2.84357,0.530539 2.43735,0.23309 2.43734,-0.003 2.03113,-0.20499 2.03112,-0.407291 2.03112,-0.626153 2.03112,-0.860555 2.03112,-1.109012 2.03113,-1.369557 2.03112,-1.639697 2.03112,-1.916381 2.03112,-2.195991 2.43735,-3.002147 2.43734,-3.391328 2.43735,-3.757956 2.84357,-4.800406 3.2498,-5.937071 4.87469,-9.461966 5.68714,-11.013147 2.84357,-5.08837 2.43735,-3.945738 2.03112,-2.902934 2.03112,-2.481231 1.6249,-1.639362 1.6249,-1.300816 1.21867,-0.738149 1.21868,-0.52441 1.21867,-0.303118 1.21867,-0.07595 1.21867,0.155305 1.21868,0.388702 1.21867,0.622209 1.21867,0.853711 1.21868,1.081027 1.6249,1.783597 1.62489,2.154806 1.6249,2.49787 2.03112,3.551324 2.43735,4.782152 3.24979,6.986896 7.71827,16.933669 2.43735,4.727189 2.03112,3.500892 2.03112,3.024763 1.6249,2.040134 1.62489,1.682038 1.6249,1.313885 1.21867,0.742571 1.21868,0.536888 1.21867,0.33619 1.21867,0.142884 1.21868,-0.0408 1.6249,-0.319719 1.62489,-0.59288 1.6249,-0.829 2.03112,-1.30641 2.43735,-1.852921 5.68714,-4.737443 v 0"
             style="fill:none;stroke:#1e64c8;stroke-width:0.5;stroke-linecap:square;stroke-linejoin:round;stroke-miterlimit:10;stroke-dasharray:none;stroke-opacity:1"
             id="path890" />
        </g>
      </g>
      <g
         id="g892">
        <g
           id="g894"
           clip-path="url(#clipPath898)">
          <path
             d="m 27.490909,78.409724 3.65602,-3.348424 5.280917,-4.48606 15.436527,-12.975034 7.31204,-6.077252 4.062244,-3.109546 3.249795,-2.245207 2.843571,-1.732902 2.843571,-1.474101 2.437346,-1.029824 2.437347,-0.793338 2.437346,-0.541092 2.437347,-0.277369 2.031122,-0.02461 2.031122,0.164755 2.031122,0.353147 2.437346,0.667625 2.437346,0.923998 2.437347,1.165953 2.843571,1.64133 2.843574,1.910341 3.24979,2.460782 4.06225,3.394947 5.68714,5.103506 8.93694,8.038917 4.46846,3.696334 3.65602,2.74827 3.2498,2.192918 3.24979,1.933441 3.2498,1.659828 2.84357,1.223061 2.84357,1.009672 2.84357,0.800888 3.2498,0.669968 3.24979,0.423982 3.2498,0.19792 3.65602,-0.01939 3.65602,-0.242308 4.06224,-0.48717 4.87469,-0.820997 6.09337,-1.273512 11.78051,-2.763887 8.93693,-1.97435 6.49959,-1.216372 6.09337,-0.909909 5.68714,-0.614719 5.28092,-0.347121 5.28092,-0.115532 4.87469,0.111483 4.87469,0.332491 4.87469,0.565053 4.46847,0.732341 4.46847,0.946618 4.46847,1.16905 4.46847,1.397826 4.46847,1.629672 4.46847,1.859355 4.87469,2.278425 5.28092,2.730537 6.49959,3.639703 12.18673,6.895573 4.06224,1.992669 3.2498,1.345618 2.84357,0.931645 2.43734,0.57223 2.43735,0.32497 2.03112,0.0551 2.03113,-0.16392 2.03112,-0.40399 2.03112,-0.66413 2.03112,-0.94285 2.03112,-1.238035 2.03113,-1.546884 2.03112,-1.8659 2.03112,-2.190841 2.03112,-2.516707 2.03112,-2.837758 2.43735,-3.812745 2.43735,-4.225425 2.84357,-5.384936 3.65602,-7.474329 10.56183,-22.071714 2.43735,-4.418914 2.03112,-3.267729 2.03112,-2.805232 1.6249,-1.860862 1.6249,-1.48255 1.21867,-0.845311 1.21867,-0.604584 1.21868,-0.354855 1.21867,-0.09816 1.21867,0.163295 1.21868,0.427144 1.21867,0.6909 1.21867,0.951976 1.21868,1.207716 1.62489,1.993852 1.6249,2.407511 1.6249,2.786506 2.03112,3.950725 2.43735,5.294809 3.24979,7.671897 6.09337,14.5599 2.43735,5.264152 2.03112,3.924358 2.03112,3.407137 1.6249,2.306085 1.62489,1.90558 1.6249,1.490279 1.21868,0.841992 1.21867,0.607302 1.21867,0.377404 1.21868,0.155196 1.21867,-0.05663 1.21867,-0.25565 1.21868,-0.439702 1.62489,-0.843317 1.6249,-1.096694 2.03112,-1.655306 2.84357,-2.676924 5.28092,-5.275053 v 0"
             style="fill:none;stroke:#1e64c8;stroke-width:0.5;stroke-linecap:square;stroke-linejoin:round;stroke-miterlimit:10;stroke-dasharray:none;stroke-opacity:1"
             id="path900" />
        </g>
      </g>
      <g
         id="g902">
        <g
           id="g904"
           clip-path="url(#clipPath908)">
          <path
             d="m 27.490909,76.213326 3.65602,-3.8023 5.280917,-5.121105 17.061425,-16.060966 4.468469,-3.928999 3.656019,-2.928519 2.843571,-2.026321 2.843571,-1.751863 2.437346,-1.247838 2.437347,-0.985933 2.031122,-0.605426 2.031122,-0.397741 2.031122,-0.182253 2.031122,0.0383 2.031122,0.261054 2.031122,0.483078 2.031122,0.701442 2.031122,0.913286 2.437346,1.362365 2.437347,1.633156 2.843571,2.213344 2.843571,2.499772 3.249795,3.139486 4.46847,4.657819 13.4054,14.234457 3.65602,3.453101 3.2498,2.784119 3.24979,2.475212 2.84357,1.89129 2.84358,1.623804 2.84357,1.352129 2.84357,1.082036 2.84357,0.818641 2.84357,0.566331 2.84357,0.328731 2.84357,0.108705 3.2498,-0.11985 3.24979,-0.349857 3.65602,-0.627664 4.06224,-0.933226 4.8747,-1.363175 6.49959,-2.069847 17.06142,-5.545494 6.09337,-1.700426 5.68714,-1.364827 5.28092,-1.050974 5.28092,-0.828403 5.28091,-0.596525 5.28092,-0.357338 4.87469,-0.111257 4.8747,0.10563 4.87469,0.331214 4.87469,0.567667 4.46847,0.739144 4.46847,0.959936 4.46847,1.192362 4.46847,1.435711 4.46846,1.687625 4.46847,1.943505 4.46847,2.195808 4.87469,2.665416 5.28092,3.158323 7.71826,4.922447 6.90582,4.337834 4.06224,2.29489 3.2498,1.577772 2.84357,1.118039 2.43735,0.71267 2.03112,0.38847 2.03112,0.17508 2.03112,-0.0633 2.03112,-0.32631 1.6249,-0.46616 1.6249,-0.660664 1.6249,-0.865393 1.62489,-1.079087 1.6249,-1.300218 2.03113,-1.944591 2.03112,-2.304933 2.03112,-2.665363 2.03112,-3.018866 2.43735,-4.067848 2.43734,-4.513143 2.84357,-5.745372 3.65602,-7.93786 8.53072,-18.789839 2.43734,-4.781306 2.03112,-3.568154 2.03113,-3.09213 1.62489,-2.073085 1.6249,-1.673459 1.21868,-0.971465 1.21867,-0.714024 1.21867,-0.44593 1.21867,-0.169497 1.21868,0.112748 1.21867,0.398101 1.21867,0.683697 1.21868,0.966559 1.21867,1.243622 1.21867,1.511793 1.6249,2.411721 1.6249,2.830058 2.03112,4.055223 2.43735,5.481116 3.24979,7.989081 6.09337,15.173939 2.43735,5.446522 2.03112,4.025628 1.6249,2.812535 1.62489,2.406745 1.6249,1.972539 1.21867,1.183753 1.21868,0.926728 1.21867,0.670374 1.21867,0.418198 1.21868,0.173529 1.21867,-0.06053 1.21867,-0.28116 1.21868,-0.485891 1.62489,-0.934935 1.6249,-1.219436 2.03112,-1.846627 2.43735,-2.552362 6.49959,-7.348298 v 0"
             style="fill:none;stroke:#1e64c8;stroke-width:0.5;stroke-linecap:square;stroke-linejoin:round;stroke-miterlimit:10;stroke-dasharray:none;stroke-opacity:1"
             id="path910" />
        </g>
      </g>
      <g
         id="g912">
        <g
           id="g914"
           clip-path="url(#clipPath918)">
          <path
             d="m 27.490909,72.968622 3.65602,-4.136975 6.093366,-6.500721 14.217854,-14.790075 4.468469,-4.303894 3.249795,-2.842528 2.843571,-2.209468 2.437346,-1.639841 2.437346,-1.367619 2.031123,-0.90822 2.031122,-0.680169 2.031122,-0.438319 2.031122,-0.185664 2.031122,0.07451 2.031122,0.338694 2.031122,0.60326 2.031122,0.864526 2.031122,1.118856 2.031122,1.362737 2.437346,1.937616 2.437347,2.239329 2.843571,2.946972 3.249795,3.731054 4.062244,5.055781 15.0303,19.150738 3.2498,3.612173 2.84357,2.873827 2.84357,2.572475 2.84357,2.248449 2.43735,1.658652 2.43734,1.406548 2.43735,1.154874 2.43735,0.907432 2.43734,0.667588 2.43735,0.43824 2.43735,0.221804 2.43734,0.02022 2.84357,-0.209376 2.84357,-0.433905 3.2498,-0.734094 3.65602,-1.078171 4.06224,-1.441356 5.28092,-2.134884 9.34316,-4.083073 8.53071,-3.625986 6.09337,-2.347588 5.28092,-1.810384 5.28091,-1.576456 5.28092,-1.330817 4.87469,-1.007314 4.8747,-0.795887 4.87469,-0.586746 4.87469,-0.379605 4.8747,-0.172848 4.87469,0.03615 4.87469,0.250725 4.87469,0.47456 4.8747,0.711348 4.46847,0.873872 4.46846,1.100607 4.46847,1.342019 4.06225,1.440962 4.06224,1.659526 4.06224,1.881698 4.46847,2.322667 4.46847,2.570283 5.28092,3.305036 9.34316,6.196785 5.28092,3.349995 3.65602,2.058553 2.84357,1.361761 2.43734,0.945449 2.43735,0.693503 2.03112,0.351883 2.03113,0.11725 2.03112,-0.144454 1.62489,-0.321611 1.6249,-0.51852 1.6249,-0.727114 1.6249,-0.946135 1.6249,-1.173997 1.62489,-1.408787 2.03112,-2.098025 2.03113,-2.475272 2.03112,-2.848396 2.03112,-3.208992 2.43735,-4.295373 2.84357,-5.550214 3.24979,-6.893653 10.56184,-23.012594 2.43734,-4.524259 2.03113,-3.278998 1.62489,-2.233771 1.6249,-1.839522 1.21868,-1.096993 1.21867,-0.838457 1.21867,-0.567607 1.21867,-0.286874 1.21868,0.0011 1.21867,0.293345 1.21867,0.586879 1.21868,0.878461 1.21867,1.16478 1.21867,1.442471 1.6249,2.334054 1.6249,2.768489 2.03112,3.998337 2.43735,5.435598 3.24979,7.94773 6.09337,15.049525 2.43735,5.343093 2.03112,3.905735 1.6249,2.692825 1.62489,2.265801 1.6249,1.811339 1.21867,1.050685 1.21868,0.784461 1.21867,0.520268 1.21867,0.261801 1.21868,0.01253 1.21867,-0.224355 1.21867,-0.446025 1.21868,-0.650032 1.62489,-1.149826 1.6249,-1.426656 2.03112,-2.090823 2.84357,-3.311218 6.09337,-7.45973 v 0"
             style="fill:none;stroke:#1e64c8;stroke-width:0.5;stroke-linecap:square;stroke-linejoin:round;stroke-miterlimit:10;stroke-dasharray:none;stroke-opacity:1"
             id="path920" />
        </g>
      </g>
      <g
         id="g922">
        <g
           id="g924"
           clip-path="url(#clipPath928)">
          <path
             d="m 27.490909,68.64416 4.468469,-5.225104 17.061425,-19.306384 4.468468,-4.763738 3.249795,-3.166654 2.843571,-2.470311 2.437347,-1.835993 2.031122,-1.297566 2.031122,-1.060705 2.031122,-0.802282 2.031122,-0.52521 1.624897,-0.210322 1.624898,-0.01716 1.624898,0.180333 1.624897,0.38036 1.624898,0.581075 1.624897,0.780604 2.031123,1.251498 2.031122,1.548311 2.031122,1.83077 2.437346,2.543602 2.437346,2.884948 2.843571,3.736564 3.249796,4.659906 4.468467,6.853288 10.15561,15.767211 3.65602,5.189115 3.2498,4.207967 2.84357,3.308958 2.43734,2.529633 2.43735,2.229445 2.43735,1.919395 2.43734,1.605302 2.03112,1.098642 2.03113,0.884761 2.03112,0.676388 2.03112,0.475395 2.43735,0.317924 2.43734,0.05959 2.43735,-0.178498 2.43735,-0.394767 2.84357,-0.703434 2.84357,-0.929761 3.24979,-1.292499 4.06225,-1.882708 4.87469,-2.523683 10.56184,-5.815804 6.90581,-3.649734 5.68714,-2.747673 4.87469,-2.118997 4.8747,-1.879927 4.87469,-1.633919 4.87469,-1.389793 4.8747,-1.153184 4.87469,-0.927029 4.87469,-0.712029 5.28092,-0.540389 5.28092,-0.3094 5.28091,-0.0831 5.28092,0.144377 5.28092,0.37946 4.87469,0.571023 4.87469,0.798948 4.46847,0.948918 4.46847,1.172816 4.46847,1.412915 4.46847,1.666925 4.06224,1.743222 4.46847,2.168114 4.46847,2.4174 5.28092,3.131839 7.71826,4.890456 6.09337,3.77676 3.65601,2.033213 2.84358,1.364886 2.43734,0.964357 2.43735,0.727372 2.03112,0.391378 2.03112,0.166773 2.03112,-0.08515 1.6249,-0.267281 1.6249,-0.458181 1.6249,-0.660825 1.6249,-0.873891 1.62489,-1.095717 1.6249,-1.32428 2.03112,-1.983144 2.03112,-2.349234 2.03113,-2.70987 2.03112,-3.056225 2.43735,-4.090143 2.84357,-5.274749 3.24979,-6.521074 8.93694,-18.277904 2.43734,-4.350552 2.03113,-3.182111 1.62489,-2.187323 1.6249,-1.820108 1.21868,-1.099711 1.21867,-0.855545 1.21867,-0.598625 1.21867,-0.331348 1.21868,-0.05637 1.21867,0.223425 1.21867,0.504963 1.21868,0.785011 1.21867,1.060228 1.21867,1.327219 1.6249,2.164353 1.6249,2.581155 2.03112,3.740351 2.43735,5.092551 3.24979,7.436799 5.28092,12.199029 2.43735,5.067698 2.03112,3.718341 1.6249,2.56793 1.62489,2.160861 1.6249,1.724118 1.21867,0.995539 1.21868,0.73708 1.21867,0.479755 1.21867,0.2273 1.21868,-0.01677 1.21867,-0.249216 1.21867,-0.467175 1.21868,-0.668177 1.6249,-1.170536 1.62489,-1.444932 2.03112,-2.113027 2.84358,-3.348735 6.90581,-8.630168 v 0"
             style="fill:none;stroke:#1e64c8;stroke-width:0.5;stroke-linecap:square;stroke-linejoin:round;stroke-miterlimit:10;stroke-dasharray:none;stroke-opacity:1"
             id="path930" />
        </g>
      </g>
      <g
         id="g932">
        <g
           id="g934"
           clip-path="url(#clipPath938)">
          <path
             d="m 27.490909,63.848426 25.185913,-29.351725 3.249796,-3.336345 2.84357,-2.57651 2.437347,-1.884649 2.031122,-1.302054 2.031122,-1.027926 1.624897,-0.607935 1.624898,-0.405042 1.624898,-0.192563 1.624897,0.02765 1.624898,0.253572 1.624898,0.48309 1.624897,0.713987 1.624898,0.944005 1.624897,1.170873 2.031123,1.774198 2.031122,2.104775 2.031122,2.415002 2.437346,3.272037 2.437346,3.6317 2.843571,4.613982 3.65602,6.372244 7.312043,13.36345 4.87469,8.646481 3.65602,6.008787 2.84357,4.274148 2.84357,3.858639 2.43735,2.942169 2.43734,2.58367 2.03113,1.870109 2.03112,1.609229 2.03112,1.348384 2.03112,1.09062 2.03112,0.838694 2.03113,0.595064 2.03112,0.361854 2.03112,0.1409 2.03112,-0.0663 2.43735,-0.33219 2.43734,-0.5819 2.43735,-0.80332 2.84357,-1.17877 3.2498,-1.610484 3.65602,-2.070011 4.87469,-3.042497 18.68632,-11.972031 4.87469,-2.720751 4.46847,-2.25653 4.46847,-2.016077 4.46847,-1.773686 4.46847,-1.537104 4.46847,-1.311491 4.87469,-1.18983 4.87469,-0.957557 5.28092,-0.797358 5.28092,-0.568545 5.68714,-0.375415 5.68714,-0.142483 5.68714,0.0863 5.68714,0.320462 5.28092,0.520086 5.28092,0.753335 4.87469,0.92294 4.87469,1.162939 4.46847,1.294563 4.46847,1.526771 4.46847,1.766087 4.46847,2.002244 4.87469,2.431064 6.09337,3.31573 10.96806,6.044868 3.65602,1.731951 2.84357,1.126808 2.43734,0.759644 2.43735,0.524294 2.03112,0.225425 2.03112,0.006 2.03113,-0.238112 2.03112,-0.505491 1.6249,-0.61105 1.62489,-0.804832 2.03112,-1.289831 2.03113,-1.614372 2.03112,-1.942987 2.03112,-2.268551 2.03112,-2.582934 2.43735,-3.485393 2.84357,-4.528584 3.2498,-5.63319 9.34316,-16.519471 2.43734,-3.68241 2.03113,-2.648664 1.62489,-1.782862 1.6249,-1.441211 1.21867,-0.835632 1.21868,-0.611337 1.21867,-0.376691 1.21867,-0.134094 1.21868,0.113833 1.21867,0.364262 1.21867,0.614217 1.21868,0.860597 1.21867,1.100232 1.6249,1.822127 1.62489,2.197935 2.03113,3.211579 2.03112,3.632837 2.84357,5.566662 6.49959,12.972417 2.43735,4.261272 2.03112,3.062913 1.6249,2.065076 1.62489,1.68492 1.21868,0.999932 1.21867,0.767458 1.21867,0.533203 1.21868,0.300756 1.21867,0.07355 1.21867,-0.145199 1.21868,-0.352593 1.21867,-0.546081 1.6249,-1.001091 1.6249,-1.273812 2.03112,-1.905722 2.43734,-2.62531 3.65602,-4.319182 5.28092,-6.340804 v 0"
             style="fill:none;stroke:#1e64c8;stroke-width:0.5;stroke-linecap:square;stroke-linejoin:round;stroke-miterlimit:10;stroke-dasharray:none;stroke-opacity:1"
             id="path940" />
        </g>
      </g>
      <g
         id="g942">
        <g
           id="g944"
           clip-path="url(#clipPath948)">
          <path
             d="m 27.490909,59.641841 7.718264,-8.586508 5.280917,-6.237008 11.780508,-14.096549 3.249795,-3.427019 2.437347,-2.275721 2.437346,-1.953698 2.031122,-1.338619 2.031122,-1.040889 1.624898,-0.598686 1.624897,-0.376422 1.624898,-0.143027 1.624898,0.09937 1.624897,0.348471 1.624898,0.601827 1.624897,0.856894 1.624898,1.111065 1.624898,1.361718 2.031122,2.045073 2.031122,2.409513 2.031122,2.75066 2.437346,3.710446 2.437347,4.101834 3.249795,5.962184 4.062244,7.998865 10.968063,21.952522 3.24979,5.904853 2.84357,4.738648 2.43735,3.688071 2.43735,3.307427 2.43734,2.902437 2.03112,2.097986 2.03113,1.801619 2.03112,1.504862 2.03112,1.21135 2.03112,0.92437 2.03112,0.64687 2.03113,0.38141 2.03112,0.13012 2.03112,-0.10519 2.03112,-0.32319 2.03112,-0.52282 2.43735,-0.86416 2.43735,-1.09088 2.84357,-1.51481 3.24979,-1.987378 4.06225,-2.761989 6.09336,-4.459814 10.15561,-7.440228 5.28092,-3.563871 4.46847,-2.760186 4.46847,-2.496276 4.06224,-2.030787 4.06224,-1.80409 4.46847,-1.731089 4.46847,-1.480441 4.46847,-1.248677 4.87469,-1.121938 4.8747,-0.896933 5.28091,-0.746112 5.68714,-0.570894 6.09337,-0.372453 6.09337,-0.144955 6.09336,0.07436 6.09337,0.298098 5.68714,0.494565 5.68714,0.725862 5.28092,0.905752 4.87469,1.056131 4.8747,1.286042 4.87469,1.528665 4.87469,1.773119 5.28092,2.177383 6.09336,2.768571 11.37429,5.230098 3.65602,1.411789 2.84357,0.894595 2.84357,0.654168 2.43735,0.323587 2.03112,0.07293 2.03112,-0.129299 2.03112,-0.35229 2.03113,-0.594117 2.03112,-0.851995 2.03112,-1.122209 2.03112,-1.400067 2.03112,-1.67989 2.03112,-1.955038 2.43735,-2.691494 2.43735,-3.0328 2.84357,-3.894735 4.06224,-5.991648 5.68714,-8.385915 2.43735,-3.244401 2.03112,-2.400512 2.03112,-2.043553 1.6249,-1.330171 1.6249,-1.024285 1.21867,-0.550812 1.21868,-0.35381 1.21867,-0.14945 1.21867,0.05998 1.21868,0.271997 1.21867,0.483985 1.21867,0.693204 1.6249,1.239679 1.6249,1.580362 1.62489,1.891267 2.03113,2.74257 2.43734,3.724435 3.65602,6.081569 4.06225,6.696283 2.43734,3.607736 2.03113,2.609691 1.62489,1.766856 1.6249,1.445505 1.6249,1.101086 1.21867,0.591658 1.21867,0.388847 1.21868,0.187602 1.21867,-0.009 1.21867,-0.198196 1.21868,-0.377344 1.6249,-0.760343 1.62489,-1.022824 2.03113,-1.589349 2.43734,-2.258779 3.2498,-3.389742 7.71826,-8.493091 v 0"
             style="fill:none;stroke:#1e64c8;stroke-width:0.5;stroke-linecap:square;stroke-linejoin:round;stroke-miterlimit:10;stroke-dasharray:none;stroke-opacity:1"
             id="path950" />
        </g>
      </g>
      <g
         id="g952">
        <g
           id="g954"
           clip-path="url(#clipPath958)">
          <path
             d="m 27.490909,56.55327 4.874693,-5.026807 4.062244,-4.495526 4.468468,-5.271088 12.186733,-14.622047 2.843571,-2.952317 2.437346,-2.2211 2.031122,-1.580225 2.031122,-1.293622 1.624898,-0.804811 1.624897,-0.582518 1.624898,-0.345753 1.624898,-0.09663 1.624897,0.162492 1.624898,0.42906 1.624897,0.700355 1.624898,0.97354 1.624898,1.245715 1.624897,1.513956 1.624898,1.775371 2.031122,2.571885 2.031122,2.940379 2.437346,3.97118 2.437347,4.394 2.843571,5.563672 3.656019,7.648735 12.592961,26.808073 3.24979,6.127878 2.84357,4.858723 2.43735,3.735135 2.43735,3.304329 2.03112,2.408441 2.03112,2.086555 2.03112,1.7619 2.03112,1.43877 2.03112,1.1211 2.03113,0.81245 1.62489,0.43577 2.03113,0.28922 2.03112,0.0209 2.03112,-0.22893 2.03112,-0.45892 2.03112,-0.66806 2.43735,-1.04755 2.43735,-1.28046 2.84357,-1.73885 3.24979,-2.24083 4.46847,-3.382967 8.93694,-7.160808 6.09336,-4.732808 4.8747,-3.515205 4.46847,-2.945771 4.06224,-2.423716 4.06224,-2.173433 4.06225,-1.925209 4.06224,-1.686139 4.06225,-1.461094 4.46846,-1.367625 4.46847,-1.14051 4.8747,-1.014291 5.28091,-0.862433 5.68715,-0.692302 6.09336,-0.508954 6.49959,-0.313135 6.90582,-0.09917 6.90581,0.1321 6.49959,0.344108 6.09337,0.53647 5.68714,0.712584 5.28092,0.869191 5.28091,1.091382 5.28092,1.330449 5.28092,1.574546 5.68714,1.949409 6.90582,2.625582 9.34316,3.556391 4.06224,1.303264 3.2498,0.816474 2.84357,0.486109 2.43734,0.205248 2.43735,-0.02497 2.03112,-0.219698 2.03113,-0.418577 2.03112,-0.632099 2.03112,-0.857217 2.03112,-1.090024 2.03112,-1.325715 2.03112,-1.558628 2.43735,-2.16427 2.43735,-2.456238 2.84357,-3.172593 4.06224,-4.905116 5.68714,-6.881708 2.84357,-3.068174 2.03113,-1.90046 2.03112,-1.584644 1.6249,-1.000675 1.62489,-0.734747 1.6249,-0.447225 1.21867,-0.136796 1.21868,0.03867 1.21867,0.216511 1.21867,0.394432 1.6249,0.798323 1.6249,1.097937 1.6249,1.377451 2.03112,2.071996 2.03112,2.395416 2.84357,3.733958 7.31204,9.832008 2.03112,2.321223 2.03113,1.976381 1.62489,1.288386 1.6249,1.001309 1.6249,0.698738 1.6249,0.38974 1.21867,0.09071 1.6249,-0.139851 1.62489,-0.422122 1.6249,-0.680913 1.6249,-0.910846 2.03112,-1.411913 2.43735,-2.005235 3.24979,-3.012565 7.71827,-7.618058 1.21867,-1.213404 v 0"
             style="fill:none;stroke:#1e64c8;stroke-width:0.5;stroke-linecap:square;stroke-linejoin:round;stroke-miterlimit:10;stroke-dasharray:none;stroke-opacity:1"
             id="path960" />
        </g>
      </g>
      <g
         id="g962">
        <g
           id="g964"
           clip-path="url(#clipPath968)">
          <path
             d="m 27.490909,54.462034 3.65602,-3.481052 3.656019,-3.788474 3.65602,-4.103226 4.468469,-5.355814 9.343161,-11.318198 2.843571,-3.07208 2.437346,-2.338737 2.031122,-1.684249 2.031122,-1.399075 1.624898,-0.887563 1.624897,-0.661631 1.624898,-0.419219 1.624898,-0.162503 1.624897,0.106055 1.624898,0.383755 1.624898,0.667696 1.624897,0.954835 1.624898,1.242024 1.624897,1.526084 1.624898,1.803839 2.031122,2.63077 2.031122,3.024944 2.437347,4.105238 2.437346,4.56088 2.843571,5.794358 3.65602,7.989323 12.592959,28.071269 2.84357,5.636464 2.84357,5.140913 2.43735,3.95337 2.43734,3.496454 2.03112,2.54643 2.03113,2.203176 2.03112,1.85651 2.03112,1.51117 1.6249,0.964 1.62489,0.75136 1.6249,0.54493 1.6249,0.34603 1.6249,0.1558 2.03112,-0.058 2.03112,-0.3197 2.03112,-0.55941 2.03113,-0.77618 2.43734,-1.18452 2.43735,-1.42211 2.84357,-1.90593 3.65602,-2.747084 4.87469,-3.989685 13.40541,-11.170459 4.46847,-3.381031 4.06224,-2.824852 4.06224,-2.564103 4.06225,-2.294851 4.06224,-2.028045 4.06225,-1.771737 4.06224,-1.531438 4.46847,-1.430221 4.46847,-1.190922 4.87469,-1.05945 5.28092,-0.904707 5.68714,-0.736011 6.09336,-0.560646 6.90582,-0.399314 7.31204,-0.190883 7.31204,0.02528 7.31204,0.241846 6.90581,0.447006 6.49959,0.645326 6.09337,0.835541 5.68714,1.008566 5.68714,1.2481 5.68714,1.48959 6.09337,1.831963 17.06143,5.310234 3.65602,0.785297 2.84357,0.403365 2.84357,0.171551 2.43734,-0.07224 2.43735,-0.30342 2.43735,-0.558569 2.03112,-0.674265 2.03112,-0.872154 2.43735,-1.312055 2.43734,-1.59759 2.43735,-1.867241 2.84357,-2.479252 3.2498,-3.14003 10.15561,-10.068308 2.43734,-1.958172 2.03112,-1.345643 1.6249,-0.851727 1.6249,-0.626779 1.6249,-0.382782 1.62489,-0.12453 1.6249,0.142449 1.6249,0.411996 1.6249,0.677499 1.6249,0.932071 1.62489,1.168783 2.03112,1.755774 2.43735,2.456024 3.2498,3.647856 5.28091,5.96449 2.43735,2.399504 2.03112,1.688985 1.6249,1.103192 1.6249,0.857212 1.6249,0.595866 1.62489,0.327238 1.6249,0.05938 1.6249,-0.200026 1.6249,-0.444026 1.62489,-0.666674 2.03113,-1.106459 2.03112,-1.355935 2.84357,-2.20234 4.06224,-3.483824 8.12449,-7.232478 v 0"
             style="fill:none;stroke:#1e64c8;stroke-width:0.5;stroke-linecap:square;stroke-linejoin:round;stroke-miterlimit:10;stroke-dasharray:none;stroke-opacity:1"
             id="path970" />
        </g>
      </g>
      <g
         id="g972">
        <g
           id="g974"
           clip-path="url(#clipPath978)">
          <path
             d="m 27.490909,53.074248 3.249795,-2.878804 3.249796,-3.180596 3.249795,-3.484717 3.656019,-4.238103 5.687142,-6.994175 5.280917,-6.402114 3.249796,-3.578771 2.437346,-2.366495 2.031122,-1.699942 2.031122,-1.405072 1.624898,-0.883648 1.624897,-0.648673 1.624898,-0.396165 1.624898,-0.128467 1.624897,0.151768 1.624898,0.441629 1.624898,0.737986 1.624897,1.037555 1.624898,1.336948 1.624897,1.632732 1.624898,1.921495 2.031122,2.791854 2.031122,3.199408 2.437347,4.328316 2.437346,4.793694 2.843571,6.070176 3.65602,8.335036 11.374279,26.331563 3.2498,6.726452 2.84357,5.334875 2.43735,4.096473 2.43734,3.615182 2.03113,2.625392 2.03112,2.26334 2.03112,1.89777 1.6249,1.25593 1.62489,1.02595 1.6249,0.80082 1.6249,0.58214 1.6249,0.37137 1.62489,0.16976 1.6249,-0.0216 2.03112,-0.27914 2.03113,-0.53752 2.03112,-0.77146 2.43734,-1.19914 2.43735,-1.45598 2.84357,-1.96553 3.2498,-2.517277 4.46847,-3.771377 15.43652,-13.317545 4.46847,-3.425381 4.06225,-2.837738 4.06224,-2.555486 4.06224,-2.269338 4.06225,-1.99008 4.06224,-1.725396 4.06225,-1.480313 4.06224,-1.257659 4.46847,-1.154337 4.87469,-1.020798 5.28092,-0.867433 5.68714,-0.704273 6.49959,-0.568382 6.90582,-0.38212 7.71826,-0.206773 8.12449,0.0018 8.12449,0.224097 7.31204,0.413867 6.90581,0.610377 6.49959,0.806292 6.09337,0.990235 5.68714,1.144346 6.09336,1.455525 7.31204,1.988152 10.56184,2.880288 4.06224,0.880053 3.2498,0.50799 2.84357,0.250408 2.84357,0.02606 2.43735,-0.186388 2.43734,-0.402904 2.43735,-0.63789 2.43734,-0.885587 2.43735,-1.138409 2.43735,-1.386959 2.84357,-1.911158 2.84357,-2.182414 4.06224,-3.443953 6.90582,-5.928248 2.84357,-2.10332 2.03112,-1.262643 2.03112,-1.008037 1.6249,-0.594382 1.6249,-0.386098 1.6249,-0.163875 1.62489,0.06745 1.6249,0.302448 1.6249,0.535198 1.6249,0.759506 2.03112,1.241766 2.03112,1.526523 2.43735,2.127966 3.65602,3.544393 4.46847,4.296464 2.43734,2.042949 2.03112,1.425989 1.6249,0.919648 1.6249,0.70022 1.6249,0.467193 1.62489,0.227967 1.6249,-0.01009 1.6249,-0.239958 1.6249,-0.455306 2.03112,-0.841233 2.03112,-1.098619 2.43735,-1.582356 3.24979,-2.403398 7.71827,-6.121762 4.06224,-3.297969 v 0"
             style="fill:none;stroke:#1e64c8;stroke-width:0.5;stroke-linecap:square;stroke-linejoin:round;stroke-miterlimit:10;stroke-dasharray:none;stroke-opacity:1"
             id="path980" />
        </g>
      </g>
      <g
         id="g982">
        <g
           id="g984"
           clip-path="url(#clipPath988)">
          <path
             d="m 27.490909,52.151745 2.843571,-2.349123 2.843571,-2.619145 3.249795,-3.324168 3.249795,-3.645217 4.062244,-4.898888 9.343162,-11.434358 2.843571,-3.063186 2.437346,-2.293062 2.031122,-1.612593 2.031122,-1.292184 1.624898,-0.774268 1.624897,-0.522132 1.624898,-0.252594 1.624898,0.03168 1.218673,0.217519 1.624897,0.555552 1.624898,0.864295 1.624898,1.17547 1.624897,1.485436 1.624898,1.790528 1.624897,2.087109 2.031123,3.00729 2.031122,3.420786 2.437346,4.596257 2.843571,5.938937 3.249795,7.370364 4.874693,11.71902 6.499593,15.578454 3.24979,7.252951 2.84357,5.845389 2.43735,4.555052 2.43735,4.080332 2.03112,3.009917 2.03112,2.638785 2.03112,2.2589 2.03113,1.87618 1.62489,1.22701 1.6249,0.98741 1.6249,0.7534 1.62489,0.5267 1.6249,0.30882 1.6249,0.10106 1.6249,-0.0955 2.03112,-0.37725 2.03112,-0.64022 2.03112,-0.8769 2.43735,-1.32678 2.43735,-1.58217 2.84357,-2.10758 3.65602,-3.017173 4.87469,-4.344299 10.96806,-9.877561 4.46847,-3.700327 4.06224,-3.093813 4.06225,-2.805013 3.65602,-2.26719 3.65601,-2.024016 3.65602,-1.788574 4.06225,-1.726731 4.06224,-1.47387 4.06225,-1.245755 4.46846,-1.137419 4.8747,-1.000499 5.28092,-0.846173 5.68714,-0.685155 6.49959,-0.554574 7.31204,-0.396984 8.12448,-0.220938 8.93694,-0.01971 8.93694,0.206915 8.12449,0.412088 7.31204,0.595238 6.49959,0.746072 6.09336,0.913067 6.09337,1.132905 6.49959,1.434204 19.09255,4.420358 3.65602,0.499032 3.24979,0.212568 2.84357,-0.03825 2.84357,-0.284544 2.43735,-0.462926 2.43735,-0.680194 2.43734,-0.905245 2.43735,-1.130045 2.84357,-1.58869 2.84357,-1.845879 3.65602,-2.65651 8.93694,-6.660092 2.43734,-1.50011 2.03113,-1.034572 2.03112,-0.793459 2.03112,-0.516219 1.6249,-0.194351 1.62489,0.01056 1.6249,0.220057 1.6249,0.428768 1.6249,0.630989 2.03112,1.053792 2.03112,1.313455 2.43735,1.848188 3.65602,3.100655 4.46847,3.769257 2.43734,1.785841 2.03112,1.237197 2.03113,0.954928 1.6249,0.536356 1.62489,0.322064 1.6249,0.104079 1.6249,-0.110753 1.62489,-0.316001 2.03113,-0.659857 2.03112,-0.916348 2.43735,-1.370588 3.24979,-2.141594 6.09337,-4.386307 7.71826,-5.643615 v 0"
             style="fill:none;stroke:#1e64c8;stroke-width:0.5;stroke-linecap:square;stroke-linejoin:round;stroke-miterlimit:10;stroke-dasharray:none;stroke-opacity:1"
             id="path990" />
        </g>
      </g>
      <g
         id="g992">
        <g
           id="g994"
           clip-path="url(#clipPath998)">
          <path
             d="m 27.490909,51.536434 2.843571,-2.215888 2.843571,-2.520837 2.843571,-2.822679 3.249795,-3.565278 3.65602,-4.359128 11.780507,-14.397816 2.437347,-2.508636 2.031122,-1.820836 2.031122,-1.522203 1.624897,-0.970813 1.624898,-0.726907 1.624898,-0.462713 1.624897,-0.180756 1.218674,0.05853 1.218673,0.230655 1.218673,0.406794 1.624898,0.821178 1.624897,1.142809 1.624898,1.464112 1.624897,1.781191 1.624898,2.090165 2.031122,3.028739 2.031122,3.46154 2.437347,4.66936 2.437346,5.154375 3.249795,7.464104 4.468469,10.945903 7.312036,17.99745 3.2498,7.42389 2.84357,5.970991 2.43735,4.640901 2.43734,4.143758 2.03112,3.044735 2.03113,2.656936 2.03112,2.26059 1.6249,1.52137 1.62489,1.26769 1.6249,1.01781 1.6249,0.77374 1.6249,0.53733 1.62489,0.31022 1.6249,0.0938 1.6249,-0.11074 1.6249,-0.30245 2.03112,-0.62687 2.03112,-0.87742 2.03112,-1.09953 2.43735,-1.57227 2.84357,-2.12125 3.24979,-2.71144 4.46847,-4.046879 13.40541,-12.360188 4.46847,-3.705755 4.06224,-3.070182 3.65602,-2.498475 3.65602,-2.241961 3.65602,-1.989241 3.65602,-1.747036 3.65602,-1.520025 4.06224,-1.444799 4.06225,-1.213995 4.46847,-1.101645 4.87469,-0.962757 5.28092,-0.808994 6.09336,-0.690476 6.90582,-0.538713 7.71826,-0.371818 8.93694,-0.202655 9.74938,0.0059 9.34317,0.224701 8.53071,0.428311 7.31204,0.582531 6.90581,0.775322 6.49959,0.958327 6.49959,1.185495 7.71827,1.646552 11.37428,2.443861 4.46847,0.710299 3.65602,0.350115 3.24979,0.07242 2.84358,-0.162777 2.84356,-0.405597 2.43735,-0.558843 2.43735,-0.763334 2.43734,-0.969409 2.84358,-1.381241 2.84357,-1.622334 3.65602,-2.357123 9.34316,-6.225028 2.43734,-1.32049 2.03113,-0.89783 2.03112,-0.672442 2.03112,-0.414631 1.6249,-0.129489 1.62489,0.05896 1.6249,0.250421 1.6249,0.439724 2.03112,0.803762 2.03112,1.060344 2.43735,1.55414 3.2498,2.39739 6.49959,4.894133 2.43734,1.508119 2.03112,1.00228 2.03113,0.725524 1.6249,0.362321 1.62489,0.160849 1.6249,-0.04059 1.6249,-0.235616 2.03112,-0.5496 2.03112,-0.800117 2.43735,-1.229075 2.84357,-1.6981 4.87469,-3.219475 10.96806,-7.31728 v 0"
             style="fill:none;stroke:#1e64c8;stroke-width:0.5;stroke-linecap:square;stroke-linejoin:round;stroke-miterlimit:10;stroke-dasharray:none;stroke-opacity:1"
             id="path1000" />
        </g>
      </g>
      <g
         id="g1002">
        <g
           id="g1004"
           clip-path="url(#clipPath1008)">
          <path
             d="m 27.490909,51.127412 2.437347,-1.778112 2.437346,-2.02457 2.843571,-2.670924 2.843571,-2.984725 3.249795,-3.743495 4.468468,-5.55026 7.31204,-9.14527 2.843571,-3.185068 2.437346,-2.395027 2.031122,-1.689128 1.624898,-1.113542 1.624897,-0.875491 1.624898,-0.614853 1.624897,-0.334054 1.218674,-0.05573 1.218673,0.118153 1.218673,0.297073 1.218673,0.479859 1.218674,0.665292 1.624897,1.177715 1.624898,1.50939 1.624897,1.836637 1.624898,2.155347 2.031122,3.122888 2.031122,3.568118 2.437347,4.810524 2.437346,5.305708 3.249795,7.672811 4.468469,11.223739 6.905816,17.373182 3.24979,7.590384 2.84358,6.096159 2.43734,4.728697 2.43735,4.211034 2.03112,3.084054 2.03112,2.680623 2.03112,2.26871 1.6249,1.51694 1.6249,1.25397 1.6249,0.99528 1.62489,0.74305 1.6249,0.49919 1.6249,0.2654 1.6249,0.0431 1.62489,-0.16637 1.6249,-0.36213 2.03112,-0.70584 2.03113,-0.95963 2.43734,-1.44416 2.43735,-1.71416 2.84357,-2.27305 3.65602,-3.236466 5.28092,-5.019173 8.93693,-8.506124 4.46847,-3.935922 4.06225,-3.286519 3.65602,-2.689006 3.65602,-2.422328 3.65602,-2.155517 3.65601,-1.896959 3.65602,-1.652667 3.65602,-1.426602 4.06225,-1.344933 4.06224,-1.120496 4.46847,-1.007927 4.87469,-0.872623 5.28092,-0.72604 6.09337,-0.613198 6.90581,-0.473162 8.12449,-0.335212 9.74939,-0.17209 10.56183,0.04176 9.74939,0.254924 8.53071,0.437703 7.71826,0.622347 6.90582,0.782326 6.49959,0.95465 6.90581,1.238555 19.49877,3.700468 3.65602,0.371417 3.2498,0.119725 2.84357,-0.09778 2.84357,-0.317992 2.84357,-0.561945 2.84357,-0.820419 2.84357,-1.080716 2.84357,-1.326827 3.2498,-1.774568 4.46847,-2.737358 6.09336,-3.735082 2.84357,-1.482325 2.43735,-1.019734 2.03112,-0.623612 2.03113,-0.384695 2.03112,-0.122671 1.62489,0.09985 2.03113,0.374953 2.03112,0.644855 2.03112,0.893892 2.43735,1.353279 2.84357,1.862318 8.12449,5.543815 2.43734,1.28474 2.03112,0.811941 2.03113,0.538788 1.6249,0.220318 1.62489,0.02926 1.6249,-0.158465 2.03112,-0.447333 2.03112,-0.695989 2.43735,-1.106973 2.84357,-1.564222 4.87469,-3.009861 6.90582,-4.222667 5.28092,-3.232306 0.40622,-0.272874 v 0"
             style="fill:none;stroke:#1e64c8;stroke-width:0.5;stroke-linecap:square;stroke-linejoin:round;stroke-miterlimit:10;stroke-dasharray:none;stroke-opacity:1"
             id="path1010" />
        </g>
      </g>
      <g
         id="g1012">
        <g
           id="g1014"
           clip-path="url(#clipPath1018)">
          <path
             d="m 27.490909,50.859459 2.437347,-1.685793 2.437346,-1.952658 2.437346,-2.216327 2.843571,-2.902202 3.249795,-3.686181 3.65602,-4.505449 9.749386,-12.271046 2.437346,-2.674202 2.031122,-1.967882 2.031122,-1.671798 1.624898,-1.088532 1.624898,-0.839701 1.624897,-0.567671 1.624898,-0.275073 1.218673,-0.0036 1.218673,0.176975 1.218674,0.362528 1.218673,0.551773 1.218673,0.74341 1.624898,1.290933 1.624897,1.63202 1.624898,1.967435 1.624897,2.292858 2.031123,3.301697 2.031122,3.751295 2.437346,5.030723 2.843571,6.480117 3.249795,8.003402 6.093366,15.787333 4.46847,11.335395 3.24979,7.679515 2.84358,6.136424 2.43734,4.733778 2.03112,3.530509 2.03113,3.128226 2.03112,2.70993 2.03112,2.28308 1.6249,1.51791 1.6249,1.2459 1.62489,0.97867 1.6249,0.71846 1.6249,0.46728 1.62489,0.22693 1.6249,-10e-4 1.6249,-0.21553 1.6249,-0.41538 2.03112,-0.77679 2.03112,-1.03391 2.43735,-1.53543 2.43734,-1.80533 2.84358,-2.37621 3.65601,-3.359349 6.09337,-5.97447 7.31204,-7.102096 4.46847,-4.028417 4.06224,-3.357847 3.65602,-2.74144 3.65602,-2.463468 3.65602,-2.185919 3.65602,-1.917655 3.65602,-1.66496 3.65602,-1.43192 4.06224,-1.344407 4.06225,-1.114988 4.46847,-0.998083 4.87469,-0.859471 5.28092,-0.711109 6.09336,-0.597404 7.31204,-0.480737 8.53072,-0.329119 10.15561,-0.164715 10.96805,0.03812 10.56184,0.256318 8.93694,0.437581 7.71826,0.598255 6.90582,0.751624 6.90581,0.979717 7.31204,1.268637 16.24898,2.932134 4.06224,0.444204 3.24979,0.158326 3.2498,-0.06812 2.84357,-0.279638 2.84357,-0.509655 2.84357,-0.754157 2.84357,-1.00087 2.84357,-1.234234 3.2498,-1.654838 4.46847,-2.553543 6.09336,-3.466158 2.84357,-1.358648 2.43735,-0.919602 2.03112,-0.546994 2.03113,-0.316669 2.03112,-0.06562 2.03112,0.196293 2.03112,0.457712 2.03112,0.7063 2.03113,0.929434 2.43734,1.356161 3.65602,2.343318 4.87469,3.14492 2.43735,1.334394 2.03112,0.895594 2.03112,0.653174 2.03113,0.38197 1.6249,0.100579 1.62489,-0.08189 2.03112,-0.348725 2.03113,-0.598811 2.43734,-0.997499 2.84357,-1.450674 4.46847,-2.604094 6.49959,-3.77464 8.12449,-4.548774 v 0"
             style="fill:none;stroke:#1e64c8;stroke-width:0.5;stroke-linecap:square;stroke-linejoin:round;stroke-miterlimit:10;stroke-dasharray:none;stroke-opacity:1"
             id="path1020" />
        </g>
      </g>
      <g
         id="g1022">
        <g
           id="g1024"
           clip-path="url(#clipPath1028)">
          <path
             d="m 27.490909,50.68912 2.437347,-1.601286 2.437346,-1.88662 2.437346,-2.167413 2.843571,-2.865902 2.843571,-3.191984 3.65602,-4.483185 11.374283,-14.371669 2.437347,-2.575016 2.031122,-1.846737 2.031122,-1.514324 1.624897,-0.936199 1.624898,-0.664304 1.624897,-0.370019 1.218674,-0.07264 1.218673,0.110692 1.218673,0.299688 1.218673,0.493062 1.218674,0.689466 1.624897,1.22742 1.624898,1.579213 1.624897,1.926311 1.624898,2.264141 2.031122,3.283922 2.031122,3.753897 2.437347,5.060171 2.437346,5.57621 3.249795,8.048682 4.874693,12.806602 5.687142,14.866419 3.2498,7.91965 2.84357,6.351587 2.43734,4.914069 2.03112,3.673637 2.03113,3.261989 2.03112,2.83214 2.03112,2.39199 1.6249,1.59461 1.6249,1.3129 1.62489,1.03574 1.6249,0.76554 1.6249,0.50453 1.6249,0.25459 1.62489,0.0174 1.6249,-0.20571 1.6249,-0.41359 2.03112,-0.78486 2.03112,-1.05206 2.03112,-1.28604 2.43735,-1.8053 2.84357,-2.39652 3.65602,-3.410354 5.68714,-5.685602 7.71827,-7.681226 4.46847,-4.122719 4.06224,-3.432311 3.65602,-2.797449 3.65602,-2.508574 3.65602,-2.220452 3.65602,-1.942469 3.65602,-1.681241 3.65602,-1.441015 4.06224,-1.347765 4.06225,-1.112991 4.46846,-0.991639 4.8747,-0.849456 5.28091,-0.698881 6.09337,-0.583793 7.31204,-0.467664 8.93694,-0.331768 10.56183,-0.163739 11.78051,0.03527 10.96806,0.247767 8.93693,0.410141 7.71827,0.562996 7.31204,0.759748 6.90581,0.944194 7.71827,1.292347 14.21785,2.461865 4.46847,0.496412 3.65602,0.174977 3.2498,-0.07647 2.84356,-0.280801 2.84358,-0.503887 2.84357,-0.740054 2.84357,-0.976762 2.84357,-1.19822 3.65602,-1.809562 6.09336,-3.353669 4.06225,-2.110168 2.84357,-1.226737 2.43735,-0.79751 2.03112,-0.442078 2.03112,-0.212289 2.03112,0.03434 2.03112,0.287446 2.03113,0.535305 2.03112,0.765486 2.43734,1.179211 2.84357,1.639647 8.12449,4.876382 2.43735,1.098682 2.03112,0.669174 2.03112,0.410501 2.03113,0.134769 2.03112,-0.142437 2.03112,-0.405964 2.03112,-0.642291 2.43735,-1.02863 2.84357,-1.455107 6.09337,-3.467928 4.87469,-2.623335 8.53071,-4.376538 v 0"
             style="fill:none;stroke:#1e64c8;stroke-width:0.5;stroke-linecap:square;stroke-linejoin:round;stroke-miterlimit:10;stroke-dasharray:none;stroke-opacity:1"
             id="path1030" />
        </g>
      </g>
    </g>
    <rect
       style="fill:url(#linearGradient1237);fill-opacity:1;stroke-width:0.474484"
       id="rect1155"
       width="8.3844461"
       height="34.826767"
       x="-120.53494"
       y="52.096012"
       ry="0.79818702" />
    <rect
       style="fill:url(#linearGradient1929);fill-opacity:1;stroke-width:0.474484"
       id="rect1155-7"
       width="8.3844461"
       height="34.826767"
       x="-23.213867"
       y="-87.596336"
       ry="0.79818702"
       transform="scale(-1)" />
  </g>
</svg>
